<svg width="8" height="12" viewBox="0 0 8 12" fill="none" xmlns="http://www.w3.org/2000/svg">
<path d="M1.28 0.64C1.28 0.993462 0.993462 1.28 0.64 1.28C0.286538 1.28 0 0.993462 0 0.64C0 0.286538 0.286538 0 0.64 0C0.993462 0 1.28 0.286538 1.28 0.64Z" fill="#3162F4"/>
<path d="M1.28 2.77281C1.28 3.12627 0.993462 3.41281 0.64 3.41281C0.286538 3.41281 0 3.12627 0 2.77281C0 2.41935 0.286538 2.13281 0.64 2.13281C0.993462 2.13281 1.28 2.41935 1.28 2.77281Z" fill="#3162F4"/>
<path d="M1.28 4.90562C1.28 5.25909 0.993462 5.54562 0.64 5.54562C0.286538 5.54562 0 5.25909 0 4.90562C0 4.55216 0.286538 4.26562 0.64 4.26562C0.993462 4.26562 1.28 4.55216 1.28 4.90562Z" fill="#3162F4"/>
<path d="M1.28 7.03844C1.28 7.3919 0.993462 7.67844 0.64 7.67844C0.286538 7.67844 0 7.3919 0 7.03844C0 6.68497 0.286538 6.39844 0.64 6.39844C0.993462 6.39844 1.28 6.68497 1.28 7.03844Z" fill="#3162F4"/>
<path d="M1.28 9.17125C1.28 9.52471 0.993462 9.81125 0.64 9.81125C0.286538 9.81125 0 9.52471 0 9.17125C0 8.81779 0.286538 8.53125 0.64 8.53125C0.993462 8.53125 1.28 8.81779 1.28 9.17125Z" fill="#3162F4"/>
<path d="M1.28 11.3041C1.28 11.6575 0.993462 11.9441 0.64 11.9441C0.286538 11.9441 0 11.6575 0 11.3041C0 10.9506 0.286538 10.6641 0.64 10.6641C0.993462 10.6641 1.28 10.9506 1.28 11.3041Z" fill="#3162F4"/>
<path d="M3.41281 0.64C3.41281 0.993462 3.12627 1.28 2.77281 1.28C2.41935 1.28 2.13281 0.993462 2.13281 0.64C2.13281 0.286538 2.41935 0 2.77281 0C3.12627 0 3.41281 0.286538 3.41281 0.64Z" fill="#3162F4"/>
<path d="M3.41281 2.77281C3.41281 3.12627 3.12627 3.41281 2.77281 3.41281C2.41935 3.41281 2.13281 3.12627 2.13281 2.77281C2.13281 2.41935 2.41935 2.13281 2.77281 2.13281C3.12627 2.13281 3.41281 2.41935 3.41281 2.77281Z" fill="#3162F4"/>
<path d="M3.41281 4.90562C3.41281 5.25909 3.12627 5.54562 2.77281 5.54562C2.41935 5.54562 2.13281 5.25909 2.13281 4.90562C2.13281 4.55216 2.41935 4.26562 2.77281 4.26562C3.12627 4.26562 3.41281 4.55216 3.41281 4.90562Z" fill="#3162F4"/>
<path d="M3.41281 7.03844C3.41281 7.3919 3.12627 7.67844 2.77281 7.67844C2.41935 7.67844 2.13281 7.3919 2.13281 7.03844C2.13281 6.68497 2.41935 6.39844 2.77281 6.39844C3.12627 6.39844 3.41281 6.68497 3.41281 7.03844Z" fill="#3162F4"/>
<path d="M3.41281 9.17125C3.41281 9.52471 3.12627 9.81125 2.77281 9.81125C2.41935 9.81125 2.13281 9.52471 2.13281 9.17125C2.13281 8.81779 2.41935 8.53125 2.77281 8.53125C3.12627 8.53125 3.41281 8.81779 3.41281 9.17125Z" fill="#3162F4"/>
<path d="M3.41281 11.3041C3.41281 11.6575 3.12627 11.9441 2.77281 11.9441C2.41935 11.9441 2.13281 11.6575 2.13281 11.3041C2.13281 10.9506 2.41935 10.6641 2.77281 10.6641C3.12627 10.6641 3.41281 10.9506 3.41281 11.3041Z" fill="#3162F4"/>
<path d="M5.54563 0.64C5.54563 0.993462 5.25909 1.28 4.90563 1.28C4.55216 1.28 4.26562 0.993462 4.26562 0.64C4.26562 0.286538 4.55216 0 4.90563 0C5.25909 0 5.54563 0.286538 5.54563 0.64Z" fill="#3162F4"/>
<path d="M5.54563 2.77281C5.54563 3.12627 5.25909 3.41281 4.90563 3.41281C4.55216 3.41281 4.26562 3.12627 4.26562 2.77281C4.26562 2.41935 4.55216 2.13281 4.90563 2.13281C5.25909 2.13281 5.54563 2.41935 5.54563 2.77281Z" fill="#3162F4"/>
<path d="M5.54563 4.90562C5.54563 5.25909 5.25909 5.54562 4.90563 5.54562C4.55216 5.54562 4.26562 5.25909 4.26562 4.90562C4.26562 4.55216 4.55216 4.26562 4.90563 4.26562C5.25909 4.26562 5.54563 4.55216 5.54563 4.90562Z" fill="#3162F4"/>
<path d="M5.54563 7.03844C5.54563 7.3919 5.25909 7.67844 4.90563 7.67844C4.55216 7.67844 4.26562 7.3919 4.26562 7.03844C4.26562 6.68497 4.55216 6.39844 4.90563 6.39844C5.25909 6.39844 5.54563 6.68497 5.54563 7.03844Z" fill="#3162F4"/>
<path d="M5.54563 9.17125C5.54563 9.52471 5.25909 9.81125 4.90563 9.81125C4.55216 9.81125 4.26562 9.52471 4.26562 9.17125C4.26562 8.81779 4.55216 8.53125 4.90563 8.53125C5.25909 8.53125 5.54563 8.81779 5.54563 9.17125Z" fill="#3162F4"/>
<path d="M5.54563 11.3041C5.54563 11.6575 5.25909 11.9441 4.90563 11.9441C4.55216 11.9441 4.26562 11.6575 4.26562 11.3041C4.26562 10.9506 4.55216 10.6641 4.90563 10.6641C5.25909 10.6641 5.54563 10.9506 5.54563 11.3041Z" fill="#3162F4"/>
<path d="M7.67844 0.64C7.67844 0.993462 7.3919 1.28 7.03844 1.28C6.68498 1.28 6.39844 0.993462 6.39844 0.64C6.39844 0.286538 6.68498 0 7.03844 0C7.3919 0 7.67844 0.286538 7.67844 0.64Z" fill="#3162F4"/>
<path d="M7.67844 2.77281C7.67844 3.12627 7.3919 3.41281 7.03844 3.41281C6.68498 3.41281 6.39844 3.12627 6.39844 2.77281C6.39844 2.41935 6.68498 2.13281 7.03844 2.13281C7.3919 2.13281 7.67844 2.41935 7.67844 2.77281Z" fill="#3162F4"/>
<path d="M7.67844 4.90562C7.67844 5.25909 7.3919 5.54562 7.03844 5.54562C6.68498 5.54562 6.39844 5.25909 6.39844 4.90562C6.39844 4.55216 6.68498 4.26562 7.03844 4.26562C7.3919 4.26562 7.67844 4.55216 7.67844 4.90562Z" fill="#3162F4"/>
<path d="M7.67844 7.03844C7.67844 7.3919 7.3919 7.67844 7.03844 7.67844C6.68498 7.67844 6.39844 7.3919 6.39844 7.03844C6.39844 6.68497 6.68498 6.39844 7.03844 6.39844C7.3919 6.39844 7.67844 6.68497 7.67844 7.03844Z" fill="#3162F4"/>
<path d="M7.67844 9.17125C7.67844 9.52471 7.3919 9.81125 7.03844 9.81125C6.68498 9.81125 6.39844 9.52471 6.39844 9.17125C6.39844 8.81779 6.68498 8.53125 7.03844 8.53125C7.3919 8.53125 7.67844 8.81779 7.67844 9.17125Z" fill="#3162F4"/>
<path d="M7.67844 11.3041C7.67844 11.6575 7.3919 11.9441 7.03844 11.9441C6.68498 11.9441 6.39844 11.6575 6.39844 11.3041C6.39844 10.9506 6.68498 10.6641 7.03844 10.6641C7.3919 10.6641 7.67844 10.9506 7.67844 11.3041Z" fill="#3162F4"/>
</svg>
