<svg width="12" height="8" viewBox="0 0 12 8" fill="none" xmlns="http://www.w3.org/2000/svg">
<g clip-path="url(#clip0_3_154)">
<path d="M11.36 1.28C11.0065 1.28 10.72 0.993462 10.72 0.64C10.72 0.286538 11.0065 0 11.36 0C11.7135 0 12 0.286538 12 0.64C12 0.993462 11.7135 1.28 11.36 1.28Z" fill="#3162F4"/>
<path d="M9.22719 1.28C8.87373 1.28 8.58719 0.993462 8.58719 0.64C8.58719 0.286538 8.87373 0 9.22719 0C9.58065 0 9.86719 0.286538 9.86719 0.64C9.86719 0.993462 9.58065 1.28 9.22719 1.28Z" fill="#3162F4"/>
<path d="M7.09438 1.28C6.74091 1.28 6.45438 0.993462 6.45438 0.64C6.45438 0.286538 6.74091 0 7.09438 0C7.44784 0 7.73438 0.286538 7.73438 0.64C7.73438 0.993462 7.44784 1.28 7.09438 1.28Z" fill="#3162F4"/>
<path d="M4.96156 1.28C4.6081 1.28 4.32156 0.993462 4.32156 0.64C4.32156 0.286538 4.6081 0 4.96156 0C5.31503 0 5.60156 0.286538 5.60156 0.64C5.60156 0.993462 5.31503 1.28 4.96156 1.28Z" fill="#3162F4"/>
<path d="M2.82875 1.28C2.47529 1.28 2.18875 0.993462 2.18875 0.64C2.18875 0.286538 2.47529 0 2.82875 0C3.18221 0 3.46875 0.286538 3.46875 0.64C3.46875 0.993462 3.18221 1.28 2.82875 1.28Z" fill="#3162F4"/>
<path d="M0.695907 1.28C0.342507 1.28 0.0559063 0.993462 0.0559063 0.64C0.0559063 0.286538 0.342507 0 0.695907 0C1.04941 0 1.33591 0.286538 1.33591 0.64C1.33591 0.993462 1.04941 1.28 0.695907 1.28Z" fill="#3162F4"/>
<path d="M11.36 3.41281C11.0065 3.41281 10.72 3.12627 10.72 2.77281C10.72 2.41935 11.0065 2.13281 11.36 2.13281C11.7135 2.13281 12 2.41935 12 2.77281C12 3.12627 11.7135 3.41281 11.36 3.41281Z" fill="#3162F4"/>
<path d="M9.22719 3.41281C8.87373 3.41281 8.58719 3.12627 8.58719 2.77281C8.58719 2.41935 8.87373 2.13281 9.22719 2.13281C9.58065 2.13281 9.86719 2.41935 9.86719 2.77281C9.86719 3.12627 9.58065 3.41281 9.22719 3.41281Z" fill="#3162F4"/>
<path d="M7.09438 3.41281C6.74091 3.41281 6.45438 3.12627 6.45438 2.77281C6.45438 2.41935 6.74091 2.13281 7.09438 2.13281C7.44784 2.13281 7.73438 2.41935 7.73438 2.77281C7.73438 3.12627 7.44784 3.41281 7.09438 3.41281Z" fill="#3162F4"/>
<path d="M4.96156 3.41281C4.6081 3.41281 4.32156 3.12627 4.32156 2.77281C4.32156 2.41935 4.6081 2.13281 4.96156 2.13281C5.31503 2.13281 5.60156 2.41935 5.60156 2.77281C5.60156 3.12627 5.31503 3.41281 4.96156 3.41281Z" fill="#3162F4"/>
<path d="M2.82875 3.41281C2.47529 3.41281 2.18875 3.12627 2.18875 2.77281C2.18875 2.41935 2.47529 2.13281 2.82875 2.13281C3.18221 2.13281 3.46875 2.41935 3.46875 2.77281C3.46875 3.12627 3.18221 3.41281 2.82875 3.41281Z" fill="#3162F4"/>
<path d="M0.695907 3.41281C0.342507 3.41281 0.0559063 3.12627 0.0559063 2.77281C0.0559063 2.41935 0.342507 2.13281 0.695907 2.13281C1.04941 2.13281 1.33591 2.41935 1.33591 2.77281C1.33591 3.12627 1.04941 3.41281 0.695907 3.41281Z" fill="#3162F4"/>
<path d="M11.36 5.54563C11.0065 5.54563 10.72 5.25909 10.72 4.90563C10.72 4.55216 11.0065 4.26562 11.36 4.26562C11.7135 4.26562 12 4.55216 12 4.90563C12 5.25909 11.7135 5.54563 11.36 5.54563Z" fill="#3162F4"/>
<path d="M9.22719 5.54563C8.87373 5.54563 8.58719 5.25909 8.58719 4.90563C8.58719 4.55216 8.87373 4.26562 9.22719 4.26562C9.58065 4.26562 9.86719 4.55216 9.86719 4.90563C9.86719 5.25909 9.58065 5.54563 9.22719 5.54563Z" fill="#3162F4"/>
<path d="M7.09438 5.54563C6.74091 5.54563 6.45438 5.25909 6.45438 4.90563C6.45438 4.55216 6.74091 4.26562 7.09438 4.26562C7.44784 4.26562 7.73438 4.55216 7.73438 4.90563C7.73438 5.25909 7.44784 5.54563 7.09438 5.54563Z" fill="#3162F4"/>
<path d="M4.96156 5.54563C4.6081 5.54563 4.32156 5.25909 4.32156 4.90563C4.32156 4.55216 4.6081 4.26562 4.96156 4.26562C5.31503 4.26562 5.60156 4.55216 5.60156 4.90563C5.60156 5.25909 5.31503 5.54563 4.96156 5.54563Z" fill="#3162F4"/>
<path d="M2.82875 5.54563C2.47529 5.54563 2.18875 5.25909 2.18875 4.90563C2.18875 4.55216 2.47529 4.26562 2.82875 4.26562C3.18221 4.26562 3.46875 4.55216 3.46875 4.90563C3.46875 5.25909 3.18221 5.54563 2.82875 5.54563Z" fill="#3162F4"/>
<path d="M0.695907 5.54563C0.342507 5.54563 0.0559063 5.25909 0.0559063 4.90563C0.0559063 4.55216 0.342507 4.26562 0.695907 4.26562C1.04941 4.26562 1.33591 4.55216 1.33591 4.90563C1.33591 5.25909 1.04941 5.54563 0.695907 5.54563Z" fill="#3162F4"/>
<path d="M11.36 7.67844C11.0065 7.67844 10.72 7.3919 10.72 7.03844C10.72 6.68498 11.0065 6.39844 11.36 6.39844C11.7135 6.39844 12 6.68498 12 7.03844C12 7.3919 11.7135 7.67844 11.36 7.67844Z" fill="#3162F4"/>
<path d="M9.22719 7.67844C8.87373 7.67844 8.58719 7.3919 8.58719 7.03844C8.58719 6.68498 8.87373 6.39844 9.22719 6.39844C9.58065 6.39844 9.86719 6.68498 9.86719 7.03844C9.86719 7.3919 9.58065 7.67844 9.22719 7.67844Z" fill="#3162F4"/>
<path d="M7.09438 7.67844C6.74091 7.67844 6.45438 7.3919 6.45438 7.03844C6.45438 6.68498 6.74091 6.39844 7.09438 6.39844C7.44784 6.39844 7.73438 6.68498 7.73438 7.03844C7.73438 7.3919 7.44784 7.67844 7.09438 7.67844Z" fill="#3162F4"/>
<path d="M4.96156 7.67844C4.6081 7.67844 4.32156 7.3919 4.32156 7.03844C4.32156 6.68498 4.6081 6.39844 4.96156 6.39844C5.31503 6.39844 5.60156 6.68498 5.60156 7.03844C5.60156 7.3919 5.31503 7.67844 4.96156 7.67844Z" fill="#3162F4"/>
<path d="M2.82875 7.67844C2.47529 7.67844 2.18875 7.3919 2.18875 7.03844C2.18875 6.68498 2.47529 6.39844 2.82875 6.39844C3.18221 6.39844 3.46875 6.68498 3.46875 7.03844C3.46875 7.3919 3.18221 7.67844 2.82875 7.67844Z" fill="#3162F4"/>
<path d="M0.695907 7.67844C0.342507 7.67844 0.0559063 7.3919 0.0559063 7.03844C0.0559063 6.68498 0.342507 6.39844 0.695907 6.39844C1.04941 6.39844 1.33591 6.68498 1.33591 7.03844C1.33591 7.3919 1.04941 7.67844 0.695907 7.67844Z" fill="#3162F4"/>
</g>
<defs>
<clipPath id="clip0_3_154">
<rect width="8" height="12" fill="white" transform="matrix(0 1 -1 0 12 0)"/>
</clipPath>
</defs>
</svg>
