<svg width="12" height="8" viewBox="0 0 12 8" fill="none" xmlns="http://www.w3.org/2000/svg">
<g clip-path="url(#clip0_3_128)">
<path d="M10.6471 1.76103C10.3378 1.76103 10.0871 1.51031 10.0871 1.20103C10.0871 0.89175 10.3378 0.641029 10.6471 0.641029C10.9564 0.641029 11.2071 0.89175 11.2071 1.20103C11.2071 1.51031 10.9564 1.76103 10.6471 1.76103Z" fill="#F8F7F7"/>
<path d="M8.78091 1.76103C8.47163 1.76103 8.22091 1.51031 8.22091 1.20103C8.22091 0.89175 8.47163 0.641029 8.78091 0.641029C9.09019 0.641029 9.34091 0.89175 9.34091 1.20103C9.34091 1.51031 9.09019 1.76103 8.78091 1.76103Z" fill="#F8F7F7"/>
<path d="M6.9147 1.76103C6.60542 1.76103 6.3547 1.51031 6.3547 1.20103C6.3547 0.89175 6.60542 0.641029 6.9147 0.641029C7.22398 0.641029 7.4747 0.89175 7.4747 1.20103C7.4747 1.51031 7.22398 1.76103 6.9147 1.76103Z" fill="#F8F7F7"/>
<path d="M5.04849 1.76103C4.73921 1.76103 4.48849 1.51031 4.48849 1.20103C4.48849 0.89175 4.73921 0.641029 5.04849 0.641029C5.35777 0.641029 5.60849 0.89175 5.60849 1.20103C5.60849 1.51031 5.35777 1.76103 5.04849 1.76103Z" fill="#F8F7F7"/>
<path d="M3.18228 1.76103C2.873 1.76103 2.62228 1.51031 2.62228 1.20103C2.62228 0.89175 2.873 0.641029 3.18228 0.641029C3.49156 0.641029 3.74228 0.89175 3.74228 1.20103C3.74228 1.51031 3.49156 1.76103 3.18228 1.76103Z" fill="#F8F7F7"/>
<path d="M1.3161 1.76103C1.0068 1.76103 0.756099 1.51031 0.756099 1.20103C0.756099 0.89175 1.0068 0.641029 1.3161 0.641029C1.6253 0.641029 1.8761 0.89175 1.8761 1.20103C1.8761 1.51031 1.6253 1.76103 1.3161 1.76103Z" fill="#F8F7F7"/>
<path d="M10.6471 3.62724C10.3378 3.62724 10.0871 3.37652 10.0871 3.06724C10.0871 2.75796 10.3378 2.50724 10.6471 2.50724C10.9564 2.50724 11.2071 2.75796 11.2071 3.06724C11.2071 3.37652 10.9564 3.62724 10.6471 3.62724Z" fill="#F8F7F7"/>
<path d="M8.78091 3.62724C8.47163 3.62724 8.22091 3.37652 8.22091 3.06724C8.22091 2.75796 8.47163 2.50724 8.78091 2.50724C9.09019 2.50724 9.34091 2.75796 9.34091 3.06724C9.34091 3.37652 9.09019 3.62724 8.78091 3.62724Z" fill="#F8F7F7"/>
<path d="M6.9147 3.62724C6.60542 3.62724 6.3547 3.37652 6.3547 3.06724C6.3547 2.75796 6.60542 2.50724 6.9147 2.50724C7.22398 2.50724 7.4747 2.75796 7.4747 3.06724C7.4747 3.37652 7.22398 3.62724 6.9147 3.62724Z" fill="#F8F7F7"/>
<path d="M5.04849 3.62724C4.73921 3.62724 4.48849 3.37652 4.48849 3.06724C4.48849 2.75796 4.73921 2.50724 5.04849 2.50724C5.35777 2.50724 5.60849 2.75796 5.60849 3.06724C5.60849 3.37652 5.35777 3.62724 5.04849 3.62724Z" fill="#F8F7F7"/>
<path d="M3.18228 3.62724C2.873 3.62724 2.62228 3.37652 2.62228 3.06724C2.62228 2.75796 2.873 2.50724 3.18228 2.50724C3.49156 2.50724 3.74228 2.75796 3.74228 3.06724C3.74228 3.37652 3.49156 3.62724 3.18228 3.62724Z" fill="#F8F7F7"/>
<path d="M1.3161 3.62724C1.0068 3.62724 0.756099 3.37652 0.756099 3.06724C0.756099 2.75796 1.0068 2.50724 1.3161 2.50724C1.6253 2.50724 1.8761 2.75796 1.8761 3.06724C1.8761 3.37652 1.6253 3.62724 1.3161 3.62724Z" fill="#F8F7F7"/>
<path d="M10.6471 5.49345C10.3378 5.49345 10.0871 5.24273 10.0871 4.93345C10.0871 4.62417 10.3378 4.37345 10.6471 4.37345C10.9564 4.37345 11.2071 4.62417 11.2071 4.93345C11.2071 5.24273 10.9564 5.49345 10.6471 5.49345Z" fill="#F8F7F7"/>
<path d="M8.78091 5.49345C8.47163 5.49345 8.22091 5.24273 8.22091 4.93345C8.22091 4.62417 8.47163 4.37345 8.78091 4.37345C9.09019 4.37345 9.34091 4.62417 9.34091 4.93345C9.34091 5.24273 9.09019 5.49345 8.78091 5.49345Z" fill="#F8F7F7"/>
<path d="M6.9147 5.49345C6.60542 5.49345 6.3547 5.24273 6.3547 4.93345C6.3547 4.62417 6.60542 4.37345 6.9147 4.37345C7.22398 4.37345 7.4747 4.62417 7.4747 4.93345C7.4747 5.24273 7.22398 5.49345 6.9147 5.49345Z" fill="#F8F7F7"/>
<path d="M5.04849 5.49345C4.73921 5.49345 4.48849 5.24273 4.48849 4.93345C4.48849 4.62417 4.73921 4.37345 5.04849 4.37345C5.35777 4.37345 5.60849 4.62417 5.60849 4.93345C5.60849 5.24273 5.35777 5.49345 5.04849 5.49345Z" fill="#F8F7F7"/>
<path d="M3.18228 5.49345C2.873 5.49345 2.62228 5.24273 2.62228 4.93345C2.62228 4.62417 2.873 4.37345 3.18228 4.37345C3.49156 4.37345 3.74228 4.62417 3.74228 4.93345C3.74228 5.24273 3.49156 5.49345 3.18228 5.49345Z" fill="#F8F7F7"/>
<path d="M1.3161 5.49345C1.0068 5.49345 0.756099 5.24273 0.756099 4.93345C0.756099 4.62417 1.0068 4.37345 1.3161 4.37345C1.6253 4.37345 1.8761 4.62417 1.8761 4.93345C1.8761 5.24273 1.6253 5.49345 1.3161 5.49345Z" fill="#F8F7F7"/>
<path d="M10.6471 7.35966C10.3378 7.35966 10.0871 7.10894 10.0871 6.79966C10.0871 6.49038 10.3378 6.23966 10.6471 6.23966C10.9564 6.23966 11.2071 6.49038 11.2071 6.79966C11.2071 7.10894 10.9564 7.35966 10.6471 7.35966Z" fill="#F8F7F7"/>
<path d="M8.78091 7.35966C8.47163 7.35966 8.22091 7.10894 8.22091 6.79966C8.22091 6.49038 8.47163 6.23966 8.78091 6.23966C9.09019 6.23966 9.34091 6.49038 9.34091 6.79966C9.34091 7.10894 9.09019 7.35966 8.78091 7.35966Z" fill="#F8F7F7"/>
<path d="M6.9147 7.35966C6.60542 7.35966 6.3547 7.10894 6.3547 6.79966C6.3547 6.49038 6.60542 6.23966 6.9147 6.23966C7.22398 6.23966 7.4747 6.49038 7.4747 6.79966C7.4747 7.10894 7.22398 7.35966 6.9147 7.35966Z" fill="#F8F7F7"/>
<path d="M5.04849 7.35966C4.73921 7.35966 4.48849 7.10894 4.48849 6.79966C4.48849 6.49038 4.73921 6.23966 5.04849 6.23966C5.35777 6.23966 5.60849 6.49038 5.60849 6.79966C5.60849 7.10894 5.35777 7.35966 5.04849 7.35966Z" fill="#F8F7F7"/>
<path d="M3.18228 7.35966C2.873 7.35966 2.62228 7.10894 2.62228 6.79966C2.62228 6.49038 2.873 6.23966 3.18228 6.23966C3.49156 6.23966 3.74228 6.49038 3.74228 6.79966C3.74228 7.10894 3.49156 7.35966 3.18228 7.35966Z" fill="#F8F7F7"/>
<path d="M1.3161 7.35966C1.0068 7.35966 0.756099 7.10894 0.756099 6.79966C0.756099 6.49038 1.0068 6.23966 1.3161 6.23966C1.6253 6.23966 1.8761 6.49038 1.8761 6.79966C1.8761 7.10894 1.6253 7.35966 1.3161 7.35966Z" fill="#F8F7F7"/>
</g>
<defs>
<clipPath id="clip0_3_128">
<rect width="8" height="12" fill="white" transform="matrix(0 1 -1 0 12 0)"/>
</clipPath>
</defs>
</svg>
