<svg width="8" height="12" viewBox="0 0 8 12" fill="none" xmlns="http://www.w3.org/2000/svg">
    <path d="M1.76103 1.35288C1.76103 1.66216 1.51031 1.91288 1.20103 1.91288C0.89175 1.91288 0.641029 1.66216 0.641029 1.35288C0.641029 1.0436 0.89175 0.792877 1.20103 0.792877C1.51031 0.792877 1.76103 1.0436 1.76103 1.35288Z" fill="#F8F7F7"/>
    <path d="M1.76103 3.21909C1.76103 3.52837 1.51031 3.77909 1.20103 3.77909C0.89175 3.77909 0.641029 3.52837 0.641029 3.21909C0.641029 2.90981 0.89175 2.65909 1.20103 2.65909C1.51031 2.65909 1.76103 2.90981 1.76103 3.21909Z" fill="#F8F7F7"/>
    <path d="M1.76103 5.0853C1.76103 5.39458 1.51031 5.6453 1.20103 5.6453C0.89175 5.6453 0.641029 5.39458 0.641029 5.0853C0.641029 4.77602 0.89175 4.5253 1.20103 4.5253C1.51031 4.5253 1.76103 4.77602 1.76103 5.0853Z" fill="#F8F7F7"/>
    <path d="M1.76103 6.95151C1.76103 7.26079 1.51031 7.51151 1.20103 7.51151C0.89175 7.51151 0.641029 7.26079 0.641029 6.95151C0.641029 6.64223 0.89175 6.39151 1.20103 6.39151C1.51031 6.39151 1.76103 6.64223 1.76103 6.95151Z" fill="#F8F7F7"/>
    <path d="M1.76103 8.81772C1.76103 9.127 1.51031 9.37772 1.20103 9.37772C0.89175 9.37772 0.641029 9.127 0.641029 8.81772C0.641029 8.50844 0.89175 8.25772 1.20103 8.25772C1.51031 8.25772 1.76103 8.50844 1.76103 8.81772Z" fill="#F8F7F7"/>
    <path d="M1.76103 10.6839C1.76103 10.9932 1.51031 11.2439 1.20103 11.2439C0.89175 11.2439 0.641029 10.9932 0.641029 10.6839C0.641029 10.3747 0.89175 10.1239 1.20103 10.1239C1.51031 10.1239 1.76103 10.3747 1.76103 10.6839Z" fill="#F8F7F7"/>
    <path d="M3.62724 1.35288C3.62724 1.66216 3.37652 1.91288 3.06724 1.91288C2.75796 1.91288 2.50724 1.66216 2.50724 1.35288C2.50724 1.0436 2.75796 0.792877 3.06724 0.792877C3.37652 0.792877 3.62724 1.0436 3.62724 1.35288Z" fill="#F8F7F7"/>
    <path d="M3.62724 3.21909C3.62724 3.52837 3.37652 3.77909 3.06724 3.77909C2.75796 3.77909 2.50724 3.52837 2.50724 3.21909C2.50724 2.90981 2.75796 2.65909 3.06724 2.65909C3.37652 2.65909 3.62724 2.90981 3.62724 3.21909Z" fill="#F8F7F7"/>
    <path d="M3.62724 5.0853C3.62724 5.39458 3.37652 5.6453 3.06724 5.6453C2.75796 5.6453 2.50724 5.39458 2.50724 5.0853C2.50724 4.77602 2.75796 4.5253 3.06724 4.5253C3.37652 4.5253 3.62724 4.77602 3.62724 5.0853Z" fill="#F8F7F7"/>
    <path d="M3.62724 6.95151C3.62724 7.26079 3.37652 7.51151 3.06724 7.51151C2.75796 7.51151 2.50724 7.26079 2.50724 6.95151C2.50724 6.64223 2.75796 6.39151 3.06724 6.39151C3.37652 6.39151 3.62724 6.64223 3.62724 6.95151Z" fill="#F8F7F7"/>
    <path d="M3.62724 8.81772C3.62724 9.127 3.37652 9.37772 3.06724 9.37772C2.75796 9.37772 2.50724 9.127 2.50724 8.81772C2.50724 8.50844 2.75796 8.25772 3.06724 8.25772C3.37652 8.25772 3.62724 8.50844 3.62724 8.81772Z" fill="#F8F7F7"/>
    <path d="M3.62724 10.6839C3.62724 10.9932 3.37652 11.2439 3.06724 11.2439C2.75796 11.2439 2.50724 10.9932 2.50724 10.6839C2.50724 10.3747 2.75796 10.1239 3.06724 10.1239C3.37652 10.1239 3.62724 10.3747 3.62724 10.6839Z" fill="#F8F7F7"/>
    <path d="M5.49345 1.35288C5.49345 1.66216 5.24273 1.91288 4.93345 1.91288C4.62417 1.91288 4.37345 1.66216 4.37345 1.35288C4.37345 1.0436 4.62417 0.792877 4.93345 0.792877C5.24273 0.792877 5.49345 1.0436 5.49345 1.35288Z" fill="#F8F7F7"/>
    <path d="M5.49345 3.21909C5.49345 3.52837 5.24273 3.77909 4.93345 3.77909C4.62417 3.77909 4.37345 3.52837 4.37345 3.21909C4.37345 2.90981 4.62417 2.65909 4.93345 2.65909C5.24273 2.65909 5.49345 2.90981 5.49345 3.21909Z" fill="#F8F7F7"/>
    <path d="M5.49345 5.0853C5.49345 5.39458 5.24273 5.6453 4.93345 5.6453C4.62417 5.6453 4.37345 5.39458 4.37345 5.0853C4.37345 4.77602 4.62417 4.5253 4.93345 4.5253C5.24273 4.5253 5.49345 4.77602 5.49345 5.0853Z" fill="#F8F7F7"/>
    <path d="M5.49345 6.95151C5.49345 7.26079 5.24273 7.51151 4.93345 7.51151C4.62417 7.51151 4.37345 7.26079 4.37345 6.95151C4.37345 6.64223 4.62417 6.39151 4.93345 6.39151C5.24273 6.39151 5.49345 6.64223 5.49345 6.95151Z" fill="#F8F7F7"/>
    <path d="M5.49345 8.81772C5.49345 9.127 5.24273 9.37772 4.93345 9.37772C4.62417 9.37772 4.37345 9.127 4.37345 8.81772C4.37345 8.50844 4.62417 8.25772 4.93345 8.25772C5.24273 8.25772 5.49345 8.50844 5.49345 8.81772Z" fill="#F8F7F7"/>
    <path d="M5.49345 10.6839C5.49345 10.9932 5.24273 11.2439 4.93345 11.2439C4.62417 11.2439 4.37345 10.9932 4.37345 10.6839C4.37345 10.3747 4.62417 10.1239 4.93345 10.1239C5.24273 10.1239 5.49345 10.3747 5.49345 10.6839Z" fill="#F8F7F7"/>
    <path d="M7.35966 1.35288C7.35966 1.66216 7.10894 1.91288 6.79966 1.91288C6.49038 1.91288 6.23966 1.66216 6.23966 1.35288C6.23966 1.0436 6.49038 0.792877 6.79966 0.792877C7.10894 0.792877 7.35966 1.0436 7.35966 1.35288Z" fill="#F8F7F7"/>
    <path d="M7.35966 3.21909C7.35966 3.52837 7.10894 3.77909 6.79966 3.77909C6.49038 3.77909 6.23966 3.52837 6.23966 3.21909C6.23966 2.90981 6.49038 2.65909 6.79966 2.65909C7.10894 2.65909 7.35966 2.90981 7.35966 3.21909Z" fill="#F8F7F7"/>
    <path d="M7.35966 5.0853C7.35966 5.39458 7.10894 5.6453 6.79966 5.6453C6.49038 5.6453 6.23966 5.39458 6.23966 5.0853C6.23966 4.77602 6.49038 4.5253 6.79966 4.5253C7.10894 4.5253 7.35966 4.77602 7.35966 5.0853Z" fill="#F8F7F7"/>
    <path d="M7.35966 6.95151C7.35966 7.26079 7.10894 7.51151 6.79966 7.51151C6.49038 7.51151 6.23966 7.26079 6.23966 6.95151C6.23966 6.64223 6.49038 6.39151 6.79966 6.39151C7.10894 6.39151 7.35966 6.64223 7.35966 6.95151Z" fill="#F8F7F7"/>
    <path d="M7.35966 8.81772C7.35966 9.127 7.10894 9.37772 6.79966 9.37772C6.49038 9.37772 6.23966 9.127 6.23966 8.81772C6.23966 8.50844 6.49038 8.25772 6.79966 8.25772C7.10894 8.25772 7.35966 8.50844 7.35966 8.81772Z" fill="#F8F7F7"/>
    <path d="M7.35966 10.6839C7.35966 10.9932 7.10894 11.2439 6.79966 11.2439C6.49038 11.2439 6.23966 10.9932 6.23966 10.6839C6.23966 10.3747 6.49038 10.1239 6.79966 10.1239C7.10894 10.1239 7.35966 10.3747 7.35966 10.6839Z" fill="#F8F7F7"/>
</svg>
