<svg version="1.1" id="Layer_1" xmlns="http://www.w3.org/2000/svg" x="0" y="0" viewBox="0 0 64.8 73" style="enable-background:new 0 0 64.8 73" xml:space="preserve"><style>.st0{fill:#2e384c}.st3{fill:#28a0ef}</style><path class="st0" d="m20.8 61.5-.9 1.7 12 6.9 31.6-17.8-1-32.1-11.3-6.8-19.3 30.9z"/><path d="M.2 40.6c0 3.5 0 7-.1 10.5 0 1.6.5 3 1.4 4.2.4.6.9 1.1 1.5 1.4 1.5.8 2.9 1.7 4.4 2.6 1.9 1.1 3.9 2.3 5.8 3.4l5.6 3.2 28.9-46.2-27.7-.6L.2 40.6z" style="fill:#fff"/><path class="st0" d="m20.8 61.5-.5.6.5 1 2-1.4"/><path class="st0" d="M20.7 61.8c0-.1.1-.2.1-.3C28.6 48.3 36.3 35.2 44.1 22c.1-.2.2-.3.3-.5-.1-.1-.2-.1-.4-.1h-9.7c-.4 0-.6.2-.7.5-5 8.2-9.9 16.4-14.9 24.5-2.8 4.6-5.6 9.2-8.4 13.9-.1.1-.1.2-.2.3s-.2.2-.3.1c-.8-.5-1.7-1-2.6-1.5C15.1 46.6 22.9 34 30.7 21.4c-.1 0-.1-.1-.1-.1-1.6 0-3.1-.2-4.6-.1-1.8.1-3.6.4-5.2 1.2-1.2.6-2.1 1.4-2.8 2.5C13.7 31.6 9.3 38.3 5 45c-.1.1-.2.3-.3.4V21.8c0-1 .4-1.8 1.3-2.3 4.8-2.8 9.6-5.5 14.4-8.3C24 9.1 27.7 7 31.3 4.9c.8-.5 1.6-.5 2.5 0 8.4 4.9 16.9 9.7 25.3 14.5.9.5 1.4 1.3 1.4 2.4V46.5c-.2-.1-.3-.4-.4-.6-2.1-3.2-4.1-6.4-6.2-9.6-2.2-3.4-4.3-6.7-6.5-10.1-.4-.6-.8-1.3-1.3-2-.1.1-.1.1-.1.2-1.7 2.8-3.3 5.7-5 8.5-.2.3-.1.5 0 .7.9 1.4 1.7 2.8 2.6 4.2 2.9 4.7 5.8 9.3 8.6 14 .8 1.3 1.6 2.6 2.4 3.8-.3.3-.6.4-.9.6-.5.3-1.1.7-1.7.9-1.3-2-2.6-4.1-3.8-6.1-3-4.7-6-9.5-9-14.2-.1-.1-.1-.3-.3-.3-.1 0-.1.1-.2.2-1.9 3.2-3.8 6.5-5.7 9.7-.2.3-.1.5 0 .8 1.9 3 3.8 6 5.8 9 1.3 2.1 2.6 4.2 4 6.3l-.1.1c-3 1.7-6 3.5-9 5.2-.7.4-1.4.3-2.1-.1-3-1.7-6-3.4-8.9-5.1-.8-.1-1.3-.5-2-.8z"/><path d="M52 57.3c.6-.2 1.1-.6 1.7-.9.3-.2.7-.3.9-.6.1 0 .3-.1.4-.2 1.4-.8 2.9-1.7 4.3-2.5.7-.4 1-1.1 1.1-1.8V21.8c0-1.1-.4-1.8-1.4-2.4-8.4-4.8-16.9-9.7-25.3-14.5-.8-.5-1.6-.5-2.5 0-3.6 2.1-7.3 4.2-10.9 6.3-4.8 2.8-9.6 5.6-14.4 8.3-.9.5-1.3 1.2-1.3 2.3V45.4c0 .2-.1.3-.2.4-1.3 2-2.7 4.1-4 6.1-.1.1-.1.3-.3.3-.1-.2-.1-.4-.1-.6v-30c0-2 .7-3.7 2.1-5 .4-.4 1-.8 1.5-1.1 3.6-2.1 7.2-4.2 10.8-6.2l7.8-4.5c2.3-1.4 4.6-2.8 7-4 2.2-1.2 4.4-1.1 6.6.2 2.1 1.2 4.2 2.4 6.4 3.7 2 1.2 4 2.3 6 3.5 1.8 1 3.6 2.1 5.4 3.1s3.7 2.1 5.5 3.2c.8.4 1.6.9 2.3 1.4 1.9 1.2 3 2.8 3.3 5 .1.6.1 1.1.1 1.7v28.5c0 1.6-.4 3-1.4 4.3-.5.6-1 1.1-1.7 1.5-1.9 1.1-3.9 2.2-5.8 3.4-1.7 1-3.5 2-5.2 3l-5.1 3c-1.9 1.1-3.9 2.3-5.8 3.4-1.5.8-2.9 1.7-4.4 2.6-.6.4-1.3.6-2 .6-1.5.1-3-.1-4.4-.9-3-1.8-6.1-3.5-9.1-5.2-.4-.2-.8-.5-1.3-.7-.4-.2-.4-.2-.2-.7.5-.9 1-1.7 1.5-2.6.2-.3.2-.6.5-.8.7.3 1.2.7 1.8 1 3 1.7 6 3.4 8.9 5.1.7.4 1.4.5 2.1.1 3-1.7 6-3.5 9-5.2l.1-.1c.1 0 .1 0 .2-.1 2.7-1.5 5.4-3.1 8-4.7.8-.3 1.2-.4 1.5-.8z" style="fill:#96bedc"/><path class="st3" d="M60.4 46.6v4.8c0 .8-.3 1.4-1.1 1.8-1.5.8-2.9 1.7-4.3 2.5-.1.1-.3.1-.4.2-.8-1.3-1.6-2.6-2.4-3.8-2.9-4.7-5.8-9.3-8.6-14-.9-1.4-1.7-2.8-2.6-4.2-.2-.3-.2-.5 0-.7 1.7-2.8 3.4-5.7 5-8.5 0 0 .1-.1.1-.2.5.7.9 1.3 1.3 2 2.2 3.3 4.3 6.7 6.5 10.1 2.1 3.2 4.1 6.4 6.2 9.6 0 0 .1.3.3.4zM52 57.3c-.3.3-.7.5-1 .7-2.7 1.6-5.3 3.1-8 4.7-.1 0-.1 0-.2.1-1.3-2.1-2.6-4.2-4-6.3-1.9-3-3.8-6-5.8-9-.2-.3-.2-.5 0-.8 1.9-3.2 3.8-6.5 5.7-9.7 0-.1.1-.2.2-.2.2 0 .2.2.3.3 3 4.7 6 9.5 9 14.2 1.2 2 2.5 4 3.8 6z"/></svg>