<svg xmlns="http://www.w3.org/2000/svg" xml:space="preserve" style="enable-background:new 0 0 100 100" viewBox="0 0 100 100"><circle cx="50" cy="50" r="50" style="fill:#020000"/><path d="m30 23.8 20-11.2 20 11.7-7.5 4.2L50 20.8l-12.5 7.5-7.5-4.5zm40 14.5-7.5-4.2L50 41.7l-12.5-7.5-7.5 4.1v8.3l12.5 7.1v14.6l7.5 4.2 7.5-4.2V54.2L70 47.1v-8.8zm0 23.4v-8.3l-7.5 4.2v8.3l7.5-4.2zm5 2.9-12.5 7.1V80l20-11.7V45.8L75 50v14.6zm-7.1-33.4 7.5 4.2v8.3l7.5-4.2v-8.3L75.4 27l-7.5 4.2zM42.5 75v8.3l7.5 4.2 7.5-4.2V75L50 79.2 42.5 75zM30 61.7l7.5 4.2v-8.3L30 53.3v8.4zm12.5-30.5 7.5 4.2 7.5-4.2-7.5-4.1-7.5 4.1zM25 35.4l7.5-4.2-7.5-4.1-7.5 4.2v8.3l7.5 4.2v-8.4zM25 50l-7.5-4.2v22.9l20 11.7v-8.3L25 65V50z" style="fill:#f0b90b"/></svg>