<svg xmlns="http://www.w3.org/2000/svg" fill="none" viewBox="0 0 64 50"><mask id="a" width="10" height="17" x="54" y="0" maskUnits="userSpaceOnUse" style="mask-type:alpha"><path fill="#000" d="M63.533.629h-9.24v16.334h9.24z"/></mask><g mask="url(#a)"><path fill="#000" fill-opacity=".5" d="M62.445.629H48.29c-.601 0-1.089.487-1.089 1.089v14.155c0 .602.488 1.09 1.089 1.09h14.155c.602 0 1.09-.488 1.09-1.09V1.718c0-.602-.488-1.09-1.09-1.09"/></g><mask id="b" width="10" height="17" x="54" y="33" maskUnits="userSpaceOnUse" style="mask-type:alpha"><path fill="#000" d="M63.533 33.293h-9.24v16.334h9.24z"/></mask><g mask="url(#b)"><path fill="#000" fill-opacity=".5" d="M62.445 33.293H48.29c-.601 0-1.089.488-1.089 1.089v14.156c0 .6.488 1.088 1.089 1.088h14.155c.602 0 1.09-.487 1.09-1.088V34.382c0-.601-.488-1.089-1.09-1.089"/></g><path fill="#000" d="M32.174 17.002H18.086a1.08 1.08 0 0 0-1.084 1.076v13.988a1.08 1.08 0 0 0 1.084 1.076h14.088a1.08 1.08 0 0 0 1.084-1.076V18.078a1.08 1.08 0 0 0-1.084-1.076M15.867.627H1.712C1.11.627.623 1.114.623 1.716v14.156c0 .6.488 1.088 1.089 1.088h14.155c.602 0 1.09-.487 1.09-1.089V1.717c0-.602-.488-1.089-1.09-1.089M48.527.627H34.372c-.601 0-1.089.487-1.089 1.089v14.156c0 .6.488 1.088 1.09 1.088h14.154c.602 0 1.09-.487 1.09-1.089V1.717c0-.602-.488-1.089-1.09-1.089M15.867 33.293H1.712c-.601 0-1.089.488-1.089 1.089v14.156c0 .6.488 1.088 1.089 1.088h14.155c.602 0 1.09-.487 1.09-1.088V34.382c0-.601-.488-1.089-1.09-1.089M48.527 33.293H34.372c-.601 0-1.089.488-1.089 1.089v14.156c0 .6.488 1.088 1.09 1.088h14.154c.602 0 1.09-.487 1.09-1.088V34.382c0-.601-.488-1.089-1.09-1.089"/></svg>