<svg xmlns="http://www.w3.org/2000/svg" fill="none" viewBox="0 0 64 50"><mask id="a" width="10" height="17" x="54" y="0" maskUnits="userSpaceOnUse" style="mask-type:alpha"><path fill="#000" d="M63.344.629h-9.241v16.334h9.24z"/></mask><g mask="url(#a)"><path fill="#fff" fill-opacity=".5" d="M62.256.629H48.1c-.602 0-1.09.487-1.09 1.089v14.155c0 .602.488 1.09 1.09 1.09h14.155c.601 0 1.089-.488 1.089-1.09V1.718c0-.602-.488-1.09-1.09-1.09"/></g><mask id="b" width="10" height="17" x="54" y="33" maskUnits="userSpaceOnUse" style="mask-type:alpha"><path fill="#000" d="M63.344 33.293h-9.241v16.334h9.24z"/></mask><g mask="url(#b)"><path fill="#fff" fill-opacity=".5" d="M62.256 33.293H48.1c-.602 0-1.09.488-1.09 1.089v14.156c0 .6.488 1.088 1.09 1.088h14.155c.601 0 1.089-.487 1.089-1.088V34.382c0-.601-.488-1.089-1.09-1.089"/></g><path fill="#fff" d="M31.984 17.002H17.896a1.08 1.08 0 0 0-1.084 1.076v13.988a1.08 1.08 0 0 0 1.084 1.076h14.088a1.08 1.08 0 0 0 1.084-1.076V18.078a1.08 1.08 0 0 0-1.084-1.076M15.678.627H1.522c-.6 0-1.088.487-1.088 1.089v14.156c0 .6.487 1.088 1.088 1.088h14.156c.601 0 1.089-.487 1.089-1.089V1.717c0-.602-.488-1.089-1.09-1.089M48.338.627H34.183c-.602 0-1.09.487-1.09 1.089v14.156c0 .6.488 1.088 1.09 1.088h14.155c.601 0 1.089-.487 1.089-1.089V1.717c0-.602-.488-1.089-1.09-1.089M15.678 33.293H1.522c-.6 0-1.088.488-1.088 1.089v14.156c0 .6.487 1.088 1.088 1.088h14.156c.601 0 1.089-.487 1.089-1.088V34.382c0-.601-.488-1.089-1.09-1.089M48.338 33.293H34.183c-.602 0-1.09.488-1.09 1.089v14.156c0 .6.488 1.088 1.09 1.088h14.155c.601 0 1.089-.487 1.089-1.088V34.382c0-.601-.488-1.089-1.09-1.089"/></svg>