<svg width="14" height="14" viewBox="0 0 14 14" fill="#EA3943" xmlns="http://www.w3.org/2000/svg">
    <path fill-rule="evenodd" clip-rule="evenodd"
        d="M3.09241 0.471957C2.52463 -0.131303 1.57532 -0.16007 0.97206 0.407704C0.3688 0.975479 0.340033 1.92479 0.907807 2.52805L4.93971 6.81195L0.907704 11.096C0.33993 11.6992 0.368697 12.6485 0.971957 13.2163C1.57522 13.7841 2.52453 13.7553 3.0923 13.1521L6.99958 9.00056L10.906 13.1512C11.4738 13.7544 12.4231 13.7832 13.0264 13.2154C13.6297 12.6477 13.6584 11.6983 13.0906 11.0951L9.05946 6.81195L13.0905 2.52892C13.6583 1.92566 13.6295 0.976351 13.0263 0.408576C12.423 -0.159198 11.4737 -0.130431 10.9059 0.472829L6.99958 4.62333L3.09241 0.471957Z" />
</svg>