<svg fill="none" height="auto" viewBox="0 0 1441 618" width="100%" xmlns="http://www.w3.org/2000/svg" xmlns:xlink="http://www.w3.org/1999/xlink"><radialGradient id="a" cx="0" cy="0" gradientTransform="matrix(0 308.516 -720 0 720.023 309.16)" gradientUnits="userSpaceOnUse" r="1"><stop offset=".384999" stop-color="#1f1e23" stop-opacity="0"/><stop offset="1" stop-color="#1f1e23"/></radialGradient><clipPath id="b"><path d="m.023438.644531h1440v617.143h-1440z"/></clipPath><g clip-path="url(#b)"><g stroke="#5a554f" stroke-linecap="round" stroke-miterlimit="2" stroke-width="2"><path d="m560.352 466.64 2.875 9.765"/><path d="m552.906 460.95 8.074 13.322"/><path d="m537.254 446.127c14.075 17.526 24.739 32.816 50.817 51.632"/><path d="m579.09 492.988c99.938 53.102 177.528 53.573 278.048 1.555"/><path d="m847.32 499.615c27.53-19.419 37.418-33.82 51.887-51.464"/><path d="m874.707 476.498 8.505-13.702"/><path d="m872.355 478.694 3.138-10.292"/><path clip-rule="evenodd" d="m1571.07 540.259c49.12-144.048 34.82-88.473 64.37-241.769 7.97-145.934 9.07-90.735-2.72-240.7049-30.64-144.4176-16.71-92.9162-62.39-223.3491-63.59-127.558-38.18-82.723-112.05-194.164-121.62-142.575-161.9-177.476-329.99-272.267-165.879-69.957-215.5-83.245-404.005-94.875-188.655 9.518-238.354 22.245-404.887 90.354-168.882 92.847-209.27 126.985-332.5571 268.557-74.9123 110.604-49.0848 66.047-113.8859 192.9-46.917 129.9202-32.488 78.543-64.513 222.6398-13.201 149.7502-11.584 94.6632-5.005 240.6612 28.108 153.638 14.338 97.917 62.073 242.476 68.7203 138.829 37.9703 87.613 131.70117 223.994 114.29383 123.433 69.64103 81.021 196.35483 183.002 149.09 87.296 92.674 59.019 246.966 120.816 170.873 40.19 107.796 29.65 275.068 43.22 167.368-11.69 104.317-1.88 275.471-40.14 154.869-60.07 98.189-32.43 248.089-118.047 127.68-100.559 82.62-58.65 198.09-180.796 95.02-135.313 63.78-84.445 133.82-222.508z" fill-rule="evenodd"/><path d="m859.117 491.013 2.934-25.995"/><path d="m862.051 465.013 1.598 19.952"/><path d="m863.652 484.967 16.508-60.474"/><path d="m880.16 424.496c-1.193 27.798-.203 17.706-4.664 43.908"/><path d="m875.496 468.404c30.762-63.961 16.556-40.58 60.677-102.349"/><path d="m936.172 366.052c-14.266 47.481-16.377 48.849-36.965 82.101"/><path d="m899.207 448.156 37.323-27.552"/><path d="m936.529 420.601c-37.74 46.151-40.865 46.75-79.392 73.941"/><path d="m857.137 494.542c36.511-3.452 21.828 2.332 64.828-28.103"/><path d="m921.964 466.439c-42.069 8.501-27.494 2.233-64.124 25.762"/><path d="m869.387 481.45c12.369-43.916 4.604-23.583 35.962-91.454"/><path d="m905.349 389.996c-6.93 41.268-8.564 42.714-22.138 72.8"/><path d="m883.211 462.796c38.301-48.436 21.446-31.893 72.307-73.024l14.671-32.959"/><path d="m970.19 356.812c-53.759 47.96-35.927 29.154-76.47 82.707l-15.232 30.891"/><path d="m845.71 500.458c-.585-15.488-1.479-1.538 5.904-73.68"/><path d="m851.617 426.774c7.682 22.481 5.356 13.678 10.437 38.241"/><path d="m862.051 465.015c20.492-78.653 11.117-49.843 42.07-125.569"/><path d="m904.121 339.446c2.66 30.209 2.469 18.6 1.228 50.548"/><path d="m905.348 389.994c44.908-67.439 26.671-43.679 80.609-102.968"/><path d="m985.96 287.028c-7.025 44.491-3.542 28.433-15.769 69.784"/><path d="m970.188 356.812c64.412-38.48 39.342-26.132 110.122-52.64"/><path d="m1080.31 304.173c-30.66 71.027-41.02 95.402-117.634 167.577-78.45 55.809-103.94 65.291-191.616 83.322-96.52 6.188-122.96 1.042-207.781-30.193-94.872-50.719-110.887-71.906-159.077-132.968-43.891-74.461-53.851-99.031-65.947-190.93.072-89.828 5.499-113.339 37.901-192.07193 44.036-77.25607 61.41-95.06437 123.659-144.81707 69.514-42.603 91.041-51.578 174.865-66.727 135.986-7.617 231.124 21.705 338.12 134.1222 48.24 65.47975 60.29 87.2924 82.69 174.4128 7.28 59.158 6.18 36.319 5.62 99.348-8.89 62.899-4.29 40.119-20.8 98.925 79.06-15.412 47.29-12.076 137.54-15.803-33.61 81.83-19.55 52.697-62.42 126.342-66.81 85.169-89.6 114.663-220.809 184.097-119.184 43.025-156.209 49.805-291.24 39.507-121.757-26.799-157.749-40.704-265.683-120.671-62.003-60.952-40.321-36-95.485-107.818-42.162-74.109-28.377-44.832-61.211-127.033-20.166-80.9-14.86-49.711-24.302-135.678 1.937-81.5168-1.09-50.6844 12.039-134.2467 23.623-80.324 13.444-51.723 45.312-124.0433 42.412-70.41 25.655-45.746 73.802-106.752 83.3-82.163 111.083-98.896 209.294-141.874 103.285-31.12 134.309-35.807 248.375-28.364 112.027 20.849 140.75 32.658 234.578 89.447 84.35 66.269 107.84 89.847 168.44 192.771 31.18 72.6659 21.28 43.965 44.14 124.543 11.76 79.7775 9.54 48.864 10.76 134.374-10.26 85.847-4.66 54.726-25.59 135.399 95.78 9.176 60.28 3.748 154.98 24.984m0 0c-41.55 108.016-23.95 69.473-78.24 167.343-71.75 95.052-43.39 61.972-124.92 143.039-97.63 72.761-60.26 48.445-163.76 104.623-159.018 58.782-208.173 67.781-387.995 53.79-116.173-26.132-72.904-12.64-189.02-57.018-102.971-57.338-65.829-32.606-162.759-106.449-80.757-81.976-52.71-48.578-123.556-144.43-53.3546-98.47-36.118-59.719-76.6405-168.208-23.7533-106.103-17.844-65.345-27.3041-177.345 5.2232-105.4358.2888-65.7384 20.0294-173.1673 33.051-102.6147 19.0367-66.1647 62.2482-158.0007 81.697-128.692 112.254-157.7 222.474-239.431 120.9-69.062 157.677-83.257 300.283-107.423 144.871-7.586 184.091-1.359 315.118 38.492 134.062 58.566 166.622 81.718 267.662 179.539 62.54 77.375 40.65 46.018 96.23 135.545 42.34 92.307 28.68 55.724 60.74 158.6881 17.86 102.6543 13.96 62.7041 18.39 173.3839-10.53 111.891-4.23 71.208-28.98 177.029zm0 0c100.75 35.162 64.06 20.508 159.68 64.976-48.48 136.32-27.65 87.533-92.72 211.837-83.37 115.771-47.73 73.962-153.34 183.287-121.88 94.133-75.16 62.639-204.85 135.389-147.026 56.059-92.146 39.108-239.575 71.515-151.141 10.381-93.264 11.249-251.638-1.408-147.079-34.047-92.379-16.483-238.878-74.19-129.008-74.202-82.597-42.193-203.554-137.673-104.581-110.507-69.3385-68.307-151.60687-184.994-63.87863-125.024-43.51683-76.011-90.70253-212.861-26.1366-132.937-20.1106-82.056-28.2086-221.453 9.843-130.3045 2.509-81.4536 30.1805-213.3432 43.6456-125.1848 25.4113-80.8448 80.8796-192.2038 71.1811-107.197 43.4057-69.814 122.1649-161.755 125.588-115.248 165.945-142.443 329.047-209.86 158.908-45.302 206.182-52.042 380.465-41.199 171.844 30.404 216.256 47.712 362.416 131.076 95.5 70.315 60.69 40.889 152.41 126.842 77.88 92.811 50.45 55.107 120.62 163.101 54.41 111.98 36.59 67.403 79.05 193.0999 25.19 126.0245 19.13 76.9054 28.15 213.6701-9.41 139.325-2.9 88.463-30.31 221.123l79.43 42.095"/><path d="m828.532 509.345c-2.135-67.093-2.791-40.614 3.769-116.531"/><path d="m832.305 392.813c12.834 19.566 8.456 11.718 19.311 33.962"/><path d="m851.617 426.775c18.93-83.392 10.27-52.361 38.79-135.471"/><path d="m890.406 291.302c10.032 28.285 6.978 17.199 13.717 48.144"/><path d="m904.121 339.446c42.129-75.032 23.677-46.803 79.178-123.176"/><path d="m983.301 216.273c4.33 42.214 3.864 25.971 2.66 70.756"/><path d="m985.961 287.029c98.629-81.111 133.649-97.23 257.479-134.058 139.52-23.331 192.6-27.231 398.65 23.907"/><path d="m827.044 510.117c-13.429-15.994-7.896-10.149-24.523-25.447-1.599-69.477-2.124-42.332 2.993-119.384"/><path d="m805.512 365.286c17.069 15.407 10.962 9.031 26.79 27.527"/><path d="m832.305 392.813c16.174-87.528 8.79-54.585 33.076-144.131"/><path d="m865.379 248.682c16.592 24.534 10.926 14.706 25.025 42.622"/><path d="m890.406 291.304c38.706-85.082 21.793-52.461 72.606-141.985"/><path d="m963.008 149.318c14.707 39.267 10.174 23.846 20.289 66.953"/><path d="m983.301 216.271 52.379-57.453"/><path d="m1035.68 158.818c8.51 75.943 8.48 115.516-31.68 206.92l-48.48 24.034-18.989 30.83"/><path d="m936.531 420.601c56.503-22.485 34.484-16.393 96.819-25.173 69.99 4.604 41.8-.163 122.08 19.282 134.1 53.536 183.23 85.105 357.28 240.588"/><path d="m1635.45 298.492c-191.32-73.276-276.03-98.45-473.65-64.839-19.59 72.323-10.81 46.281-39.06 113.259-75.28 5.178-48.21.549-118.75 18.829-37.403 61.263-41.017 62.339-82.025 100.702 174.045 22.699 312.855 231.657 423.595 393.327"/><path d="m824.707 511.324c28.126.942 17.128-2.164 48.296 15.288 110.858 108.952 184.467 317.926 247.127 484.938"/><path d="m754.43 530.854c10.28 6.45.671 6.279 51.011-4.038"/><path d="m805.442 526.816-15.184-3.297"/><path clip-rule="evenodd" d="m771.061 555.068 10.033 34.399-63.196 4.075.097-55.032 44.147-2.821z" fill-rule="evenodd"/><path d="m739.671 531.798c-.611-3.557-2.34-3.03 9.025-.576"/><path d="m778.538 525.92-3.671-16.776"/><path d="m774.863 509.142c20.617 10.81 16.358 8.332 21.726 12.133"/><path d="m807.245 517.509-4.723-32.837c-19.2-13.507-11.976-9.018-31.627-19.261-.826-68.817-1.22-41.669 2.165-119.524"/><path d="m773.059 345.883c20.17 10.317 12.751 5.798 32.455 19.401"/><path d="m805.512 365.284c11.868-86.643 5.868-51.765 25.384-151.06"/><path d="m830.895 214.226c21.958 19.283 14.097 11.296 34.482 34.457"/><path d="m865.379 248.68c32.885-93.835 18.548-57.418 61.548-158.2835"/><path d="m926.926 90.3994c23.832 33.8636 15.661 20.2596 36.082 58.9206"/><path d="m963.008 149.32 47.752-69.7454"/><path d="m1010.76 79.5724c17.96 46.4286 12.39 28.1686 24.92 79.2446"/><path d="m1035.67 158.817c109.75-97.0936 146.47-118.3647 271.5-172.44 14.61 91.009 11.63 55.6821 14.26 153.548-10.55 98.57-4.54 62.795-27.52 155.729-49.64 124.649-56.07 127.647-120.98 211.897 77.63 58.358 47.52 33.017 130.87 108.839l-75.95 77.004c-143.87 109.065-153.6 108.149-288.885 158.903-33.124-116.151-47.307-170.691-95.96-275.633l-61.911 12.805c35.084 158.19 54.433 335.365 73.993 502.531"/><path d="m576.223 1090.45c8.197-64.54 61.772-532.707 105.211-560.003"/><path d="m311.969 1007.03c65.896-170.435 120.751-320.123 221.87-453.663 35.351-34.207 22.724-24.797 55.372-42.738l22.141-.498"/><path d="m1387.02-443.271c-166.26 97.797-300.55 215.634-460.094 533.6709"/><path d="m926.927 90.3998c-76.231-83.4919-144.515-103.767-239.903-98.22651-92.563 17.31334-155.501 52.77621-210.483 154.42571-22.782 59.02-25.332 76.353-24.274 137.446 9.664 65.308 16.996 82.385 48.136 134.117 39.699 49.568 43.192 49.561 77.794 72.476"/><path d="m991.077 1061.61c-33.041-136.307-20.946-87.562-52.114-209.31-138.304 29.923-87.336 22.244-222.294 31.362-134.909-10.63-84.036-2.392-221.979-33.847 34.586-117.109 49.799-172.054 98.269-274.548-70.951-26.281-44.788-14.184-114.389-51.643 45.769-28.41 29.391-21.053 71.743-33.7l28.776 3.064"/><path d="m579.09 492.987c-37.231-26.872-22.598-19.853-64.372-28.825-51.098 6.112-31.397 1.309-86.465 22.564-149.31 91.313-227.839 205.443-340.2725 366.005"/><path d="m1220.75-579.859c-116.67 123.371-196.04 237.45-312.405 534.2782-51.755 150.0998-51.206 154.4578-77.447 259.8088"/><path d="m830.897 214.226c-62.383-41.952-112.063-48.121-181.433-25.019-74.218 35.988-101.048 81.368-116.274 148.166-4.493 45.854-4.123 69.348 19.715 123.575"/><path d="m552.904 460.948-31.318-40.714"/><path d="m521.586 420.233 15.667 25.894"/><path d="m537.254 446.127c-46.395-35.212-27.942-24.294-81.353-46.322-65.043-9.935-39.966-8.538-109.895-4.713-181.131 41.83-267.8427 115.472-423.2248 251.312"/><path d="m440.536 1058.53c34.375-135.936 21.802-87.33 54.153-208.717-125.053-48.486-79.198-26.259-200.688-94.964-104.023-80.607-67.175-46.984-161.903-145.013 121.875-108.594 153.903-126.993 251.704-166.274-45.328-58.129-29.848-34.769-68.368-101.17 75.044 6.019 48.095 1.091 118.233 20.156 27.952 46.838 16.748 30.367 49.393 71.366 85.778 81.957 141.698 97.593 234.933 104.598-.815-60.441-.932-.292.05-138.82-20.491 1.28-32.572.561-68.444 18.606"/><path d="m649.599 418.301c-3.438-81.375-1.277-49.95-9.988-137.924 32.085-15.777 41.9-18.8 79.32-21.08l1.047-173.9632c51.06 3.5915 64.458 7.7866 108.043 29.1832 36.606-154.4611 49.489-200.627 105.192-362.023-63.099-28.927-39.613-19.635-102.472-39.65 30.726-163.818 39.636-202.441 68.167-311.832-148.071-26.468-191.867-28.484-350.398-1.956-18.914-66.033-11.789-42.284-30.991-103.833"/><path d="m556.935 467.593c-18.025-37.832-7.675-21.027-47.457-75.037-53.039-48.555-31.986-32.332-92.78-69.686-98.02-38.048-132.058-45.465-271.738-33.643-115.1876 24.511-138.1009 27.773-319.163 121.205"/><path d="m1031.26-672.92c-141.167 282.931-230.281 693.4473-258.204 1018.805-110.374-39.094-192.016 34.805-201.24 137.451"/><path d="m571.817 483.336c-18.046-69.678-18.888-59.033-8.925-103.96"/><path d="m562.895 379.375c17.935 77.49 13.714 51.648 19.685 114.422"/><path d="m566.01 479.052c-11.548-43.174-4.096-22.91-34.538-91.146-44.008-67.955-26.097-43.986-79.204-103.861-97.521-82.225-132.284-98.715-255.568-136.929-138.7469-24.821-192.01346-29.412-398.743 19.448"/><path d="m-166.125-66.8245c164.39183 2.8092 187.2825 10.363 300.77 46.6455 124.426 55.4969 160.694 77.0462 269.317 175.464 94.544 106.252 112.191 138.819 154.189 245.476 18.549 75.166 14.62 54.225 17.975 87.905"/><path d="m694.566 531.433c1.24-6.52 37.824-2.77 44.654-2.257l-2.253-30.941c23.12 4.97 14.437 2.388 37.899 10.908l-3.973-43.734c-61.098-22.042-115.797-11.713-162.729 43.028"/><path d="m589.391 498.461.565-11.053"/><path d="m589.955 487.408-3.26 9.36"/><path d="m620.387-721.624c52.174 346.447 94.42 1026.84 74.658 1250.552l-9.09 1.857"/><path d="m596.793 502.394 1.548-31.934"/><path d="m598.341 470.46-8.388 16.946"/><path d="m589.953 487.408c-9.315-104.485-16.555-138.884-73.947-269.272-73.829-133.825-101.758-168.5184-198.802-272.227-168.206-152.036-242.7206-179.493-392.7861-221.701"/><path d="m606.331 507.461c9.789-217.1-78.982-405.367-177.147-579.2394-143.118-220.9026-221.861-289.5136-370.2818-378.9246"/><path d="m416.816-676.355c193.386 396.794 276.238 1042.926 239.097 1201.282"/><path d="m640.973 520.985 1-3.401"/><path d="m641.974 517.583-3.56 2.464"/><path d="m627.438 516.025c27.605-174.608-40.755-402.71-94.183-563.706-113.349-299.072-191.607-413.495-306.79-537.736"/><path d="m-2.78551 754.711c81.23381-90.468 50.26651-57.366 134.88151-144.874-78.6844-108.908-52.6899-67.882-111.4612-179.472-42.0339-116.984-29.5849-71.743-55.8849-196.797 135.5141-26.524 177.1101-29.52 312.6931-4.865-8.556-70.524-7.308-43.57-6.438-117.393"/><path d="m271.004 111.307c80.757 47.541 51.584 27.663 127.872 85.707.694 77.363 6.135 98.534 34.79 165.532 57.687 29.5 37.713 15.985 87.92 57.686"/><path d="m521.585 420.234c-20.527-46.918-24.47-61.723-25.784-116.186 5.287-50.635 9.056-64.81 33.852-111.743"/><path d="m529.652 192.303c53.334 137.394 60.054 172.634 68.687 278.157"/><path d="m598.344 470.46c18.923-28.53 25.896-34.87 51.258-52.163"/><path d="m649.599 418.299c-2.046 65.843-.171 43.36-7.626 99.284"/><path d="m641.973 517.583c31.99-16.332 49.017-22.782 94.992-19.348-6.757-251.362 31.798-847.097 91.175-1218.701"/><path d="m-196.557 288.243c96.536-35.751 59.501-23.346 161.31-54.673-8.5297-119.703-8.7012-74.324-.9542-197.9643 22.4722-114.0587 10.8508-71.589 49.1025-185.5367 122.9877 40.957 159.3097 58.5243 281.9487 148.34534 28.152-66.11524 16.628-42.72584 50.98-101.35234"/><path d="m345.828-102.943c65.234 83.6207 41.548 50.6115 103.789 143.2557-23.979 43.2148-16.003 26.0208-35.317 74.5233 91.721 118.825 108.35 153.53 148.592 264.538"/><path d="m562.895 379.374c19.72-55.023 39.576-74.25 76.718-99.002-14.147-96.813-7.597-58.271-27.951-167.071"/><path d="m611.662 113.306c-40.083 25.92-51.428 35.581-82.006 79.001"/><path d="m529.655 192.304c-46.095-95.9885-27.918-61.073-80.038-151.989 30.518-41.50691 18.628-27.0692 52.274-62.4345 95.724-78.0185 176.602-98.6825 298.208-74.918 64.745 21.3283 82.744 30.2252 139.354 77.3656 46.865 50.2823 46.411 53.2893 71.307 99.2451"/><path d="m1010.76 79.5742c92.98-114.4245 123.4-145.3549 244.27-234.6282 114.08-68.624 138.44-77.759 264.8-111.816"/><path d="m-13.1563-367.958c114.7073 49.394 136.7503 61.429 240.3893 143.727-46.94 75.857-31.046 45.505-70.246 131.5272-26.83 87.08569-19.005 52.9193-35.237 148.2187-3.568 97.8351-4.361 62.0121 4.805 156.0671 23.107 97.508 12.463 62.306 47.588 153.066 50.136 90.164 29.82 58.356 89.775 137.822 74.802 74.634 45.844 49.094 127.208 110.155 54.438-61.702 34.454-41.674 87.442-88.999-60.511-44.37-38.912-25.82-94.768-80.061 63.148-12.99 40.533-11.13 99.259-9.648 48.073 15.133 31.477 6.589 73.166 35.838"/><path d="m139.199-523.368c53.93 43.704 32.971 25.549 91.166 78.438 124.943-91.213 163.739-111.502 318.144-156.017 27.422 109.558 35.985 148.478 64.948 312.572 67.998-12.083 43.033-8.993 108.702-12.596l-2.182 386.305c-51.098 3.0202-64.538 7.0683-108.318 27.972-34.779-154.8232-47.137-201.1512-101.057-363.177-56.86 34.206-36.043 19.618-91.107 62.767 94.193 177.0121 140.567 284.3277 186.719 493.021 6.684 45.023 22.8 131.972 9.579 205.846"/><path d="m930.837-702.467c-18.822 58.435-11.463 34.496-31.931 103.475 153.914 46.233 192.474 66.892 316.634 159.572-88.89 94.266-114.09 130.04-191.82 255.693 46.77 48.095 30.19 28.437 72.85 84.9854-91.77 114.9146-117.855 152.8645-187.311 293.1696"/><path d="m909.261 194.428c-30.19-43.794-41.378-53.52-81.241-79.914"/><path d="m828.021 114.516c-21.661 108.558-14.647 70.101-29.975 166.746-31.926-16.131-41.714-19.267-79.114-21.967l-.889 140.399c32.391 2.387 40.893 5.23 68.254 19.37.239 13.423-.024 76.743 7.36 103.254"/><path d="m1307.42-516.829c-54.31 43.095-33.16 25.144-91.87 77.412 79.21 75.36 50.79 44.348 124.48 133.736 59.9 94.213 39.48 56.419 90.17 163.678-123.48 39.607-159.95 56.7701-283.61 145.18213 18.02 66.70847 13 40.66607 22.77 113.15787-113.02 64.759-144.6 88.681-227.333 190.21"/><path d="m942.032 306.547c-4.795-50.696-8.433-64.908-32.766-112.116"/><path d="m909.26 194.428c-36.07 89.639-24.31 56.032-52.221 146.726"/><path d="m857.042 341.154c-21.744-32.696-29.878-40.033-58.995-59.893"/><path d="m798.046 281.262c-9.817 87.867-7.252 56.476-11.749 137.802 25.204 17.579 32.098 23.992 50.753 52.733l1.147 32.55"/><path d="m193.574 937.714c86.029-161.291 107.226-202.604 197.558-325.091 136.563 75.02 178.873 85.637 326.325 96.984 147.28-9.68 190.125-19.926 327.223-93.329 89.44 123.711 110.32 165.53 194.49 327.284"/><path d="m1570.33-165.567c-87.36 11.72-55.2 6.451-140.13 23.56 35.45 109.0577 24.91 66.1673 47.34 186.0762 6.59 123.7568 6.84 78.3128-2.82 197.9438-27.49 124.75-14.6 79.622-57.76 196.16-59.82 110.908-33.42 70.174-113.16 178.218 83.76 88.444 53.13 55.003 133.45 146.374"/><path d="m1571.07 540.26c-173.34-120.738-258.29-175.499-448.33-193.35-47.05 79.256-62.97 106.333-164.859 179.395 52.669 47.905 32.85 27.672 86.799 89.974 81.95-60.144 52.75-34.925 128.25-108.725-122.08-71.845-147.3-72.005-219.009-71.004-48.451 14.594-31.681 6.234-73.905 35.015"/><path d="m1632.73 57.7859c-196.93-23.6459-274.74-22.1169-463.37 58.5511.17 73.789 1.67 46.856-7.56 117.314-124.22 39.525-151.42 59.057-225.628 132.404"/><path d="m936.172 366.052c5.821-35.556 4.592-21.877 5.856-59.509"/><path d="m942.03 306.547c-42.833 69.714-28.901 42.569-61.87 117.95"/><path d="m880.155 424.497c-3.137-37.671-5.689-48.177-23.116-83.34"/><path d="m857.042 341.155c-16.854 81.556-12.5 51.709-19.991 130.642 9.864 20.451 7.359 14.478 11.546 26.922"/><path d="m852.543 495.933c12.286-113.308 32.062-153.194 80.168-247.88 78.929-122.449 108.629-153.5358 213.879-244.87637-27.52-66.43133-16.22-42.91913-50.01-101.91793 134.9-145.6227 196.56-191.9617 361.7-260.9877"/><path d="m-191.555 47.5807c196.94226-21.4107 275.0869-19.0094 462.559 63.7303 10.453-72.3816 5.193-46.3992 23.843-112.8972"/><path d="m294.852-1.58834c75.271 66.86554 47.977 39.94414 119.452 116.42634-12.412 48.557-9.02 29.624-15.424 82.177 97.345 94.908 114.892 125.334 157.232 225.665.919 27.816.026 17.701 4.24 43.958"/><path d="m560.351 466.638c-29.892-64.304-15.993-40.753-59.262-103.021-73.037-74.049-99.931-93.955-223.644-134.915"/><path d="m277.445 228.704c18.895 72.549 10.369 46.405 37.99 113.689-190.401 15.771-276.8544 70.547-449.919 188.325"/><path clip-rule="evenodd" d="m886.138 491.8c-49.227 25.522-30.774 17.317-80.693 35.014 22.222 22.108 13.659 11.097 37.562 49.85 71.185-25.484 44.92-13.688 114.877-50.363-45.684-28.919-29.283-21.374-71.746-34.501z" fill-rule="evenodd"/><path d="m319.402-636.518c71.582 104.179 106.796 160.181 191.201 386.643 63.376-28.22 39.815-19.191 102.855-38.502 29.914 188.9121 91.738 628.397 60.568 817.221"/><path d="m715.604 1101.75 2.291-508.208c-75.785-5.738-47.135-1.282-124.938-18.278 24.085-38.488 15.494-27.565 37.703-49.428l15.021-3.128"/><path d="m724.288-726.869-2.128 425.899c65.639 4.342 40.716.979 108.581 13.812-32.075 189.0428-98.8 626.975-70.434 816.813"/><path d="m1128.3-631.997c-96.23 137.195-129.339 213.796-195.085 384.487 56.562 34.854 35.891 20.042 90.505 63.783-74.916 137.0616-95.014 179.7768-150.205 332.744-28.949 96.717-73.142 251.229-54.51 364.327"/></g><path d="m.023438.644531h1440v617.031h-1440z" fill="url(#a)"/></g></svg>