<svg width="100%" height="auto" viewBox="0 0 1441 618" fill="none" xmlns="http://www.w3.org/2000/svg">
<g clip-path="url(#clip0_2750_853026)">
<rect width="1440" height="617.143" transform="translate(0.0234375 0.644531)" fill="#1F1E1B"/>
<path d="M560.352 466.64L563.227 476.405" stroke="#5A554F" stroke-width="2" stroke-miterlimit="2" stroke-linecap="round"/>
<path d="M552.906 460.95L560.98 474.272" stroke="#5A554F" stroke-width="2" stroke-miterlimit="2" stroke-linecap="round"/>
<path d="M537.254 446.127C551.329 463.653 561.993 478.943 588.071 497.759" stroke="#5A554F" stroke-width="2" stroke-miterlimit="2" stroke-linecap="round"/>
<path d="M579.09 492.988C679.028 546.09 756.618 546.561 857.138 494.543" stroke="#5A554F" stroke-width="2" stroke-miterlimit="2" stroke-linecap="round"/>
<path d="M847.32 499.615C874.85 480.196 884.738 465.795 899.207 448.151" stroke="#5A554F" stroke-width="2" stroke-miterlimit="2" stroke-linecap="round"/>
<path d="M874.707 476.498L883.212 462.796" stroke="#5A554F" stroke-width="2" stroke-miterlimit="2" stroke-linecap="round"/>
<path d="M872.355 478.694L875.493 468.402" stroke="#5A554F" stroke-width="2" stroke-miterlimit="2" stroke-linecap="round"/>
<path fill-rule="evenodd" clip-rule="evenodd" d="M1571.07 540.259C1620.19 396.211 1605.89 451.786 1635.44 298.49C1643.41 152.556 1644.51 207.755 1632.72 57.7851C1602.08 -86.6325 1616.01 -35.1311 1570.33 -165.564C1506.74 -293.122 1532.15 -248.287 1458.28 -359.728C1336.66 -502.303 1296.38 -537.204 1128.29 -631.995C962.411 -701.952 912.79 -715.24 724.285 -726.87C535.63 -717.352 485.931 -704.625 319.398 -636.516C150.516 -543.669 110.128 -509.531 -13.1591 -367.959C-88.0714 -257.355 -62.2439 -301.912 -127.045 -175.059C-173.962 -45.1388 -159.533 -96.516 -191.558 47.5808C-204.759 197.331 -203.142 142.244 -196.563 288.242C-168.455 441.88 -182.225 386.159 -134.49 530.718C-65.7697 669.547 -96.5197 618.331 -2.78883 754.712C111.505 878.145 66.8522 835.733 193.566 937.714C342.656 1025.01 286.24 996.733 440.532 1058.53C611.405 1098.72 548.328 1088.18 715.6 1101.75C882.968 1090.06 819.917 1099.87 991.071 1061.61C1145.94 1001.54 1089.26 1029.18 1239.16 943.563C1366.84 843.004 1321.78 884.913 1437.25 762.767C1532.27 627.454 1501.03 678.322 1571.07 540.259L1571.07 540.259Z" stroke="#5A554F" stroke-width="2" stroke-miterlimit="2" stroke-linecap="round"/>
<path d="M859.117 491.013L862.051 465.018" stroke="#5A554F" stroke-width="2" stroke-miterlimit="2" stroke-linecap="round"/>
<path d="M862.051 465.013L863.649 484.965" stroke="#5A554F" stroke-width="2" stroke-miterlimit="2" stroke-linecap="round"/>
<path d="M863.652 484.967L880.16 424.493" stroke="#5A554F" stroke-width="2" stroke-miterlimit="2" stroke-linecap="round"/>
<path d="M880.16 424.496C878.967 452.294 879.957 442.202 875.496 468.404" stroke="#5A554F" stroke-width="2" stroke-miterlimit="2" stroke-linecap="round"/>
<path d="M875.496 468.404C906.258 404.443 892.052 427.824 936.173 366.055" stroke="#5A554F" stroke-width="2" stroke-miterlimit="2" stroke-linecap="round"/>
<path d="M936.172 366.052C921.906 413.533 919.795 414.901 899.207 448.153" stroke="#5A554F" stroke-width="2" stroke-miterlimit="2" stroke-linecap="round"/>
<path d="M899.207 448.156L936.53 420.604" stroke="#5A554F" stroke-width="2" stroke-miterlimit="2" stroke-linecap="round"/>
<path d="M936.529 420.601C898.789 466.752 895.664 467.351 857.137 494.542" stroke="#5A554F" stroke-width="2" stroke-miterlimit="2" stroke-linecap="round"/>
<path d="M857.137 494.542C893.648 491.09 878.965 496.874 921.965 466.439" stroke="#5A554F" stroke-width="2" stroke-miterlimit="2" stroke-linecap="round"/>
<path d="M921.964 466.439C879.895 474.94 894.47 468.672 857.84 492.201" stroke="#5A554F" stroke-width="2" stroke-miterlimit="2" stroke-linecap="round"/>
<path d="M869.387 481.45C881.756 437.534 873.991 457.867 905.349 389.996" stroke="#5A554F" stroke-width="2" stroke-miterlimit="2" stroke-linecap="round"/>
<path d="M905.349 389.996C898.419 431.264 896.785 432.71 883.211 462.796" stroke="#5A554F" stroke-width="2" stroke-miterlimit="2" stroke-linecap="round"/>
<path d="M883.211 462.796C921.512 414.36 904.657 430.903 955.518 389.772L970.189 356.813" stroke="#5A554F" stroke-width="2" stroke-miterlimit="2" stroke-linecap="round"/>
<path d="M970.19 356.812C916.431 404.772 934.263 385.966 893.72 439.519L878.488 470.41" stroke="#5A554F" stroke-width="2" stroke-miterlimit="2" stroke-linecap="round"/>
<path d="M845.71 500.458C845.125 484.97 844.231 498.92 851.614 426.778" stroke="#5A554F" stroke-width="2" stroke-miterlimit="2" stroke-linecap="round"/>
<path d="M851.617 426.774C859.299 449.255 856.973 440.452 862.054 465.015" stroke="#5A554F" stroke-width="2" stroke-miterlimit="2" stroke-linecap="round"/>
<path d="M862.051 465.015C882.543 386.362 873.168 415.172 904.121 339.446" stroke="#5A554F" stroke-width="2" stroke-miterlimit="2" stroke-linecap="round"/>
<path d="M904.121 339.446C906.781 369.655 906.59 358.046 905.349 389.994" stroke="#5A554F" stroke-width="2" stroke-miterlimit="2" stroke-linecap="round"/>
<path d="M905.348 389.994C950.256 322.555 932.019 346.315 985.957 287.026" stroke="#5A554F" stroke-width="2" stroke-miterlimit="2" stroke-linecap="round"/>
<path d="M985.96 287.028C978.935 331.519 982.418 315.461 970.191 356.812" stroke="#5A554F" stroke-width="2" stroke-miterlimit="2" stroke-linecap="round"/>
<path d="M970.188 356.812C1034.6 318.332 1009.53 330.68 1080.31 304.172" stroke="#5A554F" stroke-width="2" stroke-miterlimit="2" stroke-linecap="round"/>
<path d="M1080.31 304.173C1049.65 375.2 1039.29 399.575 962.676 471.75C884.226 527.559 858.736 537.041 771.06 555.072C674.54 561.26 648.1 556.114 563.279 524.879C468.407 474.16 452.392 452.973 404.202 391.911C360.311 317.45 350.351 292.88 338.255 200.981C338.327 111.153 343.754 87.642 376.156 8.90907C420.192 -68.347 437.566 -86.1553 499.815 -135.908C569.329 -178.511 590.856 -187.486 674.68 -202.635C810.666 -210.252 905.804 -180.93 1012.8 -68.5128C1061.04 -3.03305 1073.09 18.7796 1095.49 105.9C1102.77 165.058 1101.67 142.219 1101.11 205.248C1092.22 268.147 1096.82 245.367 1080.31 304.173C1159.37 288.761 1127.6 292.097 1217.85 288.37C1184.24 370.2 1198.3 341.067 1155.43 414.712C1088.62 499.881 1065.83 529.375 934.621 598.809C815.437 641.834 778.412 648.614 643.381 638.316C521.624 611.517 485.632 597.612 377.698 517.645C315.695 456.693 337.377 481.645 282.213 409.827C240.051 335.718 253.836 364.995 221.002 282.794C200.836 201.894 206.142 233.083 196.7 147.116C198.637 65.5992 195.61 96.4316 208.739 12.8693C232.362 -67.4547 222.183 -38.8537 254.051 -111.174C296.463 -181.584 279.706 -156.92 327.853 -217.926C411.153 -300.089 438.936 -316.822 537.147 -359.8C640.432 -390.92 671.456 -395.607 785.522 -388.164C897.549 -367.315 926.272 -355.506 1020.1 -298.717C1104.45 -232.448 1127.94 -208.87 1188.54 -105.946C1219.72 -33.2801 1209.82 -61.981 1232.68 18.597C1244.44 98.3745 1242.22 67.461 1243.44 152.971C1233.18 238.818 1238.78 207.697 1217.85 288.37C1313.63 297.546 1278.13 292.118 1372.83 313.354M1372.83 313.354C1331.28 421.37 1348.88 382.827 1294.59 480.697C1222.84 575.749 1251.2 542.669 1169.67 623.736C1072.04 696.497 1109.41 672.181 1005.91 728.359C846.892 787.141 797.737 796.14 617.915 782.149C501.742 756.017 545.011 769.509 428.895 725.131C325.924 667.793 363.066 692.525 266.136 618.682C185.379 536.706 213.426 570.104 142.58 474.252C89.2254 375.782 106.462 414.533 65.9395 306.044C42.1862 199.941 48.0955 240.699 38.6354 128.699C43.8586 23.2632 38.9242 62.9606 58.6648 -44.4683C91.7158 -147.083 77.7015 -110.633 120.913 -202.469C202.61 -331.161 233.167 -360.169 343.387 -441.9C464.287 -510.962 501.064 -525.157 643.67 -549.323C788.541 -556.909 827.761 -550.682 958.788 -510.831C1092.85 -452.265 1125.41 -429.113 1226.45 -331.292C1288.99 -253.917 1267.1 -285.274 1322.68 -195.747C1365.02 -103.44 1351.36 -140.023 1383.42 -37.0589C1401.28 65.5954 1397.38 25.6452 1401.81 136.325C1391.28 248.216 1397.58 207.533 1372.83 313.354ZM1372.83 313.354C1473.58 348.516 1436.89 333.862 1532.51 378.33C1484.03 514.65 1504.86 465.863 1439.79 590.167C1356.42 705.938 1392.06 664.129 1286.45 773.454C1164.57 867.587 1211.29 836.093 1081.6 908.843C934.574 964.902 989.454 947.951 842.025 980.358C690.884 990.739 748.761 991.607 590.387 978.95C443.308 944.903 498.008 962.467 351.509 904.76C222.501 830.558 268.912 862.567 147.955 767.087C43.374 656.58 78.6165 698.78 -3.65187 582.093C-67.5305 457.069 -47.1687 506.082 -94.3544 369.232C-120.491 236.295 -114.465 287.176 -122.563 147.779C-112.72 17.4745 -120.054 66.3254 -92.3825 -65.5642C-48.7369 -190.749 -66.9712 -146.409 -11.5029 -257.768C59.6782 -364.965 31.9028 -327.582 110.662 -419.523C236.25 -534.771 276.607 -561.966 439.709 -629.383C598.617 -674.685 645.891 -681.425 820.174 -670.582C992.018 -640.178 1036.43 -622.87 1182.59 -539.506C1278.09 -469.191 1243.28 -498.617 1335 -412.664C1412.88 -319.853 1385.45 -357.557 1455.62 -249.563C1510.03 -137.583 1492.21 -182.16 1534.67 -56.4631C1559.86 69.5614 1553.8 20.4423 1562.82 157.207C1553.41 296.532 1559.92 245.67 1532.51 378.33L1611.94 420.425" stroke="#5A554F" stroke-width="2" stroke-miterlimit="2" stroke-linecap="round"/>
<path d="M828.532 509.345C826.397 442.252 825.741 468.731 832.301 392.814" stroke="#5A554F" stroke-width="2" stroke-miterlimit="2" stroke-linecap="round"/>
<path d="M832.305 392.813C845.139 412.379 840.761 404.531 851.616 426.775" stroke="#5A554F" stroke-width="2" stroke-miterlimit="2" stroke-linecap="round"/>
<path d="M851.617 426.775C870.547 343.383 861.887 374.414 890.407 291.304" stroke="#5A554F" stroke-width="2" stroke-miterlimit="2" stroke-linecap="round"/>
<path d="M890.406 291.302C900.438 319.587 897.384 308.501 904.123 339.446" stroke="#5A554F" stroke-width="2" stroke-miterlimit="2" stroke-linecap="round"/>
<path d="M904.121 339.446C946.25 264.414 927.798 292.643 983.299 216.27" stroke="#5A554F" stroke-width="2" stroke-miterlimit="2" stroke-linecap="round"/>
<path d="M983.301 216.273C987.631 258.487 987.165 242.244 985.961 287.029" stroke="#5A554F" stroke-width="2" stroke-miterlimit="2" stroke-linecap="round"/>
<path d="M985.961 287.029C1084.59 205.918 1119.61 189.799 1243.44 152.971C1382.96 129.64 1436.04 125.74 1642.09 176.878" stroke="#5A554F" stroke-width="2" stroke-miterlimit="2" stroke-linecap="round"/>
<path d="M827.044 510.117C813.615 494.123 819.148 499.968 802.521 484.67C800.922 415.193 800.397 442.338 805.514 365.286" stroke="#5A554F" stroke-width="2" stroke-miterlimit="2" stroke-linecap="round"/>
<path d="M805.512 365.286C822.581 380.693 816.474 374.317 832.302 392.813" stroke="#5A554F" stroke-width="2" stroke-miterlimit="2" stroke-linecap="round"/>
<path d="M832.305 392.813C848.479 305.285 841.095 338.228 865.381 248.682" stroke="#5A554F" stroke-width="2" stroke-miterlimit="2" stroke-linecap="round"/>
<path d="M865.379 248.682C881.971 273.216 876.305 263.388 890.404 291.304" stroke="#5A554F" stroke-width="2" stroke-miterlimit="2" stroke-linecap="round"/>
<path d="M890.406 291.304C929.112 206.222 912.199 238.843 963.012 149.319" stroke="#5A554F" stroke-width="2" stroke-miterlimit="2" stroke-linecap="round"/>
<path d="M963.008 149.318C977.715 188.585 973.182 173.164 983.297 216.271" stroke="#5A554F" stroke-width="2" stroke-miterlimit="2" stroke-linecap="round"/>
<path d="M983.301 216.271L1035.68 158.818" stroke="#5A554F" stroke-width="2" stroke-miterlimit="2" stroke-linecap="round"/>
<path d="M1035.68 158.818C1044.19 234.761 1044.16 274.334 1004 365.738L955.52 389.772L936.531 420.602" stroke="#5A554F" stroke-width="2" stroke-miterlimit="2" stroke-linecap="round"/>
<path d="M936.531 420.601C993.034 398.116 971.015 404.208 1033.35 395.428C1103.34 400.032 1075.15 395.265 1155.43 414.71C1289.53 468.246 1338.66 499.815 1512.71 655.298" stroke="#5A554F" stroke-width="2" stroke-miterlimit="2" stroke-linecap="round"/>
<path d="M1635.45 298.492C1444.13 225.216 1359.42 200.042 1161.8 233.653C1142.21 305.976 1150.99 279.934 1122.74 346.912C1047.46 352.09 1074.53 347.461 1003.99 365.741C966.587 427.004 962.973 428.08 921.965 466.443C1096.01 489.142 1234.82 698.1 1345.56 859.77" stroke="#5A554F" stroke-width="2" stroke-miterlimit="2" stroke-linecap="round"/>
<path d="M824.707 511.324C852.833 512.266 841.835 509.16 873.003 526.612C983.861 635.564 1057.47 844.538 1120.13 1011.55" stroke="#5A554F" stroke-width="2" stroke-miterlimit="2" stroke-linecap="round"/>
<path d="M754.43 530.854C764.71 537.304 755.101 537.133 805.441 526.816" stroke="#5A554F" stroke-width="2" stroke-miterlimit="2" stroke-linecap="round"/>
<path d="M805.442 526.816L790.258 523.519" stroke="#5A554F" stroke-width="2" stroke-miterlimit="2" stroke-linecap="round"/>
<path fill-rule="evenodd" clip-rule="evenodd" d="M771.061 555.068L781.094 589.467L717.898 593.542L717.995 538.51L762.142 535.689L771.061 555.068Z" stroke="#5A554F" stroke-width="2" stroke-miterlimit="2" stroke-linecap="round"/>
<path d="M739.671 531.798C739.06 528.241 737.331 528.768 748.696 531.222" stroke="#5A554F" stroke-width="2" stroke-miterlimit="2" stroke-linecap="round"/>
<path d="M778.538 525.92L774.867 509.144" stroke="#5A554F" stroke-width="2" stroke-miterlimit="2" stroke-linecap="round"/>
<path d="M774.863 509.142C795.48 519.952 791.221 517.474 796.589 521.275" stroke="#5A554F" stroke-width="2" stroke-miterlimit="2" stroke-linecap="round"/>
<path d="M807.245 517.509L802.522 484.672C783.322 471.165 790.546 475.654 770.895 465.411C770.069 396.594 769.675 423.742 773.06 345.887" stroke="#5A554F" stroke-width="2" stroke-miterlimit="2" stroke-linecap="round"/>
<path d="M773.059 345.883C793.229 356.2 785.81 351.681 805.514 365.284" stroke="#5A554F" stroke-width="2" stroke-miterlimit="2" stroke-linecap="round"/>
<path d="M805.512 365.284C817.38 278.641 811.38 313.519 830.896 214.224" stroke="#5A554F" stroke-width="2" stroke-miterlimit="2" stroke-linecap="round"/>
<path d="M830.895 214.226C852.853 233.509 844.992 225.522 865.377 248.683" stroke="#5A554F" stroke-width="2" stroke-miterlimit="2" stroke-linecap="round"/>
<path d="M865.379 248.68C898.264 154.845 883.927 191.262 926.927 90.3965" stroke="#5A554F" stroke-width="2" stroke-miterlimit="2" stroke-linecap="round"/>
<path d="M926.926 90.3994C950.758 124.263 942.587 110.659 963.008 149.32" stroke="#5A554F" stroke-width="2" stroke-miterlimit="2" stroke-linecap="round"/>
<path d="M963.008 149.32L1010.76 79.5746" stroke="#5A554F" stroke-width="2" stroke-miterlimit="2" stroke-linecap="round"/>
<path d="M1010.76 79.5724C1028.72 126.001 1023.15 107.741 1035.68 158.817" stroke="#5A554F" stroke-width="2" stroke-miterlimit="2" stroke-linecap="round"/>
<path d="M1035.67 158.817C1145.42 61.7234 1182.14 40.4523 1307.17 -13.623C1321.78 77.386 1318.8 42.0591 1321.43 139.925C1310.88 238.495 1316.89 202.72 1293.91 295.654C1244.27 420.303 1237.84 423.301 1172.93 507.551C1250.56 565.909 1220.45 540.568 1303.8 616.39L1227.85 693.394C1083.98 802.459 1074.25 801.543 938.965 852.297C905.841 736.146 891.658 681.606 843.005 576.664L781.094 589.469C816.178 747.659 835.527 924.834 855.087 1092" stroke="#5A554F" stroke-width="2" stroke-miterlimit="2" stroke-linecap="round"/>
<path d="M576.223 1090.45C584.42 1025.91 637.995 557.743 681.434 530.447" stroke="#5A554F" stroke-width="2" stroke-miterlimit="2" stroke-linecap="round"/>
<path d="M311.969 1007.03C377.865 836.595 432.72 686.907 533.839 553.367C569.19 519.16 556.563 528.57 589.211 510.629L611.352 510.131" stroke="#5A554F" stroke-width="2" stroke-miterlimit="2" stroke-linecap="round"/>
<path d="M1387.02 -443.271C1220.76 -345.474 1086.47 -227.637 926.926 90.3999" stroke="#5A554F" stroke-width="2" stroke-miterlimit="2" stroke-linecap="round"/>
<path d="M926.927 90.3998C850.696 6.9079 782.412 -13.3672 687.024 -7.82671C594.461 9.48663 531.523 44.9495 476.541 146.599C453.759 205.619 451.209 222.952 452.267 284.045C461.931 349.353 469.263 366.43 500.403 418.162C540.102 467.73 543.595 467.723 578.197 490.638" stroke="#5A554F" stroke-width="2" stroke-miterlimit="2" stroke-linecap="round"/>
<path d="M991.077 1061.61C958.036 925.303 970.131 974.048 938.963 852.3C800.659 882.223 851.627 874.544 716.669 883.662C581.76 873.032 632.633 881.27 494.69 849.815C529.276 732.706 544.489 677.761 592.959 575.267C522.008 548.986 548.171 561.083 478.57 523.624C524.339 495.214 507.961 502.571 550.313 489.924L579.089 492.988" stroke="#5A554F" stroke-width="2" stroke-miterlimit="2" stroke-linecap="round"/>
<path d="M579.09 492.987C541.859 466.115 556.492 473.134 514.718 464.162C463.62 470.274 483.321 465.471 428.253 486.726C278.943 578.039 200.414 692.169 87.9805 852.731" stroke="#5A554F" stroke-width="2" stroke-miterlimit="2" stroke-linecap="round"/>
<path d="M1220.75 -579.859C1104.08 -456.488 1024.71 -342.409 908.345 -45.5808C856.59 104.519 857.139 108.877 830.898 214.228" stroke="#5A554F" stroke-width="2" stroke-miterlimit="2" stroke-linecap="round"/>
<path d="M830.897 214.226C768.514 172.274 718.834 166.105 649.464 189.207C575.246 225.195 548.416 270.575 533.19 337.373C528.697 383.227 529.067 406.721 552.905 460.948" stroke="#5A554F" stroke-width="2" stroke-miterlimit="2" stroke-linecap="round"/>
<path d="M552.904 460.948L521.586 420.234" stroke="#5A554F" stroke-width="2" stroke-miterlimit="2" stroke-linecap="round"/>
<path d="M521.586 420.233L537.253 446.127" stroke="#5A554F" stroke-width="2" stroke-miterlimit="2" stroke-linecap="round"/>
<path d="M537.254 446.127C490.859 410.915 509.312 421.833 455.901 399.805C390.858 389.87 415.935 391.267 346.006 395.092C164.875 436.922 78.1633 510.564 -77.2188 646.404" stroke="#5A554F" stroke-width="2" stroke-miterlimit="2" stroke-linecap="round"/>
<path d="M440.536 1058.53C474.911 922.594 462.338 971.2 494.689 849.813C369.636 801.327 415.491 823.554 294.001 754.849C189.978 674.242 226.826 707.865 132.098 609.836C253.973 501.242 286.001 482.843 383.802 443.562C338.474 385.433 353.954 408.793 315.434 342.392C390.478 348.411 363.529 343.483 433.667 362.548C461.619 409.386 450.415 392.915 483.06 433.914C568.838 515.871 624.758 531.507 717.993 538.512C717.178 478.071 717.061 538.22 718.043 399.692C697.552 400.972 685.471 400.253 649.599 418.298" stroke="#5A554F" stroke-width="2" stroke-miterlimit="2" stroke-linecap="round"/>
<path d="M649.599 418.301C646.161 336.926 648.322 368.351 639.611 280.377C671.696 264.6 681.511 261.577 718.931 259.297L719.978 85.3338C771.038 88.9253 784.436 93.1204 828.021 114.517C864.627 -39.9441 877.51 -86.11 933.213 -247.506C870.114 -276.433 893.6 -267.141 830.741 -287.156C861.467 -450.974 870.377 -489.597 898.908 -598.988C750.837 -625.456 707.041 -627.472 548.51 -600.944C529.596 -666.977 536.721 -643.228 517.519 -704.777" stroke="#5A554F" stroke-width="2" stroke-miterlimit="2" stroke-linecap="round"/>
<path d="M556.935 467.593C538.91 429.761 549.26 446.566 509.478 392.556C456.439 344.001 477.492 360.224 416.698 322.87C318.678 284.822 284.64 277.405 144.96 289.227C29.7724 313.738 6.8591 317 -174.203 410.432" stroke="#5A554F" stroke-width="2" stroke-miterlimit="2" stroke-linecap="round"/>
<path d="M1031.26 -672.92C890.093 -389.989 800.979 20.5273 773.056 345.885C662.682 306.791 581.04 380.69 571.816 483.336" stroke="#5A554F" stroke-width="2" stroke-miterlimit="2" stroke-linecap="round"/>
<path d="M571.817 483.336C553.771 413.658 552.929 424.303 562.892 379.376" stroke="#5A554F" stroke-width="2" stroke-miterlimit="2" stroke-linecap="round"/>
<path d="M562.895 379.375C580.83 456.865 576.609 431.023 582.58 493.797" stroke="#5A554F" stroke-width="2" stroke-miterlimit="2" stroke-linecap="round"/>
<path d="M566.01 479.052C554.462 435.878 561.914 456.142 531.472 387.906C487.464 319.951 505.375 343.92 452.268 284.045C354.747 201.82 319.984 185.33 196.7 147.116C57.9531 122.295 4.68654 117.704 -202.043 166.564" stroke="#5A554F" stroke-width="2" stroke-miterlimit="2" stroke-linecap="round"/>
<path d="M-166.125 -66.8245C-1.73317 -64.0153 21.1575 -56.4615 134.645 -20.179C259.071 35.3179 295.339 56.8672 403.962 155.285C498.506 261.537 516.153 294.104 558.151 400.761C576.7 475.927 572.771 454.986 576.126 488.666" stroke="#5A554F" stroke-width="2" stroke-miterlimit="2" stroke-linecap="round"/>
<path d="M694.566 531.433C695.806 524.913 732.39 528.663 739.22 529.176L736.967 498.235C760.087 503.205 751.404 500.623 774.866 509.143L770.893 465.409C709.795 443.367 655.096 453.696 608.164 508.437" stroke="#5A554F" stroke-width="2" stroke-miterlimit="2" stroke-linecap="round"/>
<path d="M589.391 498.461L589.956 487.408" stroke="#5A554F" stroke-width="2" stroke-miterlimit="2" stroke-linecap="round"/>
<path d="M589.955 487.408L586.695 496.768" stroke="#5A554F" stroke-width="2" stroke-miterlimit="2" stroke-linecap="round"/>
<path d="M620.387 -721.624C672.561 -375.177 714.807 305.216 695.045 528.928L685.955 530.785" stroke="#5A554F" stroke-width="2" stroke-miterlimit="2" stroke-linecap="round"/>
<path d="M596.793 502.394L598.341 470.46" stroke="#5A554F" stroke-width="2" stroke-miterlimit="2" stroke-linecap="round"/>
<path d="M598.341 470.46L589.953 487.406" stroke="#5A554F" stroke-width="2" stroke-miterlimit="2" stroke-linecap="round"/>
<path d="M589.953 487.408C580.638 382.923 573.398 348.524 516.006 218.136C442.177 84.311 414.248 49.6176 317.204 -54.091C148.998 -206.127 74.4834 -233.584 -75.5821 -275.792" stroke="#5A554F" stroke-width="2" stroke-miterlimit="2" stroke-linecap="round"/>
<path d="M606.331 507.461C616.12 290.361 527.349 102.094 429.184 -71.7784C286.066 -292.681 207.323 -361.292 58.9022 -450.703" stroke="#5A554F" stroke-width="2" stroke-miterlimit="2" stroke-linecap="round"/>
<path d="M416.816 -676.355C610.202 -279.561 693.054 366.571 655.913 524.927" stroke="#5A554F" stroke-width="2" stroke-miterlimit="2" stroke-linecap="round"/>
<path d="M640.973 520.985L641.973 517.584" stroke="#5A554F" stroke-width="2" stroke-miterlimit="2" stroke-linecap="round"/>
<path d="M641.974 517.583L638.414 520.047" stroke="#5A554F" stroke-width="2" stroke-miterlimit="2" stroke-linecap="round"/>
<path d="M627.438 516.025C655.043 341.417 586.683 113.315 533.255 -47.681C419.906 -346.753 341.648 -461.176 226.465 -585.417" stroke="#5A554F" stroke-width="2" stroke-miterlimit="2" stroke-linecap="round"/>
<path d="M-2.78551 754.711C78.4483 664.243 47.481 697.345 132.096 609.837C53.4116 500.929 79.4061 541.955 20.6348 430.365C-21.3991 313.381 -8.9501 358.622 -35.2501 233.568C100.264 207.044 141.86 204.048 277.443 228.703C268.887 158.179 270.135 185.133 271.005 111.31" stroke="#5A554F" stroke-width="2" stroke-miterlimit="2" stroke-linecap="round"/>
<path d="M271.004 111.307C351.761 158.848 322.588 138.97 398.876 197.014C399.57 274.377 405.011 295.548 433.666 362.546C491.353 392.046 471.379 378.531 521.586 420.232" stroke="#5A554F" stroke-width="2" stroke-miterlimit="2" stroke-linecap="round"/>
<path d="M521.585 420.234C501.058 373.316 497.115 358.511 495.801 304.048C501.088 253.413 504.857 239.238 529.653 192.305" stroke="#5A554F" stroke-width="2" stroke-miterlimit="2" stroke-linecap="round"/>
<path d="M529.652 192.303C582.986 329.697 589.706 364.937 598.339 470.46" stroke="#5A554F" stroke-width="2" stroke-miterlimit="2" stroke-linecap="round"/>
<path d="M598.344 470.46C617.267 441.93 624.24 435.59 649.602 418.297" stroke="#5A554F" stroke-width="2" stroke-miterlimit="2" stroke-linecap="round"/>
<path d="M649.599 418.299C647.553 484.142 649.428 461.659 641.973 517.583" stroke="#5A554F" stroke-width="2" stroke-miterlimit="2" stroke-linecap="round"/>
<path d="M641.973 517.583C673.963 501.251 690.99 494.801 736.965 498.235C730.208 246.873 768.763 -348.862 828.14 -720.466" stroke="#5A554F" stroke-width="2" stroke-miterlimit="2" stroke-linecap="round"/>
<path d="M-196.557 288.243C-100.021 252.492 -137.056 264.897 -35.247 233.57C-43.7767 113.867 -43.9482 159.246 -36.2012 35.6057C-13.729 -78.453 -25.3504 -35.9833 12.9013 -149.931C135.889 -108.974 172.211 -91.4067 294.85 -1.58566C323.002 -67.7009 311.478 -44.3115 345.83 -102.938" stroke="#5A554F" stroke-width="2" stroke-miterlimit="2" stroke-linecap="round"/>
<path d="M345.828 -102.943C411.062 -19.3223 387.376 -52.3315 449.617 40.3127C425.638 83.5275 433.614 66.3335 414.3 114.836C506.021 233.661 522.65 268.366 562.892 379.374" stroke="#5A554F" stroke-width="2" stroke-miterlimit="2" stroke-linecap="round"/>
<path d="M562.895 379.374C582.615 324.351 602.471 305.124 639.613 280.372C625.466 183.559 632.016 222.101 611.662 113.301" stroke="#5A554F" stroke-width="2" stroke-miterlimit="2" stroke-linecap="round"/>
<path d="M611.662 113.306C571.579 139.226 560.234 148.887 529.656 192.307" stroke="#5A554F" stroke-width="2" stroke-miterlimit="2" stroke-linecap="round"/>
<path d="M529.655 192.304C483.56 96.3155 501.737 131.231 449.617 40.315C480.135 -1.19191 468.245 13.2458 501.891 -22.1195C597.615 -100.138 678.493 -120.802 800.099 -97.0375C864.844 -75.7092 882.843 -66.8123 939.453 -19.6719C986.318 30.6104 985.864 33.6174 1010.76 79.5732" stroke="#5A554F" stroke-width="2" stroke-miterlimit="2" stroke-linecap="round"/>
<path d="M1010.76 79.5742C1103.74 -34.8503 1134.16 -65.7807 1255.03 -155.054C1369.11 -223.678 1393.47 -232.813 1519.83 -266.87" stroke="#5A554F" stroke-width="2" stroke-miterlimit="2" stroke-linecap="round"/>
<path d="M-13.1563 -367.958C101.551 -318.564 123.594 -306.529 227.233 -224.231C180.293 -148.374 196.187 -178.726 156.987 -92.7038C130.157 -5.61811 137.982 -39.7845 121.75 55.5149C118.182 153.35 117.389 117.527 126.555 211.582C149.662 309.09 139.018 273.888 174.143 364.648C224.279 454.812 203.963 423.004 263.918 502.47C338.72 577.104 309.762 551.564 391.126 612.625C445.564 550.923 425.58 570.951 478.568 523.626C418.057 479.256 439.656 497.806 383.8 443.565C446.948 430.575 424.333 432.435 483.059 433.917C531.132 449.05 514.536 440.506 556.225 469.755" stroke="#5A554F" stroke-width="2" stroke-miterlimit="2" stroke-linecap="round"/>
<path d="M139.199 -523.368C193.129 -479.664 172.17 -497.819 230.365 -444.93C355.308 -536.143 394.104 -556.432 548.509 -600.947C575.931 -491.389 584.494 -452.469 613.457 -288.375C681.455 -300.458 656.49 -297.368 722.159 -300.971L719.977 85.334C668.879 88.3542 655.439 92.4023 611.659 113.306C576.88 -41.5172 564.522 -87.8452 510.602 -249.871C453.742 -215.665 474.559 -230.253 419.495 -187.104C513.688 -10.0919 560.062 97.2237 606.214 305.917C612.898 350.94 629.014 437.889 615.793 511.763" stroke="#5A554F" stroke-width="2" stroke-miterlimit="2" stroke-linecap="round"/>
<path d="M930.837 -702.467C912.015 -644.032 919.374 -667.971 898.906 -598.992C1052.82 -552.759 1091.38 -532.1 1215.54 -439.42C1126.65 -345.154 1101.45 -309.38 1023.72 -183.727C1070.49 -135.632 1053.91 -155.29 1096.57 -98.7416C1004.8 16.173 978.715 54.1229 909.259 194.428" stroke="#5A554F" stroke-width="2" stroke-miterlimit="2" stroke-linecap="round"/>
<path d="M909.261 194.428C879.071 150.634 867.883 140.908 828.02 114.514" stroke="#5A554F" stroke-width="2" stroke-miterlimit="2" stroke-linecap="round"/>
<path d="M828.021 114.516C806.36 223.074 813.374 184.617 798.046 281.262C766.12 265.131 756.332 261.995 718.932 259.295L718.043 399.694C750.434 402.081 758.936 404.924 786.297 419.064C786.536 432.487 786.273 495.807 793.657 522.318" stroke="#5A554F" stroke-width="2" stroke-miterlimit="2" stroke-linecap="round"/>
<path d="M1307.42 -516.829C1253.11 -473.734 1274.26 -491.685 1215.55 -439.417C1294.76 -364.057 1266.34 -395.069 1340.03 -305.681C1399.93 -211.468 1379.51 -249.262 1430.2 -142.003C1306.72 -102.396 1270.25 -85.2329 1146.59 3.17913C1164.61 69.8876 1159.59 43.8452 1169.36 116.337C1056.34 181.096 1024.76 205.018 942.027 306.547" stroke="#5A554F" stroke-width="2" stroke-miterlimit="2" stroke-linecap="round"/>
<path d="M942.032 306.547C937.237 255.851 933.599 241.639 909.266 194.431" stroke="#5A554F" stroke-width="2" stroke-miterlimit="2" stroke-linecap="round"/>
<path d="M909.26 194.428C873.19 284.067 884.95 250.46 857.039 341.154" stroke="#5A554F" stroke-width="2" stroke-miterlimit="2" stroke-linecap="round"/>
<path d="M857.042 341.154C835.298 308.458 827.164 301.121 798.047 281.261" stroke="#5A554F" stroke-width="2" stroke-miterlimit="2" stroke-linecap="round"/>
<path d="M798.046 281.262C788.229 369.129 790.794 337.738 786.297 419.064C811.501 436.643 818.395 443.056 837.05 471.797L838.197 504.347" stroke="#5A554F" stroke-width="2" stroke-miterlimit="2" stroke-linecap="round"/>
<path d="M193.574 937.714C279.603 776.423 300.8 735.11 391.132 612.623C527.695 687.643 570.005 698.26 717.457 709.607C864.737 699.927 907.582 689.681 1044.68 616.278C1134.12 739.989 1155 781.808 1239.17 943.562" stroke="#5A554F" stroke-width="2" stroke-miterlimit="2" stroke-linecap="round"/>
<path d="M1570.33 -165.567C1482.97 -153.847 1515.13 -159.116 1430.2 -142.007C1465.65 -32.9493 1455.11 -75.8397 1477.54 44.0692C1484.13 167.826 1484.38 122.382 1474.72 242.013C1447.23 366.763 1460.12 321.635 1416.96 438.173C1357.14 549.081 1383.54 508.347 1303.8 616.391C1387.56 704.835 1356.93 671.394 1437.25 762.765" stroke="#5A554F" stroke-width="2" stroke-miterlimit="2" stroke-linecap="round"/>
<path d="M1571.07 540.26C1397.73 419.522 1312.78 364.761 1122.74 346.91C1075.69 426.166 1059.77 453.243 957.881 526.305C1010.55 574.21 990.731 553.977 1044.68 616.279C1126.63 556.135 1097.43 581.354 1172.93 507.554C1050.85 435.709 1025.63 435.549 953.921 436.55C905.47 451.144 922.24 442.784 880.016 471.565" stroke="#5A554F" stroke-width="2" stroke-miterlimit="2" stroke-linecap="round"/>
<path d="M1632.73 57.7859C1435.8 34.14 1357.99 35.669 1169.36 116.337C1169.53 190.126 1171.03 163.193 1161.8 233.651C1037.58 273.176 1010.38 292.708 936.172 366.055" stroke="#5A554F" stroke-width="2" stroke-miterlimit="2" stroke-linecap="round"/>
<path d="M936.172 366.052C941.993 330.496 940.764 344.175 942.028 306.543" stroke="#5A554F" stroke-width="2" stroke-miterlimit="2" stroke-linecap="round"/>
<path d="M942.03 306.547C899.197 376.261 913.129 349.116 880.16 424.497" stroke="#5A554F" stroke-width="2" stroke-miterlimit="2" stroke-linecap="round"/>
<path d="M880.155 424.497C877.018 386.826 874.466 376.32 857.039 341.157" stroke="#5A554F" stroke-width="2" stroke-miterlimit="2" stroke-linecap="round"/>
<path d="M857.042 341.155C840.188 422.711 844.542 392.864 837.051 471.797C846.915 492.248 844.41 486.275 848.597 498.719" stroke="#5A554F" stroke-width="2" stroke-miterlimit="2" stroke-linecap="round"/>
<path d="M852.543 495.933C864.829 382.625 884.605 342.739 932.711 248.053C1011.64 125.604 1041.34 94.5172 1146.59 3.17663C1119.07 -63.2547 1130.37 -39.7425 1096.58 -98.7413C1231.48 -244.364 1293.14 -290.703 1458.28 -359.729" stroke="#5A554F" stroke-width="2" stroke-miterlimit="2" stroke-linecap="round"/>
<path d="M-191.555 47.5807C5.38726 26.17 83.5319 28.5713 271.004 111.311C281.457 38.9294 276.197 64.9118 294.847 -1.5862" stroke="#5A554F" stroke-width="2" stroke-miterlimit="2" stroke-linecap="round"/>
<path d="M294.852 -1.58834C370.123 65.2772 342.829 38.3558 414.304 114.838C401.892 163.395 405.284 144.462 398.88 197.015C496.225 291.923 513.772 322.349 556.112 422.68C557.031 450.496 556.138 440.381 560.352 466.638" stroke="#5A554F" stroke-width="2" stroke-miterlimit="2" stroke-linecap="round"/>
<path d="M560.351 466.638C530.459 402.334 544.358 425.885 501.089 363.617C428.052 289.568 401.158 269.662 277.445 228.702" stroke="#5A554F" stroke-width="2" stroke-miterlimit="2" stroke-linecap="round"/>
<path d="M277.445 228.704C296.34 301.253 287.814 275.109 315.435 342.393C125.034 358.164 38.5806 412.94 -134.484 530.718" stroke="#5A554F" stroke-width="2" stroke-miterlimit="2" stroke-linecap="round"/>
<path fill-rule="evenodd" clip-rule="evenodd" d="M886.138 491.8C836.911 517.322 855.364 509.117 805.445 526.814C827.667 548.922 819.104 537.911 843.007 576.664C914.192 551.18 887.927 562.976 957.884 526.301C912.2 497.382 928.601 504.927 886.138 491.8Z" stroke="#5A554F" stroke-width="2" stroke-miterlimit="2" stroke-linecap="round"/>
<path d="M319.402 -636.518C390.984 -532.339 426.198 -476.337 510.603 -249.875C573.979 -278.095 550.418 -269.066 613.458 -288.377C643.372 -99.4649 705.196 340.02 674.026 528.844" stroke="#5A554F" stroke-width="2" stroke-miterlimit="2" stroke-linecap="round"/>
<path d="M715.604 1101.75L717.895 593.542C642.11 587.804 670.76 592.26 592.957 575.264C617.042 536.776 608.451 547.699 630.66 525.836L645.681 522.708" stroke="#5A554F" stroke-width="2" stroke-miterlimit="2" stroke-linecap="round"/>
<path d="M724.288 -726.869L722.16 -300.97C787.799 -296.628 762.876 -299.991 830.741 -287.158C798.666 -98.1152 731.941 339.817 760.307 529.655" stroke="#5A554F" stroke-width="2" stroke-miterlimit="2" stroke-linecap="round"/>
<path d="M1128.3 -631.997C1032.07 -494.802 998.961 -418.201 933.215 -247.51C989.777 -212.656 969.106 -227.468 1023.72 -183.727C948.804 -46.6654 928.706 -3.9502 873.515 149.017C844.566 245.734 800.373 400.246 819.005 513.344" stroke="#5A554F" stroke-width="2" stroke-miterlimit="2" stroke-linecap="round"/>
<rect x="0.0234375" y="0.644531" width="1440" height="617.031" fill="url(#paint0_radial_2750_853026)"/>
</g>
<defs>
<radialGradient id="paint0_radial_2750_853026" cx="0" cy="0" r="1" gradientUnits="userSpaceOnUse" gradientTransform="translate(720.023 309.16) rotate(90) scale(308.516 720)">
<stop offset="0.384999" stop-color="#1F1E1B" stop-opacity="0"/>
<stop offset="1" stop-color="#1F1E1B"/>
</radialGradient>
<clipPath id="clip0_2750_853026">
<rect width="1440" height="617.143" fill="white" transform="translate(0.0234375 0.644531)"/>
</clipPath>
</defs>
</svg>
