<svg xmlns="http://www.w3.org/2000/svg" viewBox="0 0 256 67" style="enable-background:new 0 0 256 67" xml:space="preserve"><style>.st0{opacity:.8}.st1,.st2{fill:none;stroke:#fff;stroke-width:.1;stroke-miterlimit:10}.st2{opacity:.1;enable-background:new}</style><g id="Layer_1"><g id="line" class="st0"><path class="st1" d="m48.7 29.8-4 .1v2.9l4-.2v-2.8zM4.5 41.9l.4 2.1-1.3-3.7-.4-2.1 1.3 3.7zM48.7 26.9l-4-.1v3l4-.1v-2.8z"/><path class="st1" d="m44.7 26.8-3.2.2v3.2l3.3-.3-.1-3.1zM53.1 27.4l-4.4-.4v2.8l4.4.2v-2.6zM57.6 28l-4.5-.7v2.6l4.5.5V28zM48.8 24.1l-4-.3v3.1l4 .1v-2.9zM3.2 38.2l.4 2.1-.9-3.8-.4-2.1.9 3.8z"/><path class="st1" d="m53.3 24.7-4.5-.6-.1 2.9 4.4.4.2-2.7zM44.8 23.7h-3.4l.1 3.3 3.3-.2v-3.1zM57.8 25.6l-4.5-.9-.1 2.7 4.5.7.1-2.5z"/><path class="st1" d="m41.4 23.7-2.5.3.1 3.5 2.4-.5c.1 0 0-3.3 0-3.3zM49 21.2l-4.2-.6v3.1l4 .3.2-2.8z"/><path class="st1" d="m53.5 22.1-4.6-.9-.1 2.9 4.5.6.2-2.6zM44.8 20.6l-3.5-.2.1 3.3h3.4v-3.1zM62 26.7l-4.2-1.1-.2 2.4 4.2.9.2-2.2zM4.9 44l.7 2-1.3-3.6-.7-2c0-.1 1.3 3.6 1.3 3.6z"/><path class="st1" d="m58.1 23.2-4.6-1.1-.2 2.6 4.5.9.3-2.4zM2.4 34.3l.4 2.1-.4-3.9-.4-2 .4 3.8zM58.6 9.7l-7-2.2-.3-.1L58 9.6l.6.1zM49.1 18.4l-4.4-.8v3l4.2.6.2-2.8zM41.3 20.4l-2.6.1.3 3.5 2.5-.3c-.1 0-.2-3.3-.2-3.3zM44.6 5.6l-6.4-1.4.5.4L44.6 6v-.4z"/><path class="st1" d="m51.3 7.4-6.7-1.8V6l6.3 1.7.4-.3zM53.9 19.5l-4.7-1.1-.2 2.8 4.6.9c-.1 0 .3-2.6.3-2.6zM44.8 17.7l-3.7-.4.2 3.2 3.5.2v-3zM62.4 24.5l-4.3-1.3-.3 2.4 4.2 1.1.4-2.2z"/><path class="st1" d="m58 9.6-6.7-2.2-.3.3 6.4 2.1c-.1 0 .6-.2.6-.2zM58.6 20.8l-4.7-1.3-.4 2.5 4.6 1.1.5-2.3zM49.4 15.8l-4.6-1v2.8l4.4.8c-.1 0 .2-2.6.2-2.6zM65.2 12.2l-6.6-2.5-.6-.1 6.3 2.4.9.2zM50.9 7.7 44.6 6v.9l5.9 1.6.4-.8z"/><path class="st1" d="m54.3 17.1-4.9-1.3-.2 2.6 4.7 1.1.4-2.4zM44.6 6l-5.9-1.3.5 1 5.5 1.2-.1-.9zM41.1 17.2l-2.9-.1.4 3.4 2.6-.1c.1 0-.1-3.2-.1-3.2z"/><path class="st1" d="m44.8 14.9-4-.6.3 3 3.7.4v-2.8zM3.6 40.3l.7 2-.8-3.8-.7-2.1.8 3.9zM57.3 9.8l-6.4-2.1-.3.8 6.1 2 .6-.7zM49.6 13.5l-4.9-1.2v2.5l4.6 1 .3-2.3zM59.2 18.7l-4.9-1.5-.4 2.4 4.7 1.3.6-2.2zM50.6 8.6 44.7 7v1.4l5.6 1.5.3-1.3z"/><path class="st1" d="m54.8 15-5.2-1.5-.3 2.3 4.9 1.3.6-2.1zM63 22.4l-4.4-1.5-.5 2.3 4.3 1.3.6-2.1zM64.3 12 58 9.6l-.7.3 6 2.3 1-.2zM44.7 6.9l-5.5-1.2.5 1.5 5.1 1.1-.1-1.4zM38.7 4.7l-5.2-.8.9 1 4.8.8-.5-1zM49.9 11.5l-5.2-1.4v2.2l4.9 1.2.3-2zM2 30.5l.4 2.1.1-3.8-.4-2.2-.1 3.9z"/><path class="st1" d="m50.3 9.8-5.6-1.5v1.8l5.2 1.4.4-1.7zM56.7 10.5l-6.1-2-.3 1.3 5.7 1.8c0 .1.7-1.1.7-1.1zM44.7 12.3l-4.3-.8.3 2.7 4 .6v-2.5z"/><path class="st1" d="m55.4 13.2-5.5-1.7-.3 2 5.2 1.5.6-1.8zM66 25.9l-3.6-1.4-.4 2.2 3.5 1.2c.1 0 .5-2 .5-2zM32.5 3.4 27.6 3l1.4.5 4.4.3-.9-.4z"/><path class="st1" d="m56 11.7-5.7-1.8-.3 1.7 5.4 1.7.6-1.6zM44.7 8.3l-5.1-1.1.4 2 4.7 1V8.3z"/><path class="st1" d="m44.7 10.1-4.7-1 .4 2.4 4.3.8v-2.2zM59.9 16.8 54.8 15l-.5 2.1 4.9 1.5c0 .1.7-1.8.7-1.8zM40.8 14.2l-3.2-.2.6 3.2 2.9.1-.3-3.1zM63.4 12.2l-6-2.3-.7.7 5.8 2.2.9-.6zM26.3 3.1l-4.3.2 1.8-.1 3.9-.2-1.4.1zM63.7 20.4l-4.5-1.7-.6 2.2 4.4 1.5.7-2zM70.9 14.8l-5.7-2.6-.9-.2 5.5 2.6 1.1.2zM39.2 5.7l-4.8-.8.9 1.6 4.3.7-.4-1.5zM60.7 15.1l-5.3-1.9-.6 1.8 5.1 1.8.8-1.7zM3.5 20.7 2.7 23l1.1-3.4.7-2.2c0-.1-1 3.3-1 3.3z"/><path class="st1" d="m38.2 17.1-1.9.3.7 3.5 1.7-.4c-.1 0-.5-3.4-.5-3.4zM62.4 12.8l-5.8-2.2-.6 1.1 5.5 2.1.9-1z"/><path class="st1" d="M61.6 13.8 56 11.7l-.6 1.5 5.3 1.9.9-1.3zM40.4 11.5l-3.5-.4.7 2.9 3.2.3-.4-2.8zM66.6 24 63 22.4l-.6 2.1 3.6 1.4.6-1.9zM76.3 44.6l2.1-.8 1.2-.5-2.1.9-1.2.4zM39.6 7.2l-4.3-.7.9 2.1 3.8.5-.4-1.9z"/><path class="st1" d="m40 9.1-3.9-.6.8 2.5 3.5.4c0 .1-.4-2.3-.4-2.3zM33.4 3.8l-4.3-.3 1.4 1.1 3.9.3-1-1.1zM64.5 18.7l-4.6-1.9-.7 1.9 4.5 1.7.8-1.7zM69.8 14.6 64.3 12l-.9.2 5.3 2.5 1.1-.1zM5.6 46l.7 1.8L5 44.2l-.8-1.9L5.6 46zM2.8 36.5l.7 2.1-.4-3.8-.7-2.1.4 3.8zM77.4 44.1l2.1-.9 1.1-.7-2.2 1-1 .6zM65.5 17.2l-4.8-2.1-.8 1.7 4.6 1.9 1-1.5zM37.6 14l-2.2.1.9 3.3 1.9-.3-.6-3.1zM67.4 22.3l-3.7-1.9-.7 2 3.6 1.6.8-1.7zM76.5 18.1l-4.6-2.7-1-.6 4.5 2.7 1.1.6zM66.5 16l-5-2.3-.9 1.3 4.8 2.1 1.1-1.1z"/><path class="st1" d="m67.6 15.2-5.1-2.4-.9 1 5 2.3 1-.9zM27.7 3l-3.8.2 1.9.5 3.4-.2-1.5-.5zM84 37.7l.5-1.5.4-1.6-.5 1.7-.4 1.4zM78.5 43.5l2.2-1 1-.9-2.2 1.1c0-.1-1 .8-1 .8zM34.4 4.9l-3.9-.3 1.4 1.7 3.4.2-.9-1.6zM2.1 26.6l.4 2.2.6-3.7-.4-2.1-.6 3.6zM36.9 11.1h-2.6l1 3 2.2-.1-.6-2.9z"/><path class="st1" d="m35.3 6.5-3.4-.2 1.3 2.2 3 .1-.9-2.1zM68.3 20.7l-3.8-2-.8 1.7 3.7 1.9.9-1.6zM75.3 17.5l-4.5-2.7-1.1-.2 4.4 2.7c.1-.1 1.2.2 1.2.2zM69.2 25.7 66.6 24l-.6 1.9 2.5 1.5.7-1.7z"/><path class="st1" d="m36.2 8.6-3-.1 1.2 2.6H37c-.1 0-.8-2.5-.8-2.5zM79.5 42.6l2.2-1.1.9-1.1-2.2 1.2-.9 1zM84.3 36.2l.5-1.7.2-1.7-.5 1.8-.2 1.6zM22 3.3l-3.2.7 2.2-.1 2.8-.7-1.8.1zM69.4 19.4l-3.9-2.2-.9 1.5 3.8 2 1-1.3zM74.2 17.2l-4.4-2.7-1.1.1 4.2 2.6h1.3zM4.3 42.3l.7 1.9-.8-3.7-.8-2 .9 3.8zM4.5 17.3l-.7 2.2 1.5-3.1.7-2.2-1.5 3.1zM29.1 3.5l-3.4.2 1.9 1.1 2.9-.2-1.4-1.1z"/><path class="st1" d="m70.5 18.4-4-2.4-1 1.2 3.9 2.2 1.1-1zM70 24.2l-2.6-1.9-.8 1.7 2.5 1.7.9-1.5zM80.4 41.6l2.2-1.2.7-1.3-2.3 1.3-.6 1.2zM71.7 17.7l-4.1-2.5-1.1.8 4 2.4 1.2-.7zM80.6 21.6 77.5 19l-1-.9 3.1 2.7 1 .8zM2.4 32.6l.7 2.1.1-3.7-.7-2.2-.1 3.8zM35.4 14.1l-1.2.5 1.2 3.4.9-.6-.9-3.3zM9.8 9.7l-2 2L10 9.6l1.8-1.9-2 2zM72.6 45.5l3.7-.9 1.2-.4-3.7 1-1.2.3zM84.5 34.6l.5-1.8v-1.7l-.5 1.9v1.6zM30.5 4.6l-2.9.2 1.8 1.7 2.4-.2-1.3-1.7zM71 22.8l-2.6-2.1-.9 1.5 2.6 1.9.9-1.3zM79.5 20.8l-3.1-2.7-1.1-.6 3 2.7 1.2.6z"/><path class="st1" d="m81.1 40.4 2.3-1.3.6-1.4-2.3 1.5c0-.1-.6 1.2-.6 1.2zM73.7 45.1l3.7-1 1.1-.7-3.8 1c.1.1-1 .7-1 .7zM34.4 11.1l-1.6.4 1.4 3.1 1.2-.5-1-3zM16.6 4.8l-2.5 1.3 2.5-.9L18.8 4l-2.2.8zM31.9 6.3l-2.4.2 1.7 2.2 2-.3-1.3-2.1zM23.8 3.2l-2.8.7 2.3.5 2.3-.7-1.8-.5zM33.2 8.4l-2 .3 1.6 2.7 1.6-.4c0 .1-1.2-2.6-1.2-2.6zM72.1 21.7l-2.7-2.2-1 1.3 2.6 2.1c0-.1 1.1-1.2 1.1-1.2zM2.7 23l.4 2.2 1.1-3.4-.4-2.2L2.7 23zM84.5 33.1l.5-1.9-.2-1.7-.5 2 .2 1.6z"/><path class="st1" d="m74.8 44.5 3.8-1 1-.8-3.8 1.1-1 .7zM6.3 47.8l.7 1.5-1.2-3.5-.8-1.6 1.3 3.6zM73.3 20.8l-2.7-2.4-1.1 1 2.7 2.2 1.1-.8zM77.1 19.9l-2.9-2.6-1.2.1 2.9 2.6 1.2-.1zM3.4 38.6l.8 2-.4-3.7-.8-2.1.4 3.8zM81.7 39.1l2.3-1.5.4-1.5-2.4 1.7-.3 1.3zM71.2 26 70 24.2l-.8 1.6 1.2 1.7.8-1.5z"/><path class="st1" d="m74.5 20.2-2.8-2.5-1.2.7 2.7 2.4 1.3-.6z"/><path class="st1" d="m75.8 19.9-2.9-2.6-1.2.4 2.8 2.5 1.3-.3zM82.9 25.2l-1.4-2.5-.9-1.1 1.3 2.5 1 1.1zM6 14.2l-.7 2.2 1.9-2.7.6-2.2c.1.1-1.8 2.7-1.8 2.7zM75.7 43.8l3.8-1.1.9-1-3.8 1.2-.9.9zM84.3 31.5l.5-2-.4-1.6-.5 2.1.4 1.5zM25.7 3.7l-2.3.7 2.3 1.1 1.9-.7-1.9-1.1zM72.2 24.8l-1.2-2-1 1.4 1.2 1.9 1-1.3zM2.5 28.8l.7 2.2.6-3.6-.7-2.2-.6 3.6zM82 37.8l2.3-1.6.2-1.6-2.3 1.7-.2 1.5zM11.8 7.6 10 9.5 12.6 8l1.5-1.8-2.3 1.4zM81.9 24.2l-1.3-2.5-1.1-.9 1.3 2.6c0-.1 1.1.8 1.1.8zM18.8 4l-2.2 1.3 2.6-.2L21 3.9l-2.2.1zM67.7 46.5l5-1 1.1-.4-5 1-1.1.4zM76.6 42.8l3.8-1.2.7-1.2-3.9 1.3z"/><path class="st1" d="m73.3 23.8-1.2-2.2-1.1 1.2 1.2 2 1.1-1zM83.8 30.1l.5-2.1-.6-1.4-.5 2.2.6 1.3zM80.8 23.3l-1.3-2.6-1.2-.6 1.3 2.6 1.2.6zM27.6 4.8l-1.9.7L28 7.2l1.5-.7-1.9-1.7zM32.8 11.5l-.7.8 1.7 3.2.4-.9-1.4-3.1z"/><path class="st1" d="m74.5 23.1-1.2-2.3-1.2.9 1.2 2.2c0-.1 1.2-.8 1.2-.8zM68.7 46.2l5-1 1.1-.6-5.1 1.1-1 .5zM82.2 36.3l2.3-1.7V33l-2.3 1.8v1.5zM29.5 6.5l-1.5.7 2.2 2.3 1.1-.7-1.8-2.3z"/><path class="st1" d="m31.2 8.7-1.1.7 2 2.8.7-.8-1.6-2.7zM75.8 22.6l-1.2-2.4-1.3.6 1.2 2.3 1.3-.5zM3.8 19.5l.4 2.2 1.5-3.1-.4-2.2-1.5 3.1zM77.2 41.7l3.9-1.3.5-1.3-3.9 1.4-.5 1.2zM78.4 22.4l-1.3-2.5h-1.3l1.3 2.5h1.3z"/><path class="st1" d="m77.1 22.3-1.3-2.5-1.3.3 1.2 2.4c.1.1 1.4-.2 1.4-.2zM3.1 34.7l.8 2.1.1-3.7-.8-2.1-.1 3.7zM83.2 28.7l.5-2.2-.8-1.3-.5 2.3.8 1.2zM69.7 45.6l5.1-1.1.9-.7-5.1 1.1zM21 3.9l-1.8 1.2 2.8.4 1.4-1.2-2.4-.4zM82.2 34.9l2.3-1.8-.2-1.5-2.3 1.9.2 1.4zM7.9 11.6l-.6 2.2 2.3-2.2.5-2.1-2.2 2.1z"/><path class="st1" d="m82.4 27.5.5-2.3-1-1.1-.5 2.3c0 .1 1 1.1 1 1.1zM77.8 40.5l3.9-1.4.4-1.4-3.9 1.5-.4 1.3zM14.1 6.2 12.6 8l2.8-1 1.2-1.7-2.5.9zM7 49.3l.5 1.2-1.2-3.3-.6-1.4L7 49.3zM70.6 44.9l5.1-1.2.8-.9-5.1 1.2-.8.9zM72.9 25.9l.4-2-1.1 1-.4 1.9 1.1-.9zM3.1 25.1l.7 2.2 1-3.3-.7-2.3-1 3.4zM61.8 47.6l5.9-1.1 1.1-.3-6 1.1-1 .3z"/><path class="st1" d="m81.4 26.5.5-2.3-1.1-.8-.5 2.4 1.1.7zM81.9 33.4l2.3-1.9-.4-1.5-2.3 2 .4 1.4zM4.2 40.5l.8 1.8-.4-3.6-.8-1.9.4 3.7zM74.1 25.2l.4-2.1-1.2.8-.4 2 1.2-.7zM23.4 4.4 22 5.5l2.7 1.1 1-1.1-2.3-1.1zM78.1 39.2l3.9-1.5.2-1.4-3.9 1.6-.2 1.3z"/><path class="st1" d="m80.4 25.7.5-2.4-1.2-.6-.5 2.4 1.2.6zM71.4 44l5.2-1.2.7-1.1-5.2 1.3-.7 1zM75.3 24.8l.4-2.2-1.3.5-.4 2.1 1.3-.4zM62.8 47.3l6-1.1 1-.5-6 1.2-1 .4z"/><path class="st1" d="m79.2 25.1.5-2.4-1.3-.3-.5 2.4 1.3.3zM76.6 24.6l.4-2.3-1.3.2-.4 2.2 1.3-.1zM81.5 32l2.3-2-.6-1.4-2.3 2 .6 1.4zM77.9 24.7l.5-2.3h-1.3l-.4 2.3c-.1-.1 1.2 0 1.2 0zM32.1 12.3v1.1l2 3.2-.3-1.2-1.7-3.1zM5.3 16.4l.4 2.2 2-2.6-.4-2.2-2 2.6zM39.2 29.3l.7 1.8.5 4-.7-1.8-.5-4zM25.7 5.5l-1 1.1 2.6 1.7.7-1.1-2.3-1.7zM3.2 31l.8 2.1.6-3.5-.8-2.2-.6 3.6zM9.1 53.7l.3.7-1.5-3-.4-.9 1.6 3.2zM78.3 37.9l3.9-1.6v-1.5l-3.9 1.6v1.5zM16.6 5.3 15.4 7l2.9-.3.9-1.7c.1.1-2.6.3-2.6.3zM72.1 43l5.2-1.3.5-1.2-5.2 1.3-.5 1.2zM63.7 46.8l6-1.2.9-.7-6.1 1.2c.1 0-.8.7-.8.7zM5.8 45.9l.6 1.4-.8-3.4-.6-1.6.8 3.6zM18 63.1l-.3-.1-2.3-1.5.1.1 2.5 1.5z"/><path class="st1" d="m15.5 61.6-.1-.1-2.2-1.9 2.3 2zM80.9 30.8l2.3-2-.8-1.2-2.3 2.1.8 1.1zM30.1 9.5l-.3 1.1 2.3 2.8v-1.1l-2-2.8z"/><path class="st1" d="m28 7.2-.6 1.1 2.5 2.3.3-1.1c-.1 0-2.2-2.3-2.2-2.3zM10.1 9.5l-.5 2.1 2.7-1.6.3-2-2.5 1.5zM20.5 64.3l-.4-.2-2.4-1.1.3.1 2.5 1.2zM55.9 48.6l6.3-1.2-1 .2-6.3 1.2 1-.2zM13.2 59.5l-2-2.2-.1-.2 2.1 2.4zM78.2 36.5l3.9-1.6-.2-1.4-3.9 1.6.2 1.4zM80.1 29.6l2.3-2.1-1-1-2.3 2.1 1 1zM64.6 46.1l6.1-1.2.8-.9-6.1 1.2-.8.9zM72.5 41.9l5.2-1.3.3-1.3-5.2 1.4-.3 1.2zM72.1 27.2l2-1.9-1.2.7-2 1.8 1.2-.6zM23.1 64.9l-.5-.2-2.5-.7.4.2 2.6.7zM3.9 36.8l.8 1.9.1-3.6-.8-2-.1 3.7zM4.1 21.7l.7 2.3 1.5-3-.7-2.3-1.5 3z"/><path class="st1" d="m79.2 28.6 2.3-2.1-1.1-.8-2.2 2.1 1 .8zM73.3 26.8l2.1-2-1.3.4-2 1.9 1.2-.3zM11.1 57.1l.1.2-1.7-2.6-.2-.3 1.8 2.7zM19.3 5.1l-.9 1.7 3 .4.6-1.7-2.7-.4zM78 35.1l3.9-1.7-.4-1.4-3.9 1.7c0 .1.4 1.4.4 1.4zM78.1 27.8l2.2-2.1-1.2-.6-2.1 2.1 1.1.6z"/><path class="st1" d="m74.5 26.7 2.1-2.1-1.3.2-2.1 2 1.3-.1zM65.3 45.3l6.1-1.2.6-1-6.2 1.3-.5.9zM77 27.2l2.2-2.1-1.3-.3-2.2 2.1 1.3.3zM75.8 26.8l2.2-2.1-1.3-.1-2.1 2.1 1.2.1zM72.9 40.6l5.2-1.4.2-1.4-5.3 1.5-.1 1.3zM38.2 25.4l.7 1.8 1 3.9-.7-1.8-1-3.9zM25.7 65l-.7-.3-2.4-.1.5.2 2.6.2zM5 42.3l.6 1.5-.3-3.5-.6-1.6.3 3.6zM7.2 13.8l.4 2.2 2.3-2.1-.4-2.2c.1-.1-2.3 2.1-2.3 2.1zM77.6 33.8l3.9-1.8-.6-1.3-3.9 1.8.6 1.3zM17.7 63l-.3-.6-2.2-1.4.1.5 2.4 1.5zM31.3 63.4l-.7.3-2.4.9.6-.2 2.5-1z"/><path class="st1" d="m15.4 61.5-.2-.5-2-1.8v.4l2.2 1.9zM12.6 8l-.4 2 2.9-1 .3-2-2.8 1zM3.8 27.4l.8 2.2 1-3.3-.8-2.3-1 3.4zM9.4 54.4l.2.3-1.4-2.8-.3-.5 1.5 3zM20.1 64.1l-.4-.6-2.3-1 .3.6 2.4 1zM65.9 44.3l6.2-1.3.5-1.2-6.2 1.3-.5 1.2zM73 39.3l5.3-1.4v-1.4L73 38v1.3zM22 5.5l-.6 1.6 3 1 .3-1.5L22 5.5zM58.6 46.8l6.3-1.1-.8.8-6.3 1.1.8-.8zM13.2 59.6v-.4l-1.8-2.1-.1.2c-.1 0 1.9 2.3 1.9 2.3zM50.5 49.5l6.4-1.3-1 .4-6.4 1.3 1-.4zM77 32.5l3.9-1.8-.8-1.2-3.9 1.8.8 1.2zM32.1 13.4l.6 1.4 2.2 3.2-.8-1.4-2-3.2zM6.3 47.2l.4 1L6 45l-.5-1.2c.1 0 .8 3.4.8 3.4zM22.6 64.6 22 64l-2.3-.6.4.6 2.5.6zM28.2 64.6l-.8-.2-2.4.3.7.3 2.5-.4z"/><path class="st1" d="m76.2 31.4 3.9-1.8-.9-1-3.8 1.9.8.9zM24.7 6.6l-.3 1.5 2.9 1.7V8.3c.1 0-2.6-1.7-2.6-1.7zM69.7 28.6l3.6-1.7-1.2.3-3.6 1.7 1.2-.3zM73 38l5.3-1.5-.3-1.4-5.3 1.5.3 1.4zM11.3 57.3l.1-.2-1.6-2.4-.2.1c0-.1 1.7 2.5 1.7 2.5zM66.4 43.1l6.2-1.3.3-1.3-6.2 1.3-.3 1.3zM4 33.1l.8 2 .6-3.4-.7-2.1-.7 3.5zM29.9 10.6l.3 1.5 2.5 2.8-.6-1.4c0-.1-2.2-2.9-2.2-2.9zM59.3 45.9l6.3-1.1-.7.9-6.3 1.1.7-.9zM39.9 31.2l.3 2.2.5 4-.3-2.2-.5-4zM51.5 48.9l6.4-1.3-.9.6-6.4 1.3c-.1 0 .9-.6.9-.6z"/><path class="st1" d="M27.4 8.3v1.5l2.8 2.2-.3-1.5c0 .1-2.5-2.2-2.5-2.2zM75.3 30.5l3.8-1.9-1.1-.8-3.8 1.9 1.1.8zM5.7 18.7l.6 2.3 1.9-2.6-.6-2.4-1.9 2.7zM70.9 28.5l3.7-1.8-1.2.1-3.6 1.7c-.1.1 1.1 0 1.1 0zM36.8 21.6l.6 1.8 1.5 3.8-.7-1.8-1.4-3.8zM17.4 62.4v-.9l-2-1.3-.2.8 2.2 1.4zM15.2 61l.1-.8-1.9-1.7-.3.7 2.1 1.8z"/><path class="st1" d="m74.3 29.7 3.8-1.9-1.1-.6-3.8 1.8 1.1.7zM72.1 28.7l3.7-1.8-1.3-.1-3.7 1.8 1.3.1zM25 64.7l-.7-.7H22l.6.7H25z"/><path class="st1" d="m73.2 29.1 3.8-1.8-1.2-.4-3.7 1.8 1.1.4zM19.7 63.4l-.2-1-2.1-.9v.9l2.3 1zM15.4 7l-.3 2 3.1-.3.1-2-2.9.3zM33.6 61.9l-.8.3-2.2 1.4.7-.3 2.3-1.4zM72.7 36.6l5.3-1.5-.4-1.3-5.2 1.5.3 1.3zM13.2 59.2l.3-.7-1.7-2-.4.6 1.8 2.1zM66.7 41.9l6.2-1.3.1-1.3-6.2 1.3-.1 1.3zM4.6 38.7l.6 1.6.1-3.4-.6-1.8-.1 3.6zM44.5 50.9l6.1-1.4-1 .4-6.1 1.4 1-.4zM59.8 44.8l6.3-1.1-.5 1.1-6.3 1.1.5-1.1zM52.3 48.1l6.3-1.2-.8.8-6.4 1.2c.1 0 .9-.8.9-.8zM26.6 53l5.1-1.5-1.1-1-5.2 1.4 1.2 1.1zM9.6 54.7l.3-.1L8.5 52l-.3-.1 1.4 2.8zM9.6 11.6l.4 2.2 2.6-1.6-.4-2.2c0 .1-2.6 1.6-2.6 1.6z"/><path class="st1" d="m22 64-.4-1.1-2.1-.5.2 1 2.3.6zM25.4 51.9l5.2-1.4-1-1.2-5.3 1.3 1.1 1.3zM30.6 63.7l-1-.2-2.2.9.8.2 2.4-.9zM72.3 35.3l5.2-1.5-.5-1.3-5.2 1.6.5 1.2zM29.2 54.4l1.4.3 1.4-.5M17.4 61.5l.4-1.2-1.9-1.3-.6 1.1c.1.1 2.1 1.4 2.1 1.4z"/><path class="st2" d="m11.4 57.1.4-.6-1.5-2.2-.5.4 1.6 2.4z"/><path class="st1" d="M5.6 43.8 6 45l-.3-3.3-.5-1.4.4 3.5zM15.4 60.2l.6-1.1-1.7-1.5-.7 1c-.1-.1 1.8 1.6 1.8 1.6zM4.8 24l.8 2.3 1.5-3-.8-2.3-1.5 3zM24.3 50.6l5.3-1.3-.8-1.3-5.4 1.2.9 1.4zM23.9 55.5l4-1.7-1.3-.8-4.2 1.6 1.5.9zM45.4 50.2l6-1.4-.9.6-6.1 1.4c.1.1 1-.6 1-.6z"/><path class="st1" d="m22.4 54.6 4.2-1.6-1.2-1.1-4.3 1.5 1.3 1.2zM19.5 62.4l.2-1.3-1.9-.8-.4 1.2 2.1.9zM66.8 40.6l6.2-1.3V38l-6.2 1.3v1.3zM27.4 64.4l-.9-.7-2.2.4.7.7 2.4-.4zM34.9 18l.5 1.8 1.9 3.5-.6-1.8-1.8-3.5zM25.3 56.1l3.9-1.7-1.4-.6-4 1.7c.1 0 1.5.6 1.5.6zM53 47.1l6.3-1.2-.7.9-6.3 1.2.7-.9zM60.2 43.6l6.3-1.1-.4 1.2-6.3 1.1.4-1.2zM13.5 58.5l.7-1-1.6-1.8-.8.9 1.7 1.9zM71.8 34.1l5.2-1.6-.8-1.1L71 33l.8 1.1z"/><path class="st1" d="m21.1 53.4 4.3-1.5-1.1-1.3-4.4 1.4 1.2 1.4zM64.8 30l4.9-1.5-1.2.3-4.8 1.4 1.1-.2zM6.8 48.3l.3.7-.7-3.1L6 45l.8 3.3zM24.3 64.1l-.5-1.1-2.1-.1.3 1.1 2.3.1zM18.4 6.8l-.1 2 3.2.3v-2l-3.1-.3zM17.8 60.2l1.1-1.5-1.7-1.1-1.3 1.4 1.9 1.2zM20.9 57.1l3-1.7-1.4-.9-3.1 1.6 1.5 1zM15.9 59l1.3-1.4-1.6-1.4-1.4 1.2c0 .1 1.7 1.6 1.7 1.6z"/><path class="st1" d="m19.3 56.1 3.1-1.6-1.3-1.2-3.3 1.5 1.5 1.3zM26.9 56.5l3.8-1.8-1.4-.3-3.9 1.7 1.5.4zM21.6 62.9l.1-1.4-2-.5-.2 1.3c0 .1 2.1.6 2.1.6zM38.9 27.2l.3 2.2 1 3.9-.3-2.2-1-3.9zM37.9 56.5l-.6 1-1.7 2.4.6-.9 1.7-2.5zM18.9 58.8l2-1.6-1.6-1-2.1 1.5 1.7 1.1z"/><path class="st1" d="m22.5 57.9 2.8-1.7-1.5-.6-3 1.7c.1-.2 1.7.6 1.7.6zM19.7 61.1l.9-1.5-1.8-.8-1.1 1.5c.1-.1 2 .8 2 .8zM8.2 51.9l.3.1-1-2.8-.4-.3 1.1 3zM71 33l5.2-1.6-.9-1-5.1 1.6.8 1zM17.2 57.7l2.1-1.5-1.4-1.3-2.3 1.4 1.6 1.4zM19.9 52l4.4-1.4-.9-1.4-4.5 1.2 1 1.6z"/><path class="st1" d="m17.9 54.9 3.3-1.5-1.3-1.4-3.4 1.3 1.4 1.6zM14.2 57.5l1.4-1.2-1.4-1.7-1.5 1.1 1.5 1.8z"/><path class="st2" d="m9.8 54.7.5-.4-1.2-2.5-.6.2 1.3 2.7z"/><path class="st1" d="m20.7 59.5 1.8-1.7-1.6-.7-2 1.6c0 .1 1.8.8 1.8.8zM66.7 39.3 73 38l-.2-1.3-6.3 1.3.2 1.3zM11.8 56.5l.8-.9-1.4-2.1-1 .7 1.6 2.3zM46.3 49.4l6-1.3-.8.8-6 1.4c-.1-.1.8-.9.8-.9zM4.6 29.6l.7 2.1 1-3.2-.7-2.2-1 3.3zM70.2 32l5.2-1.6-1-.8-5.1 1.6.9.8zM15.6 56.2l2.3-1.4-1.3-1.5-2.4 1.2 1.4 1.7zM67.1 30.2l5-1.5-1.2-.2-5 1.5 1.2.2zM24.2 58.2l2.7-1.8-1.5-.4-2.8 1.7 1.6.5zM35.6 59.9l-.9.4-1.9 1.9.8-.3 2-2zM7.6 16l.6 2.4 2.3-2.1-.5-2.4L7.6 16zM60.4 42.3l6.3-1.1-.2 1.3-6.3 1.1.2-1.3zM21.7 61.6l.8-1.6-1.8-.4-.9 1.5 1.9.5zM69.2 31.2l5.1-1.6-1.1-.6-5.1 1.6 1.1.6zM53.5 46l6.3-1.1-.5 1.1-6.3 1.1.5-1.1z"/><path class="st1" d="m68.2 30.6 5.1-1.6-1.2-.4-5 1.5 1.1.5zM22.6 47.6l5.5-1.1-.5-1.5-5.5 1 .5 1.6zM22.5 60l1.7-1.7-1.7-.4-1.8 1.7 1.8.4zM16.5 53.3l3.4-1.3-1-1.6-3.5 1.2 1.1 1.7zM32.7 14.8l.5 1.9 2.3 3.2-.6-1.9-2.2-3.2zM23.8 63l-.1-1.4-2-.1-.1 1.4 2.2.1z"/><path class="st1" d="m18.9 50.4 4.5-1.2-.8-1.6-4.6 1.1.9 1.7zM12.6 55.7l1.5-1.1-1.2-1.9-1.7.9c.1 0 1.4 2.1 1.4 2.1zM32.8 62.3l-1.1-.1-2 1.3 1 .2 2.1-1.4zM12.2 10.1l.4 2.2 2.9-1-.4-2.3-2.9 1.1zM21.4 7.1v2l3.2 1-.1-1.9-3.1-1.1zM26.5 63.7l-.7-1-2 .3.5 1.1 2.2-.4zM14.2 54.6l2.4-1.2-1.1-1.7-2.5 1.1 1.2 1.8zM29.6 63.5l-1-.6-2.1.8.9.7 2.2-.9zM66.5 38l6.2-1.4-.4-1.3-6.2 1.4zM4.7 35.1l.6 1.8.5-3.3-.6-1.9-.5 3.4zM25.8 58.3l2.6-1.8-1.5-.1-2.7 1.8 1.6.1z"/><path class="st1" d="m10.3 54.3 1-.7-1.1-2.3-1.1.5 1.2 2.5zM23.7 61.6l.6-1.6h-1.8l-.8 1.6h2zM47 48.3l5.9-1.3-.7 1-6 1.3c.1.1.8-1 .8-1zM24.3 60l1.5-1.7-1.6-.1-1.7 1.8h1.8zM15.4 51.6l3.5-1.2-.8-1.7-3.6 1 .9 1.9zM30.2 12.1l.4 1.9 2.6 2.7-.5-1.9-2.5-2.7zM60.4 41l6.3-1v1.3l-6.3 1.1V41zM8.5 52l.6-.2-.9-2.6h-.7l1 2.8zM5.2 40.3l.5 1.3.1-3.3-.5-1.5-.1 3.5zM24.4 8.2l.1 1.9 3.1 1.6-.2-1.9-3-1.6zM53.9 44.7l6.3-1.1-.4 1.2-6.3 1.2zM22.1 45.9l5.5-.9-.3-1.6-5.6.8zM18.1 48.7l4.6-1.1-.6-1.7-4.6.9.6 1.9zM66.1 36.7l6.2-1.3-.6-1.2-6.2 1.3.6 1.2zM7.1 48.9l.4.3-.6-2.9-.4-.5.6 3.1z"/><path class="st1" d="m11.3 53.6 1.6-.9-1-2.1-1.7.7 1.1 2.3zM6 45l.4.8-.3-3.1-.4-1L6 45zM27.4 9.8l.2 1.9 2.9 2.2-.4-1.9-2.7-2.2z"/><path class="st1" d="m12.9 52.7 2.5-1.1-.9-1.9-2.6.9 1 2.1zM58.9 31.2l5.8-1.2-1.1.2-5.8 1.1c.1.1 1.1-.1 1.1-.1zM41 50.8l5.3-1.4-.9.9-5.3 1.5c0-.1.9-1 .9-1zM40.5 48.8l-.3 1.6-.9 3.2.3-1.5c-.1.1.9-3.3.9-3.3zM25.8 62.7l-.2-1.3-1.9.3.1 1.4 2-.4zM27.4 58l2.4-1.8-1.5.2-2.6 1.8c.1.1 1.7-.2 1.7-.2zM40.2 33.4l.3 2.2.5 3.9-.3-2.1c0-.1-.5-4-.5-4zM37.4 23.4l.3 2.2 1.5 3.8-.3-2.2-1.5-3.8zM6.3 21l.7 2.4 2-2.6-.7-2.4-2 2.6zM65.6 35.4l6.2-1.3L71 33l-6.2 1.3c.1 0 .8 1.1.8 1.1zM60 31.2l5.9-1.2h-1.1L59 31.2h1z"/><path class="st1" d="m26 59.7 1.4-1.7-1.6.3-1.5 1.7 1.7-.3z"/><path class="st1" d="m25.6 61.3.5-1.6-1.8.3-.6 1.6 1.9-.3zM60.3 39.6l6.3-1 .1 1.3-6.3 1-.1-1.3zM14.5 49.7l3.6-1-.6-1.8-3.6.8c-.1 0 .6 2 .6 2zM47.6 47.2l5.9-1.2-.5 1.1-6 1.2.6-1.1zM28.6 62.9l-.8-1-1.9.8.7 1 2-.8zM9.1 51.8l1.1-.5-.8-2.4-1.1.3.8 2.6zM54.1 43.4l6.3-1-.2 1.3-6.3 1.1.2-1.4zM39.3 53.6l-.7 1.1-1.3 2.8.6-1 1.4-2.9zM64.9 34.3 71 33l-.9-1-6.1 1.3.9 1zM21.7 44.2l5.6-.8-.1-1.6-5.6.7.1 1.7zM61.1 31.4l6-1.2-1.2-.2-5.9 1.2 1.1.2zM17.4 46.9 22 46l-.4-1.7-4.6.7.4 1.9zM15.1 9.1l.4 2.3 3.1-.3-.4-2.3-3.1.3zM31.7 62.1l-1.2-.5-1.9 1.3 1 .6 2.1-1.4z"/><path class="st1" d="m11.9 50.6 2.6-.9-.7-2-2.7.7.8 2.2z"/><path class="st1" d="m10.2 51.3 1.7-.7-.8-2.2-1.8.5.9 2.4zM64.1 33.3l6.1-1.3-1-.8-6.1 1.3 1 .8zM62.2 31.9l6-1.3-1.2-.4-6 1.2c.1 0 1.2.5 1.2.5zM37.3 57.5l-1 .6-1.6 2.3.9-.4 1.7-2.5z"/><path class="st1" d="m63.2 32.5 6.1-1.3-1.1-.6-6 1.3 1 .6zM41.8 49.7l5.2-1.3-.7 1-5.3 1.4.8-1.1zM34.7 60.4h-1.2l-1.8 1.8 1.1.1 1.9-1.9zM10 13.9l.6 2.4 2.6-1.5-.6-2.4c0-.1-2.6 1.5-2.6 1.5zM5.6 26.3l.7 2.2 1.5-2.9-.7-2.3-1.5 3zM7.5 49.2h.7l-.6-2.7-.7-.2.6 2.9zM60 38.3l6.4-1 .3 1.3-6.3 1c-.1 0-.4-1.3-.4-1.3zM27.8 61.9l-.4-1.3-1.8.7.2 1.3 2-.7zM48 45.8l5.9-1.1-.4 1.3-5.9 1.2.4-1.4zM27.7 59.1l1.2-1.6-1.5.5-1.4 1.7 1.7-.6zM13.8 47.7l3.6-.8L17 45l-3.7.6.5 2.1zM54.1 42l6.3-1v1.3l-6.3 1V42z"/><path class="st1" d="m27.4 60.6.3-1.5-1.7.6-.5 1.6 1.9-.7zM6.4 45.8l.4.5-.3-2.9-.5-.7.4 3.1zM35.5 19.9l.3 2.2 1.9 3.5-.3-2.2-1.9-3.5zM5.3 31.7l.6 1.9 1-3.1-.6-2-1 3.2zM21.6 42.5l5.6-.7.1-1.6-5.6.5-.1 1.8zM17 45l4.7-.7-.1-1.7-4.7.6c0-.1.1 1.8.1 1.8zM59.5 37l6.4-1 .5 1.3-6.4 1-.5-1.3zM8.2 49.2l1.1-.3-.5-2.5-1.2.1.6 2.7zM5.7 41.7l.4 1 .1-3.1-.4-1.2-.1 3.3zM5.4 36.9l.5 1.5.5-3.1-.4-1.7-.6 3.3zM11.1 48.4l2.7-.7-.4-2.1-2.7.5.4 2.3zM51.9 32.1l6.5-.9 1.1-.1-6.5 1h-1.1zM30.5 61.6l-1-.9-1.8 1.2.8 1 2-1.3zM42.4 48.4l5.2-1.2-.6 1.1-5.2 1.3.6-1.2z"/><path class="st1" d="m9.3 48.9 1.8-.5-.5-2.3-1.9.3.6 2.5zM18.2 8.8l.4 2.3 3.2.3-.3-2.3-3.3-.3zM39.2 29.4l.3 2.2 1 3.9-.3-2.2-1-3.9zM58.9 35.8l6.4-1 .6 1.2-6.4 1-.6-1.2zM48.2 44.4l5.9-1-.2 1.3-5.9 1.1.2-1.4zM53 32.1l6.5-.9 1.1.1-6.5.9-1.1-.1zM41 45.2l-.3 1.7-.5 3.5.3-1.6.5-3.6zM8.3 18.4l.7 2.4 2.3-2.1-.7-2.5c0 .1-2.3 2.2-2.3 2.2zM13.4 45.6 17 45l-.2-1.9-3.7.5c.1-.1.3 2 .3 2zM29.2 58.1l1.1-1.6-1.4.9-1.2 1.6c0 .1 1.5-.9 1.5-.9zM33.5 60.4l-1.3-.4-1.7 1.7 1.2.5 1.8-1.8z"/><path class="st1" d="m58.1 34.8 6.4-.9.8 1.1-6.4 1-.8-1.2zM29.5 60.7l-.5-1.2-1.6 1.1.4 1.3 1.7-1.2zM33.2 16.7l.3 2.2 2.3 3.2-.3-2.2-2.3-3.2zM6.9 46.3l.7.2-.3-2.7-.7-.4.3 2.9zM54.1 32.2l6.5-.9 1.1.3-6.4.9c-.1 0-1.2-.3-1.2-.3zM21.6 40.8l5.6-.5.3-1.5-5.6.4c0-.1-.3 1.6-.3 1.6z"/><path class="st1" d="m29 59.5.2-1.4-1.5 1-.3 1.5 1.6-1.1zM16.9 43.1l4.7-.6.1-1.7-4.7.4c-.1 0-.1 1.9-.1 1.9zM57.2 33.8l6.4-.9.9.9-6.4.9c0 .1-.9-.9-.9-.9zM55.2 32.5l6.4-.9 1 .5-6.4.9-1-.5zM12.6 12.3l.6 2.4 2.9-.9-.6-2.4c0-.1-2.9.9-2.9.9z"/><path class="st1" d="m56.2 33.1 6.4-.9 1 .7-6.4.9-1-.7zM40.2 50.4l-.7 1.2-.9 3.1.7-1.1.9-3.2zM53.6 39.2l6.3-.9.3 1.3-6.2 1-.4-1.4zM36.3 58.1l-1.3.1-1.5 2.2h1.2l1.6-2.3zM21.4 9.1l.3 2.3 3.2 1-.3-2.3-3.2-1zM10.6 46.1l2.7-.5-.2-2.1-2.7.3.2 2.3z"/><path class="st1" d="m38.6 54.7-1.1.7-1.2 2.7 1-.6 1.3-2.8zM48.2 42.9l5.9-.9v1.4l-5.9 1v-1.5zM7.6 46.5l1.2-.1-.2-2.5-1.2-.1c-.1 0 .2 2.7.2 2.7zM30.5 13.9l.3 2.3 2.6 2.7-.3-2.2c.1 0-2.6-2.8-2.6-2.8zM8.8 46.4l1.9-.3-.2-2.3-1.9.1.2 2.5zM6.1 42.7l.5.7.1-2.9-.5-.9-.1 3.1zM7.1 23.3l.7 2.3 1.8-2.5-.6-2.3-1.9 2.5zM24.5 10.1l.3 2.3L28 14l-.3-2.3-3.2-1.6zM53.1 37.9l6.4-.8.5 1.3-6.3.9-.6-1.4zM32.2 60l-1.1-.8-1.6 1.5 1 .9 1.7-1.6z"/><path class="st1" d="M27.6 11.7 28 14l2.9 2.2-.3-2.3c-.1 0-3-2.2-3-2.2zM40.5 35.5l.1 2.1.5 3.8-.1-2c0 .1-.5-3.9-.5-3.9zM13.2 43.5l3.7-.5.1-1.9-3.7.3-.1 2.1zM45.2 32.8l6.7-.6 1.1-.1-6.6.6-1.2.1zM21.9 39.1l5.6-.4.5-1.4-5.5.3-.6 1.5zM30.5 56.8l1-1.5-1.2 1.2-1.1 1.6 1.3-1.3zM37.7 25.6l.3 2.3 1.5 3.7-.3-2.2-1.5-3.8zM5.8 38.4l.4 1.2.5-2.9-.4-1.4-.5 3.1zM17 41.2l4.7-.4.3-1.6-4.7.3-.3 1.7zM6.3 28.5l.6 2 1.4-2.7-.5-2.2-1.5 2.9zM43.1 45.4l5.1-1-.2 1.4-5.1 1.2.2-1.6zM5.9 33.6l.4 1.7.9-2.9-.4-1.8-.9 3zM52.5 36.6l6.4-.8.6 1.2-6.4.8-.6-1.2zM31.1 59.2l-.7-1.1-1.4 1.4.5 1.2 1.6-1.5z"/><path class="st1" d="M30.4 58.1v-1.3l-1.3 1.3-.1 1.4 1.4-1.4zM46.4 32.7l6.6-.6 1.1.1-6.6.6-1.1-.1zM6.6 43.4l.7.4.1-2.7-.7-.6-.1 2.9zM10.4 43.8l2.7-.3.1-2.1-2.7.1-.1 2.3zM35 58.2l-1.4-.3-1.4 2 1.3.4c0 .1 1.5-2.1 1.5-2.1zM51.7 35.5l6.4-.7.8 1.1-6.4.8-.8-1.2zM15.5 11.3l.6 2.4 3-.3-.5-2.4-3.1.3zM10.6 16.3l.7 2.5 2.6-1.5-.6-2.5-2.7 1.5z"/><path class="st1" d="m47.5 32.8 6.6-.6 1.1.3-6.6.6-1.1-.3zM41 41.5l-.3 1.8V47l.3-1.7v-3.8zM50.7 34.5l6.5-.7.9.9-6.4.7-1-.9zM48.6 33.2l6.6-.6 1 .6-6.5.7c0-.1-1.1-.7-1.1-.7zM7.3 43.8l1.2.1.1-2.4-1.2-.4z"/><path class="st1" d="m8.5 43.9 1.9-.1.1-2.2-1.9-.1zM47.7 40l6-.8.3 1.4-5.9.9c0-.1-.4-1.5-.4-1.5zM49.7 33.8l6.5-.7 1 .7-6.5.7-1-.7zM22.5 37.6l5.5-.3.7-1.2-5.5.1c0 .1-.7 1.4-.7 1.4zM43.1 43.8l5.2-.9v1.5l-5.1 1-.1-1.6zM13.3 41.5l3.7-.3.3-1.8-3.7.1-.3 2zM37.5 55.4l-1.4.3-1.1 2.5 1.3-.1 1.2-2.7zM17.3 39.4l4.7-.3.5-1.5-4.6.1-.6 1.7zM40.7 46.9l-.7 1.4-.5 3.4.7-1.2c0-.1.5-3.6.5-3.6zM6.2 39.6l.5.9.5-2.8-.4-1.1-.6 3zM35.8 22.1l.3 2.3 1.9 3.5-.3-2.3-1.9-3.5zM33.6 57.9l-1.2-.6-1.3 1.9 1.1.8 1.4-2.1zM39.5 51.6l-1.1.8-.9 3 1.1-.7.9-3.1zM47.1 38.5l6-.7.5 1.3-5.9.9-.6-1.5zM39.5 31.7l.1 2.2 1 3.8-.1-2.1c0-.1-1-3.9-1-3.9zM9 20.8l.6 2.4 2.2-2-.6-2.4-2.2 2zM31.6 56.4l-.1-1.2-1.1 1.6v1.3l1.2-1.7z"/><path class="st1" d="m32.4 57.3-.8-.9-1.2 1.7.7 1.1 1.3-1.9zM10.5 41.6l2.7-.1.3-2-2.7-.1-.3 2.2zM18.6 11l.5 2.4 3.1.3-.5-2.5-3.1-.2zM42.9 42.2l5.2-.8.2 1.5-5.2.9-.2-1.6zM6.4 35.3l.4 1.4.9-2.7-.3-1.6c-.1 0-1 2.9-1 2.9zM46.4 37.2l6-.6.7 1.2-6 .7-.7-1.3zM6.7 40.5l.7.6.4-2.6-.7-.8-.4 2.8zM7.8 25.6l.5 2.2 1.8-2.4-.4-2.3c-.1.1-1.9 2.5-1.9 2.5zM13.6 39.5l3.7-.1.6-1.7-3.6-.1-.7 1.9z"/><path class="st1" d="m8.6 41.5 1.9.1.4-2.2-1.9-.3-.4 2.4zM6.9 30.5l.4 1.8 1.3-2.6-.3-2c0 .1-1.4 2.8-1.4 2.8zM17.8 37.7l4.6-.1.7-1.3h-4.6l-.7 1.4zM33.5 18.9l.4 2.4 2.3 3.1-.3-2.3-2.4-3.2zM45.6 36l6.1-.5.8 1.1-6 .6c-.1 0-.9-1.2-.9-1.2zM36.2 55.7l-1.5-.1-1.1 2.4 1.4.3 1.2-2.6zM13.2 14.7l.6 2.5 2.8-.9-.6-2.5-2.8.9zM7.4 41.1l1.2.3.4-2.3-1.2-.5c.1 0-.4 2.5-.4 2.5zM41.1 33.2l6.4-.4 1.1.4-6.3.4-1.2-.4zM42.5 40.6l5.2-.7.4 1.5-5.2.8-.4-1.6z"/><path class="st1" d="m44.6 35 6.2-.5.9 1-6.1.5-1-1zM42.3 33.6l6.3-.4 1.1.6-6.2.4-1.2-.6zM21.7 11.4l.5 2.5 3.1 1-.5-2.4c.1-.1-3.1-1.1-3.1-1.1zM40.5 37.6l-.3 1.9.5 3.7.3-1.8-.5-3.8zM30.8 16.2l.4 2.4 2.6 2.7-.4-2.4-2.6-2.7zM34.7 55.6l-1.3-.5-1 2.2 1.2.6 1.1-2.3zM38.4 52.4l-1.4.5-.8 2.8 1.4-.3.8-3zM32.6 54.3l-.1-1-.8 1.8.1 1.2.8-2zM10.9 39.4l2.7.1.6-1.8-2.7-.3-.6 2zM24.9 12.4l.5 2.4 3 1.6L28 14l-3.1-1.6zM6.7 36.7l.4 1.1.9-2.6-.4-1.3-.9 2.8zM41.9 39.1l5.3-.6.5 1.4-5.2.7-.6-1.5zM38 27.9l.1 2.3 1.4 3.7-.1-2.2c.1 0-1.4-3.8-1.4-3.8z"/><path class="st1" d="m28 14 .4 2.4 2.9 2.2-.4-2.4L28 14zM33.4 55.1l-.8-.8-.9 2 .8.9.9-2.1zM40.7 43.2l-.7 1.5v3.5l.7-1.4v-3.6zM18.6 36.3h4.6l.9-1.2-4.5-.1-1 1.3zM40 48.3l-1.2 1-.4 3.2 1.1-.8c0-.1.5-3.4.5-3.4zM14.2 37.7l3.6.1.8-1.5-3.5-.3-.9 1.7zM11.3 18.7l.6 2.4 2.5-1.5-.5-2.5-2.6 1.6zM9 39.1l1.9.3.7-2-1.8-.5c-.1 0-.8 2.2-.8 2.2zM41.1 37.7l5.3-.4.7 1.3-5.3.6-.7-1.5zM7.2 37.8l.7.8.8-2.4-.6-1-.9 2.6zM16.1 13.8l.6 2.5 3-.3-.5-2.5c-.1 0-3.1.3-3.1.3zM7.3 32.4l.3 1.6 1.3-2.5-.2-1.7-1.4 2.6z"/><path class="st1" d="m7.9 38.6 1.1.5.7-2.2-1.1-.7-.7 2.4zM9.6 23.2l.4 2.3 2.1-1.9-.4-2.3-2.1 1.9zM37 52.9l-1.5.1-.7 2.6 1.5.1.7-2.8zM8.3 27.8l.3 2 1.7-2.2-.3-2.1-1.7 2.3zM19.6 35l4.5.1 1.1-.9-4.4-.2-1.2 1zM11.5 37.4l2.7.3.9-1.6-2.6-.4c0-.1-1 1.7-1 1.7zM36.1 24.4l.2 2.3 1.9 3.4-.2-2.2-1.9-3.5zM39.6 33.8l-.3 2 .9 3.7.3-1.9-.9-3.8zM33.2 52.1l-.2-.8-.6 2.1.1 1 .7-2.3z"/><path class="st1" d="m15.1 36 3.6.2 1-1.3-3.5-.3c-.1.1-1.1 1.4-1.1 1.4zM35.4 52.9l-1.3-.3-.7 2.4 1.3.5.7-2.6z"/><path class="st1" d="m34.1 52.7-.9-.6-.6 2.2.8.8.7-2.4zM7.6 33.9l.4 1.3 1.2-2.3-.3-1.4-1.3 2.4zM19.1 13.5l.5 2.5 3 .3-.4-2.5-3.1-.3zM9.7 36.9l1.8.5.9-1.8-1.6-.6-1.1 1.9zM13.8 17.2l.5 2.5 2.7-.9-.4-2.5-2.8.9zM40.3 39.5l-.7 1.6.5 3.6.7-1.5-.5-3.7zM40 44.7l-1.2 1.2v3.3l1.2-1v-3.5z"/><path class="st1" d="m8 35.2.6 1 1.1-2.1-.6-1.2L8 35.2zM33.9 21.3l.2 2.4 2.2 3.1-.2-2.3-2.2-3.2z"/><path class="st1" d="m8.6 36.2 1.1.7 1-2-1-.9-1.1 2.2zM12.5 35.6l2.6.4 1.1-1.4-2.5-.6-1.2 1.6z"/><path class="st1" d="m16.1 34.7 3.5.3 1.2-1-3.4-.4c0-.1-1.3 1.1-1.3 1.1zM8.6 29.8l.2 1.7 1.6-2.1-.2-1.8-1.6 2.2zM22.2 13.8l.4 2.5 3.1 1-.4-2.5-3.1-1zM33.5 49.7l-.2-.6-.3 2.2.2.8.3-2.4zM37.4 49.9l-1.5.3-.4 2.8 1.5-.1.4-3zM11.8 21.2l.4 2.3 2.4-1.4-.3-2.4-2.5 1.5zM38.2 30.2l-.2 2.1 1.4 3.5.3-2-1.5-3.6zM31.2 18.6l.3 2.5 2.6 2.7-.2-2.4c0-.1-2.7-2.8-2.7-2.8zM10.1 25.4l.3 2.1 2-1.8-.2-2.2-2.1 1.9zM25.4 14.8l.4 2.5 3 1.6-.3-2.5-3.1-1.6z"/><path class="st1" d="m28.4 16.4.3 2.5 2.8 2.1-.3-2.5-2.8-2.1zM34.4 50l-.9-.4-.3 2.4.9.6.3-2.6z"/><path class="st1" d="m35.8 50.1-1.4-.1-.3 2.6 1.3.3.4-2.8zM10.8 35l1.7.6 1.2-1.5-1.7-.8-1.2 1.7zM16.6 16.3l.4 2.5 2.9-.3-.3-2.5-3 .3zM8.9 31.5l.3 1.4 1.5-2-.2-1.6-1.6 2.2zM17.4 33.5l3.4.4 1.3-.7-3.2-.5-1.5.8zM38.8 45.9l-1.4.8v3.1l1.4-.6v-3.3zM13.7 34.1l2.5.6 1.3-1.1-2.4-.7-1.4 1.2zM39.3 35.9l-.7 1.8.9 3.5.7-1.6-.9-3.7zM9.7 34.1l1 .9 1.3-1.7-.9-1-1.4 1.8z"/><path class="st1" d="m9.2 32.9.6 1.2 1.4-1.8-.4-1.3c-.1-.1-1.6 1.9-1.6 1.9zM39.5 41.2l-1.1 1.3.4 3.4 1.2-1.2-.5-3.5zM36.3 26.8l-.2 2.2 1.8 3.3.2-2.1-1.8-3.4zM10.3 27.5l.1 1.8 1.9-1.7v-2l-2 1.9zM14.3 19.7l.3 2.4 2.6-.8-.2-2.5-2.7.9zM18.9 32.7l3.2.5 1.4-.4-3.1-.6-1.5.5zM37.4 46.7l-1.5.5v2.9l1.5-.3v-3.1zM19.6 16l.3 2.5 3 .3-.2-2.5c0 .1-3.1-.3-3.1-.3zM12 33.3l1.6.8 1.4-1.2-1.4-.9-1.6 1.3zM34.4 47.3l-.9-.1v2.5l.9.4v-2.8zM12.2 23.5l.2 2.2 2.3-1.3v-2.2c-.1-.1-2.5 1.3-2.5 1.3zM35.8 47.2l-1.4.1V50l1.4.1v-2.9zM15 32.9l2.4.7 1.4-.8-2.2-.8-1.6.9z"/><path class="st1" d="M34.1 23.7 34 26l2.2 3 .2-2.2c-.1 0-2.3-3.1-2.3-3.1zM10.5 29.4l.2 1.6 1.8-1.6-.1-1.7-1.9 1.7zM37.9 32.3l-.6 1.9 1.3 3.4.7-1.8c0 .1-1.4-3.5-1.4-3.5zM11.1 32.3l.9 1 1.5-1.3-.8-1.2-1.6 1.5zM38.4 42.5l-1.4 1 .4 3.2 1.4-.8-.4-3.4zM22.7 16.4l.2 2.5 3 .9-.1-2.5-3.1-.9zM33.2 44.6l-.2-.2.3 2.3.2.4-.3-2.5z"/><path class="st1" d="m10.7 30.9.4 1.3 1.7-1.5-.3-1.4c0 .1-1.8 1.6-1.8 1.6zM38.6 37.6l-1.1 1.5.9 3.4 1.1-1.3-.9-3.6zM31.5 21.1v2.4L34 26l.1-2.3-2.6-2.6zM17 18.8l.2 2.4L20 21v-2.5l-3 .3zM25.7 17.3l.1 2.5 2.9 1.5-.1-2.5-2.9-1.5zM16.6 32l2.3.7 1.5-.5-2-.8zM13.6 32l1.4.9 1.6-.9-1.3-1zM28.7 18.9l.1 2.5 2.7 2.1v-2.4l-2.8-2.2zM12.3 25.7v2l2.2-1.2.1-2-2.3 1.2zM34.2 44.5l-1 .1.3 2.6.9.1-.2-2.8zM37 43.5l-1.5.7.4 3 1.5-.5-.4-3.2zM14.6 22.1v2.2l2.5-.8.1-2.3c0 .1-2.6.9-2.6.9zM36.1 29l-.6 2.1 1.7 3.2.6-1.9c.1-.1-1.7-3.4-1.7-3.4zM32.5 42.1h-.1l.6 2.3.2.2-.7-2.5z"/><path class="st1" d="m12.8 30.8.8 1.2 1.7-1-.6-1.3-1.9 1.1zM18.4 31.4l2.1.8 1.7-.1-1.9-.8c-.1 0-1.9.1-1.9.1zM12.4 27.7l.1 1.7 2-1.2.1-1.8c-.1 0-2.2 1.3-2.2 1.3zM19.9 18.6v2.5l2.9.3.1-2.5-3-.3zM37.5 39.2l-1.4 1.2.8 3.2 1.4-1c.1-.1-.8-3.4-.8-3.4z"/><path class="st1" d="m12.5 29.4.3 1.4 1.9-1.1-.2-1.5-2 1.2zM15.3 31l1.3 1 1.7-.5-1.2-1.1c.1 0-1.8.6-1.8.6zM37.3 34.2l-1 1.7 1.3 3.2 1.1-1.5c-.1 0-1.4-3.4-1.4-3.4zM34 26l-.5 2.2 2.1 2.9.6-2.1c-.1 0-2.2-3-2.2-3zM20.2 31.3l1.9.8 1.7.2-1.8-.8-1.8-.2zM14.6 24.4l-.1 2 2.4-.7.2-2.1-2.5.8zM17.2 21.3l-.1 2.3 2.6-.2.3-2.4-2.8.3zM31.5 39.7v.3l.9 2.2h.1l-1-2.5zM36.1 40.4l-1.5.9.8 3 1.5-.7-.8-3.2zM22.9 18.9l-.1 2.5 2.8.9.2-2.4c.1-.1-2.9-1-2.9-1z"/><path class="st1" d="m14.6 29.7.6 1.3 1.9-.6-.5-1.3-2 .6zM17.2 30.4l1.2 1 1.8-.2-1-1.1-2 .3zM31.5 23.5l-.4 2.3 2.4 2.5.5-2.3-2.5-2.5zM25.9 19.8l-.2 2.4 2.8 1.5.3-2.4-2.9-1.5zM14.5 26.4l-.1 1.8 2.2-.7.2-1.8c.1 0-2.3.7-2.3.7zM35.6 31.1l-1 1.8 1.7 3 1-1.7-1.7-3.1zM28.8 21.4l-.3 2.4 2.6 2 .4-2.3-2.7-2.1zM36.2 35.9l-1.3 1.4 1.2 3.1 1.4-1.2-1.3-3.3z"/><path class="st2" d="m14.5 28.2.2 1.5 2-.6v-1.6l-2.2.7z"/><path class="st1" d="m30.3 37.4.1.4 1.1 2.1v-.3c0 .1-1.2-2.2-1.2-2.2zM20 21l-.2 2.3 2.7.3.4-2.3L20 21zM19.2 30.2l1 1.1 1.9.2-.8-1-2.1-.3zM17.1 23.6l-.2 2.1 2.5-.2.4-2.1c0-.1-2.7.2-2.7.2zM34.9 37.3l-1.4 1.1 1.1 2.8 1.5-.9-1.2-3z"/><path class="st1" d="m16.7 29.1.5 1.3 2-.2-.3-1.3c-.1 0-2.2.2-2.2.2zM28.8 35.4l.2.6 1.4 1.9-.1-.4-1.5-2.1zM33.5 28.2l-.9 2 2 2.7 1-1.8-2.1-2.9zM21.2 30.5l.8 1 1.9.6-.7-1-2-.6zM16.9 25.7l-.2 1.8 2.3-.2.4-1.9-2.5.3z"/><path class="st2" d="M16.7 27.5v1.6l2.2-.2.2-1.6c-.1 0-2.4.2-2.4.2z"/><path class="st1" d="m34.6 32.9-1.2 1.6 1.6 2.8 1.3-1.4c-.1 0-1.7-3-1.7-3zM22.8 21.4l-.4 2.3 2.7.9.5-2.3-2.8-.9zM27.1 33.6l.3.8L29 36l-.2-.6-1.7-1.8zM23.2 31.1l.7 1 1.8 1-.5-.9-2-1.1z"/><path class="st1" d="m25.2 32.2.5.9 1.7 1.3-.3-.8-1.9-1.4zM31.1 25.7l-.7 2.1 2.3 2.3.9-2-2.5-2.4zM18.8 28.9l.3 1.3 2 .2-.1-1.3c.1.1-2.2-.2-2.2-.2zM19.8 23.3l-.4 2.1 2.6.3.5-2.1-2.7-.3zM25.7 22.3l-.5 2.3 2.6 1.4.6-2.2-2.7-1.5zM28.5 23.7l-.6 2.2 2.5 1.9.7-2.1-2.6-2zM33.4 34.5l-1.3 1.3 1.5 2.7 1.4-1.1c-.1-.1-1.6-2.9-1.6-2.9zM29.3 34.5l-.5.9 1.5 2 .7-.7-1.7-2.2zM32.6 30.2l-1.1 1.7 1.9 2.6 1.2-1.6-2-2.7z"/><path class="st1" d="m19 27.3-.2 1.6 2.2.3.3-1.6-2.3-.3zM21.1 29.2l.1 1.3 2 .7v-1.3l-2.1-.7zM19.4 25.4l-.4 1.9 2.4.3.6-1.8-2.6-.4zM27.5 32.6l-.4 1 1.7 1.8.5-.9-1.8-1.9zM22.5 23.7l-.5 2 2.6.8.7-2c-.1 0-2.8-.8-2.8-.8zM23.3 29.9v1.3l2 1.1.2-1.2-2.2-1.2z"/><path class="st1" d="m25.4 31-.2 1.2 1.9 1.4.4-1-2.1-1.6zM31.5 31.9l-1.2 1.4 1.8 2.4 1.3-1.3-1.9-2.5zM30.3 27.8l-1 1.9 2.1 2.2 1.1-1.7-2.2-2.4zM21.4 27.6l-.3 1.6 2.2.7.5-1.5-2.4-.8zM25.2 24.5l-.7 2 2.5 1.3.8-2-2.6-1.3zM22 25.7l-.6 1.8 2.4.8.7-1.8c0 .1-2.5-.8-2.5-.8z"/><path class="st1" d="m27.8 25.9-.8 2 2.3 1.8 1-1.9-2.5-1.9zM28.3 31.3l-.8 1.3 1.9 1.9 1-1.2-2.1-2z"/><path class="st1" d="m29.4 29.7-1 1.6 2 2.1 1.2-1.4c-.1-.1-2.2-2.3-2.2-2.3z"/><path class="st2" d="m23.8 28.4-.5 1.5 2.2 1.2.7-1.4c-.1-.1-2.4-1.3-2.4-1.3z"/><path class="st1" d="m26.1 29.6-.7 1.4 2 1.6.8-1.3c.1 0-2.1-1.7-2.1-1.7zM24.5 26.6l-.7 1.8 2.3 1.2.9-1.7-2.5-1.3z"/><path class="st1" d="m27 27.9-.9 1.7 2.2 1.7 1-1.6-2.3-1.8zM33.2 49.9l-.2 1.2-1.3.3-1.1-.9zM33.3 49.1v-2.3l.2.4v2.5zM30.7 38.5l-3.2.2-.3 1.5 4.2-.4M33.5 38.4l-1.5.9-.5.4M27.1 41.8l4.9-.5M34.7 41.2l-1.5.7-.7.2M29.6 49.3l3.7-.8M29.2 54.4l3.2-1.1M27.9 53.8l4.8-1.5M32.8 52.1l-1.1-.7M30.5 56.8l1.1-1.6M28.4 56.5l3.3-1.6M30.6 54.7l1.2.1M30.6 56.1l-1.7 1.3-1.5.6 2.4-1.7 1.1-.5-1 .4 1.3-.6M39.7 52.2l4.8-1.3.9-.7-5.3 1.5-.4.4M33.1 45.6l-5 .9.7 1.5 4.5-.9M27.6 45l5.3-.9-5.3.9zM27.3 43.4l5.2-.7M29.9 37.2l-1.9.2.7-1.3h.4M28.9 35.9l-.2.2-5.5.2.9-1.2h4-4l1.1-.9h2"/><path class="st1" d="m32.1 35.7-1.1 1 1.3 2.5 1.1 2.6.8 2.7.2 2.8M35.4 44.2l-1.2.3M42.4 48.4l-.6 1.3 5.2-1.4.6-1.1z"/><path class="st1" d="m41.8 49.7-1.6.7.2-1.4 2-.6z"/><path class="st1" d="m41.8 49.7-.8 1.1-1.1.7.3-1.1zM40.4 49l2-.6.4-1.4-2.1.6z"/><path class="st1" d="m42.8 47-2.1.6.2-1.6 2.2-.6z"/><path class="st1" d="m40.9 46 2.2-.6v-1.6l-2.1.4v1z"/><path class="st1" d="m43.1 43.8-.2-1.6-1.9.3v1.7z"/><path class="st1" d="m41 42.5 1.9-.3-.4-1.6-1.5.2zM41.9 39.1l-1 .1M40.6 36.4l5-.4.8 1.2-5.3.5-.4-.6M44 32.8l.7-.1v-2.9l-3.2.4-.1 2.8.1-2.8-1.7.4-.7-2.6v-.6l2.4-.4M54 40.6l.1 1.4M64.9 29.8l-3.1-.9v1.7M57.6 30.4l2.8.4-2.7.5-.1-.9-4.5-.4.1 1.9v.1M68.1 29l.4-1.6-2.5-1.5-.4 2 2.2 1.2-2.2-1.2-.3 1.9M69.3 28.5l-.8-1.1.7-1.7 1.2 1.7-.3.7M36.6 21.3l.4-.4.4 2.4M38.9 24l-1.1.4M35.3 18.7V18l-1.1-3.4-.4.8M38.2 4.2l-5.7-.8M68.7 14.7l-1.1.5M78.3 20.2l-1.2-.3M63.1 47.1l-6.2 1.1M43.4 51.3l-3.8 1.1M40.3 34.2h3.2l1.1.8-4.2.2M42.3 33.6h-2.1M25.2 34.2l1.1-.7M22.1 33.2l4.1.2M23.8 32.3l1 .3-.9-.5M23.5 32.8l1.4-.1"/><path class="st1" d="m41.1 33.2-.8-.2 6.3-.3.9.1zM71.2 26l-.3 1.5M71.8 26.7l-1.2 1.1M16.7 27.5v1.6"/></g></g><path d="M113.8 51.6c-1.7 0-3.5-.2-5-.9-1.3-.4-2.6-1.3-3.7-2.4-1.1-1.1-1.7-2.2-2.4-3.7s-.9-3-.9-4.8V23.5c0-1.5.2-3.3.9-4.8.7-1.3 1.5-2.6 2.4-3.7 1.1-.9 2.4-1.7 3.7-2.2 1.5-.7 3-.9 5-.9 3.3 0 6.1.9 8.1 2.8 2 1.7 3.3 4.4 3.7 7.6h-4.8c-.2-2-.9-3.5-2.2-4.6s-2.8-1.5-4.8-1.5c-2.2 0-3.9.7-5.2 2-1.1 1.1-1.7 3-1.7 5.2v16.5c0 2.2.7 3.9 1.7 5.2 1.3 1.3 3 2 5.2 2 2 0 3.5-.4 4.8-1.7 1.3-1.1 2-2.6 2.2-4.6h4.8c-.4 3.3-1.5 5.9-3.7 7.6-2 2.4-4.8 3.2-8.1 3.2zm25.2-30v19.2c0 4.4 2.2 6.7 6.3 6.7 4.4 0 6.5-2.2 6.5-6.7V21.6h4.8v19.2c0 3.5-.9 6.1-2.8 8.1-2 2-4.8 2.8-8.3 2.8s-6.3-.9-8.3-2.8c-2-2-2.8-4.6-2.8-8.1V21.6h4.6zm33.1 0v5h.4c.4-1.7 1.5-3 2.8-4.1 1.5-1.1 3.3-1.5 5.4-1.5 3 0 5.4.9 7.4 2.8 1.7 2 2.6 4.6 2.6 8.1v2h-4.8v-1.1c0-2.4-.7-4.1-1.7-5.4s-2.8-2-5-2-3.7.7-5 2-2 3-2 5.2V51h-4.8V21.6h4.7zm24.2 0h5l7.2 20.9c.2.7.4 1.5.7 2.2.2.7.2 1.1.2 1.5s0 .9.2 1.3h.4v-1.3l.2-1.5c.2-.7.4-1.5.7-2.2l6.7-20.9h5.2L212.4 51H207l-10.7-29.4zm37 2.6c-2.2 2-3 4.8-3 8.3v7.8c0 3.5 1.1 6.3 3 8.3 2 2 5 3 8.7 3 3 0 5.4-.7 7.6-2 2.2-1.3 3.5-3 4.1-5.2h-5c-.7.9-1.5 1.7-2.6 2.2-1.1.4-2.6.7-4.1.7-2.2 0-3.9-.7-5-2-1.3-1.3-1.7-3-1.7-5.2v-2.4H254v-5.4c0-3.5-1.1-6.3-3-8.3-2.2-2-5-3-8.7-3-4.2.1-7 1-9 3.2zm15.5 8v1.5h-13.9v-1.5c0-2.2.7-3.9 1.7-5.2 1.3-1.3 2.8-1.7 5.2-1.7 2.2 0 3.9.7 5.2 1.7 1.1 1.3 1.8 3.1 1.8 5.2z" style="fill:#fff" id="Layer_3" class="st0"/></svg>