<svg version="1.1" id="Layer_1" xmlns="http://www.w3.org/2000/svg" x="0" y="0" viewBox="0 0 70.6 18.4" style="enable-background:new 0 0 70.6 18.4" xml:space="preserve"><path class="curve-logo-letter" d="M6 18.2c-.8 0-1.6-.1-2.3-.4-.6-.2-1.2-.6-1.7-1.1-.5-.5-.8-1-1.1-1.7-.3-.7-.4-1.4-.4-2.2V5.3c0-.7.1-1.5.4-2.2.3-.6.7-1.2 1.1-1.7.5-.4 1.1-.8 1.7-1C4.4.1 5.1 0 6 0c1.5 0 2.8.4 3.7 1.3.9.8 1.5 2 1.7 3.5H9.2c-.1-.9-.4-1.6-1-2.1S6.9 2 6 2c-1 0-1.8.3-2.4.9-.5.5-.8 1.4-.8 2.4v7.6c0 1 .3 1.8.8 2.4.6.6 1.4.9 2.4.9.9 0 1.6-.2 2.2-.8.6-.5.9-1.2 1-2.1h2.2c-.2 1.5-.7 2.7-1.7 3.5-.9 1-2.2 1.4-3.7 1.4zM17.6 4.4v8.8c0 2 1 3.1 2.9 3.1 2 0 3-1 3-3.1V4.4h2.2v8.8c0 1.6-.4 2.8-1.3 3.7-.9.9-2.2 1.3-3.8 1.3-1.6 0-2.9-.4-3.8-1.3-.9-.9-1.3-2.1-1.3-3.7V4.4h2.1zm15.2 0v2.3h.2c.2-.8.7-1.4 1.3-1.9.7-.5 1.5-.7 2.5-.7 1.4 0 2.5.4 3.4 1.3.8.9 1.2 2.1 1.2 3.7v.9h-2.2v-.5c0-1.1-.3-1.9-.8-2.5-.5-.6-1.3-.9-2.3-.9-1 0-1.7.3-2.3.9-.6.6-.9 1.4-.9 2.4v8.5h-2.2V4.4h2.1zm11.1 0h2.3l3.3 9.6c.1.3.2.7.3 1 .1.3.1.5.1.7 0 .2 0 .4.1.6h.2v-.6l.1-.7c.1-.3.2-.7.3-1l3.1-9.6h2.4l-4.8 13.5h-2.5L43.9 4.4zM60.9 5.6c-1 .9-1.4 2.2-1.4 3.8V13c0 1.6.5 2.9 1.4 3.8s2.3 1.4 4 1.4c1.4 0 2.5-.3 3.5-.9s1.6-1.4 1.9-2.4H68c-.3.4-.7.8-1.2 1-.5.2-1.2.3-1.9.3-1 0-1.8-.3-2.3-.9-.6-.6-.8-1.4-.8-2.4v-1.1h8.6V9.3c0-1.6-.5-2.9-1.4-3.8-1-.9-2.3-1.4-4-1.4-1.9.1-3.2.5-4.1 1.5zM68 9.3v.7h-6.4v-.7c0-1 .3-1.8.8-2.4.6-.6 1.3-.8 2.4-.8 1 0 1.8.3 2.4.8.5.6.8 1.4.8 2.4z"/></svg>