<svg viewBox="0 0 12 11" fill="none" xmlns="http://www.w3.org/2000/svg"><path clip-rule="evenodd" d="M.8 5.574C.8 2.637 3.129.407 6.173.407c3.045 0 5.514 2.23 5.514 5.167a5.275 5.275 0 0 1-3.683 5.06c-.279.05-.38-.118-.38-.255 0-.058 0-.192.002-.373.002-.366.005-.92.005-1.398 0-.497-.172-.815-.374-.982 1.227-.134 2.52-.297 2.52-2.34 0-.58-.215-.873-.566-1.247.057-.138.244-.703-.057-1.438-.459-.14-1.515.572-1.515.572a5.334 5.334 0 0 0-2.756 0s-1.056-.71-1.515-.572c-.3.733-.114 1.3-.057 1.438-.351.372-.518.665-.518 1.247 0 2.037 1.238 2.208 2.465 2.34-.158.14-.3.375-.351.713-.314.14-1.12.375-1.6-.442-.301-.504-.848-.547-.848-.547-.537-.006-.035.327-.035.327.36.158.61.775.61.775.323.948 1.86.63 1.86.63 0 .289.002.694.004.98l.002.32c0 .138-.099.306-.38.257C2.332 9.932.8 7.922.8 5.574ZM3.853 8.66c-.066-.013-.11-.061-.094-.104.015-.042.079-.063.136-.048.066.019.107.067.094.11-.013.042-.079.063-.136.042Zm.474.068c.064 0 .114-.034.114-.076 0-.049-.057-.083-.123-.077-.063 0-.114.034-.114.077 0 .048.05.082.123.076Zm.402-.208c-.064.015-.108.055-.101.104.007.043.064.07.13.055.063-.015.107-.055.1-.097-.006-.04-.065-.068-.13-.062Zm-1.796-.81c-.028.02-.021.07.016.11.035.033.085.048.114.02.029-.02.022-.07-.015-.11-.035-.033-.086-.048-.115-.02Zm-.186-.09c-.044-.02-.066-.055-.05-.082.015-.021.05-.028.094-.015.044.021.066.055.05.083-.015.03-.059.036-.094.014Zm.66.672c-.035.027-.021.09.03.131.05.049.113.055.142.021.028-.027.015-.09-.029-.131-.048-.049-.114-.055-.142-.021Zm-.25-.187c-.035-.048-.035-.103 0-.125.035-.027.093-.006.123.043.035.049.035.104 0 .131-.028.021-.087 0-.123-.049Z"/></svg>