<svg width="100%" height="100%" viewBox="0 0 15 15" fill="none" xmlns="http://www.w3.org/2000/svg">
<path d="M13.5 13.95C13.7486 13.95 13.95 13.7485 13.95 13.5C13.95 13.2514 13.7486 13.05 13.5 13.05L1.50005 13.05C1.25152 13.05 1.05005 13.2514 1.05005 13.5C1.05005 13.7485 1.25152 13.95 1.50005 13.95L13.5 13.95Z" fill="currentColor"/>
<path d="M11.0682 7.56831C11.244 7.39257 11.244 7.10765 11.0682 6.93191C10.8925 6.75618 10.6076 6.75618 10.4318 6.93191L7.95003 9.41371L7.95003 1.49999C7.95003 1.25146 7.74855 1.04999 7.50003 1.04999C7.2515 1.04999 7.05002 1.25146 7.05002 1.49999V9.41371L4.56822 6.93191C4.39249 6.75618 4.10756 6.75618 3.93183 6.93191C3.75609 7.10765 3.75609 7.39257 3.93183 7.56831L7.18183 10.8183C7.35756 10.994 7.64249 10.994 7.81822 10.8183L11.0682 7.56831Z" fill="currentColor"/>
</svg>