<svg width="100%" height="100%" viewBox="0 0 15 15" fill="none" xmlns="http://www.w3.org/2000/svg">
<path fill-rule="evenodd" clip-rule="evenodd" d="M7.5 14C11.0899 14 14 11.0899 14 7.5C14 3.91015 11.0899 1 7.5 1C3.91015 1 1 3.91015 1 7.5C1 11.0899 3.91015 14 7.5 14ZM6.94688 4.26846C7.12744 4.23631 7.31263 4.21972 7.5 4.21972C7.68737 4.21972 7.87256 4.23631 8.05312 4.26846L8.41941 2.21153C8.11833 2.15792 7.81057 2.13043 7.5 2.13043C7.18943 2.13043 6.88167 2.15792 6.58059 2.21153L6.94688 4.26846ZM5.49423 4.96794C5.62486 4.84919 5.76865 4.74243 5.92352 4.64916L4.84567 2.85937C4.57685 3.02126 4.32292 3.20918 4.08883 3.422C3.86443 3.626 3.66251 3.849 3.48537 4.08778L5.16334 5.33258C5.25867 5.20409 5.36906 5.08174 5.49423 4.96794ZM9.07648 4.64916C9.23135 4.74243 9.37514 4.84919 9.50577 4.96794C9.63094 5.08174 9.74133 5.20409 9.83666 5.33258L11.5146 4.08778C11.3375 3.849 11.1356 3.626 10.9112 3.422C10.6771 3.20919 10.4232 3.02126 10.1543 2.85937L9.07648 4.64916ZM4.71429 6.65722C4.71429 6.50062 4.73159 6.34538 4.76546 6.19334L2.72614 5.73914C2.65942 6.03868 2.625 6.34621 2.625 6.65722H4.71429ZM10.2345 6.19334C10.2684 6.34538 10.2857 6.50062 10.2857 6.65722H12.375C12.375 6.34621 12.3406 6.03869 12.2739 5.73914L10.2345 6.19334ZM8.17589 7.0408L7.50014 5.6746L6.81459 7.02856L6.70196 7.27339L6.45713 7.31012L4.94892 7.52803L6.03111 8.59307L6.21229 8.7816L6.16822 9.02643L5.92338 10.5273L7.27244 9.8295L7.50014 9.70953L7.73763 9.80992L9.08669 10.5175L8.82961 9.01664L8.78554 8.7718L8.96916 8.59307L10.0416 7.54027L8.53335 7.32236L8.28851 7.28564L8.17589 7.0408ZM6.38612 6.82534L7.50014 4.56793L8.61415 6.82534L11.1042 7.1877L9.30214 8.94319L9.72816 11.4234L7.50014 10.2531L5.27211 11.4234L5.69813 8.94319L3.89612 7.18525L6.38612 6.82534Z" fill="currentColor"/>
</svg>
