<svg width="13" height="11" viewBox="0 0 13 11" fill="none" xmlns="http://www.w3.org/2000/svg">
<path fill-rule="evenodd" clip-rule="evenodd" d="M10.2919 4.44267C10.5319 4.21284 10.8584 4.06593 11.2296 4.06593C12.5977 4.06593 13.053 5.82168 11.8184 6.42825C11.8728 6.61543 11.8951 6.82394 11.8951 7.02297C11.8951 9.00855 9.55954 10.6174 6.67969 10.6174C3.8122 10.6174 1.47665 9.00855 1.47665 7.02297C1.47665 6.82394 1.49644 6.62491 1.54097 6.43773C0.281654 5.83352 0.731941 4.06593 2.10754 4.06593C2.47866 4.06593 2.81761 4.21284 3.0576 4.45215C3.94333 3.8669 5.121 3.49016 6.4298 3.43804L7.18193 0.177707C7.21409 0.061605 7.33285 -0.0213248 7.45408 0.0094777L9.86386 0.521273C10.0271 0.220356 10.3562 0 10.7372 0C11.284 0 11.7194 0.428866 11.7194 0.940662C11.7194 1.45246 11.2815 1.88132 10.7372 1.88132C10.2028 1.88132 9.76737 1.4643 9.76737 0.952509L7.58521 0.483363L6.89988 3.4404C8.21858 3.48068 9.40862 3.85742 10.2919 4.44267ZM4.51979 5.62264C3.97302 5.62264 3.53757 6.04203 3.53757 6.56331C3.53757 7.0751 3.97549 7.49449 4.51979 7.49212C5.0542 7.49212 5.48964 7.0751 5.48964 6.56331C5.48964 6.03966 5.0542 5.62264 4.51979 5.62264ZM8.83958 8.77872C7.939 9.64119 5.3981 9.64119 4.49753 8.77872C4.39856 8.69579 4.39856 8.54888 4.49753 8.45411C4.58412 8.37118 4.73751 8.37118 4.82411 8.45411C5.51191 9.12939 7.79303 9.14124 8.51052 8.45411C8.59711 8.37118 8.75051 8.37118 8.8371 8.45411C8.93854 8.54888 8.93854 8.69579 8.83958 8.77872ZM7.84994 6.56568C7.84994 7.07747 8.28538 7.49449 8.81978 7.49449C9.36409 7.49449 9.79953 7.0751 9.802 6.56568C9.802 6.04203 9.36409 5.62501 8.81978 5.62501C8.28538 5.62501 7.84994 6.0444 7.84994 6.56568Z" fill="#5A5A5A"/>
</svg>
