<svg viewBox="0 0 13 11" xmlns="http://www.w3.org/2000/svg"><path d="M10.851 3.136c.008.104.008.207.008.31 0 3.149-2.494 6.777-7.053 6.777A7.214 7.214 0 0 1 0 9.153c.2.023.391.03.599.03a5.094 5.094 0 0 0 3.077-1.018c-1.09-.022-2.003-.708-2.318-1.651.154.022.307.036.468.036.223 0 .446-.029.653-.08C1.343 6.247.49 5.29.49 4.131v-.03c.33.177.714.288 1.12.303A2.357 2.357 0 0 1 .507 2.42c0-.442.123-.848.338-1.202C2.064 2.664 3.9 3.61 5.955 3.712a2.587 2.587 0 0 1-.061-.546c0-1.313 1.105-2.382 2.479-2.382a2.52 2.52 0 0 1 1.81.752 5.004 5.004 0 0 0 1.574-.575 2.395 2.395 0 0 1-1.09 1.313 5.13 5.13 0 0 0 1.428-.369 5.22 5.22 0 0 1-1.244 1.231Z"/></svg>