<svg width="100%" height="100%" viewBox="0 0 48 48" fill="none" xmlns="http://www.w3.org/2000/svg">
<path d="M47.7557 33.533C47.6357 33.221 47.3237 33.005 46.9877 33.005H27.4997C27.0357 33.005 26.6597 33.3811 26.6597 33.845V33.845C26.6597 34.3089 27.0357 34.685 27.4997 34.685H44.8997L34.3877 44.837H2.89966L13.4117 34.685H20.2997C20.7636 34.685 21.1397 34.3089 21.1397 33.845V33.845C21.1397 33.3811 20.7636 33.005 20.2997 33.005H13.0997C12.8837 33.005 12.6677 33.101 12.5237 33.245L0.259658 45.077C0.0196578 45.317 -0.076342 45.677 0.067658 45.989C0.187658 46.301 0.499658 46.517 0.835658 46.517H34.7237C34.9397 46.517 35.1557 46.421 35.2997 46.277L47.5637 34.445C47.8037 34.205 47.8757 33.845 47.7557 33.533Z" fill="#1F1E1B"/>
<path d="M35.7797 36.197C35.1317 36.197 34.5557 36.485 34.1717 36.941C33.7877 36.485 33.2117 36.197 32.5637 36.197C31.4117 36.197 30.4517 37.133 30.4517 38.309C30.4517 38.573 30.6677 38.789 30.9317 38.789C31.1957 38.789 31.4117 38.573 31.4117 38.309C31.4117 37.685 31.9157 37.157 32.5637 37.157C33.1157 37.157 33.5717 37.541 33.6917 38.069C33.6917 38.141 33.6677 38.237 33.6677 38.309C33.6677 38.573 33.8837 38.789 34.1477 38.789H34.1717H34.1957C34.4597 38.789 34.6757 38.573 34.6757 38.309C34.6757 38.237 34.6757 38.141 34.6517 38.069C34.7717 37.541 35.2277 37.157 35.7797 37.157C36.4037 37.157 36.9317 37.661 36.9317 38.309C36.9317 38.573 37.1477 38.789 37.4117 38.789C37.6757 38.789 37.8917 38.573 37.8917 38.309C37.8677 37.157 36.9317 36.197 35.7797 36.197Z" fill="#1F1E1B"/>
<path d="M18.1156 40.6851C17.4676 40.6851 16.8916 40.9731 16.5076 41.4291C16.1236 40.9731 15.5476 40.6851 14.8996 40.6851C13.7476 40.6851 12.7876 41.6211 12.7876 42.7971C12.7876 43.0611 13.0036 43.2771 13.2676 43.2771C13.5316 43.2771 13.7476 43.0611 13.7476 42.7971C13.7476 42.1731 14.2516 41.6451 14.8996 41.6451C15.4516 41.6451 15.9076 42.0291 16.0276 42.5571C16.0276 42.6291 16.0036 42.7251 16.0036 42.7971C16.0036 43.0611 16.2196 43.2771 16.4836 43.2771H16.5076H16.5316C16.7956 43.2771 17.0116 43.0611 17.0116 42.7971C17.0116 42.7251 17.0116 42.6291 16.9876 42.5571C17.1076 42.0291 17.5636 41.6451 18.1156 41.6451C18.7396 41.6451 19.2676 42.1491 19.2676 42.7971C19.2676 43.0611 19.4836 43.2771 19.7476 43.2771C20.0116 43.2771 20.2276 43.0611 20.2276 42.7971C20.2276 41.6451 19.2676 40.6851 18.1156 40.6851Z" fill="#1F1E1B"/>
<path d="M25.6546 30.528C26.3582 30.528 26.7986 29.7672 26.4482 29.1571L25.571 27.63C24.8287 26.3377 22.9654 26.3348 22.2191 27.6248L21.3399 29.1446C20.9843 29.7591 21.4278 30.528 22.1378 30.528V30.528C22.6468 30.528 23.0596 30.9407 23.0596 31.4498V38.765C23.0596 39.229 23.4356 39.605 23.8996 39.605V39.605C24.3635 39.605 24.7396 39.229 24.7396 38.765V31.4431C24.7396 30.9377 25.1493 30.528 25.6546 30.528V30.528Z" fill="#1F1E1B"/>
<path fill-rule="evenodd" clip-rule="evenodd" d="M24.5136 11.2202C24.4763 11.2169 24.4488 11.1864 24.4488 11.1494V4.7517C24.4488 4.73079 24.4569 4.71149 24.4747 4.69701C24.4909 4.68253 24.512 4.67771 24.533 4.68092C26.2695 4.98014 27.9234 3.81543 28.2214 2.09253C28.2279 2.05875 28.2085 2.02657 28.1761 2.0137C27.3176 1.70001 26.3294 1.75149 25.4742 2.24214C24.7841 2.63787 24.2998 3.25078 24.0568 3.94412C24.047 3.97308 24.0195 3.99238 23.9871 3.99238L23.8656 3.98917C23.8348 3.98917 23.8089 3.96825 23.7992 3.9393C22.7997 0.734817 19.2053 -0.878625 16.1225 0.48867C16.0917 0.503149 16.0739 0.535322 16.082 0.569104C16.44 2.14882 17.4816 3.56125 19.0513 4.3447C20.4184 5.02676 21.933 5.10237 23.2856 4.67448C23.3083 4.66805 23.331 4.67126 23.3488 4.68413C23.3682 4.69861 23.378 4.71791 23.378 4.74205V11.1496C23.378 11.1866 23.3504 11.2172 23.3132 11.2204C20.0993 11.5212 17.5855 14.2061 17.5855 17.4764C17.5855 20.9463 20.4187 23.76 23.9128 23.76C27.4069 23.76 30.2401 20.9464 30.2401 17.4764C30.2417 14.2059 27.7276 11.5208 24.5136 11.2202ZM26.1934 14.8558C25.6459 14.5968 25.0579 14.4472 24.4261 14.3861C24.3889 14.3828 24.3613 14.3523 24.3613 14.3153V13.9774C24.3613 13.7329 24.1621 13.5335 23.9142 13.5335C23.668 13.5335 23.4672 13.7313 23.4672 13.9774V14.3233C23.4672 14.3587 23.4413 14.3893 23.4056 14.3941C23.127 14.4327 22.8613 14.5051 22.6038 14.6145C22.2377 14.7657 21.9542 14.962 21.7533 15.2017C21.5444 15.4526 21.3808 15.8451 21.4018 16.1733C21.4472 16.8812 21.925 17.3653 22.6005 17.6598C23.532 18.0475 24.1281 17.7917 24.9153 18.1102C25.1259 18.1955 25.3203 18.3419 25.4174 18.4593C25.7884 18.9081 25.385 19.3199 24.9137 19.5226C24.026 19.8942 22.8273 19.6642 21.9996 19.2926C21.7744 19.1928 21.5104 19.291 21.4099 19.5146C21.3095 19.7382 21.4083 20.0004 21.6335 20.1002C22.2053 20.3575 22.7884 20.512 23.404 20.5699C23.4412 20.5731 23.4688 20.6037 23.4688 20.6407V20.9769C23.4688 21.2214 23.668 21.4209 23.9158 21.4209C24.162 21.4209 24.3629 21.223 24.3629 20.9769V20.6342C24.3629 20.5988 24.3888 20.5683 24.4245 20.5634C24.7144 20.5248 24.9914 20.4492 25.2603 20.3366C25.9325 20.0583 26.4088 19.5532 26.459 18.847C26.4606 18.8277 26.4606 18.8084 26.459 18.7891C26.4153 18.0893 25.9196 17.5648 25.2587 17.2914C24.3143 16.9021 23.702 17.1563 22.9488 16.8409C22.0319 16.4146 22.1291 15.7663 22.9455 15.4301C23.83 15.0633 25.0238 15.2837 25.8159 15.6553C26.0379 15.7599 26.3035 15.665 26.4088 15.4446C26.5109 15.2242 26.4153 14.9603 26.1934 14.8558Z" fill="#1F1E1B"/>
</svg>
