<svg xmlns="http://www.w3.org/2000/svg" width="24" height="24" fill="none"><path fill="#00F" d="M11.121 15.025c-1.63-1.223-3.627-1.996-5.68-1.918-1.369.026-2.677.435-3.993.769-.37.072-.797.177-1.14-.042-.178-.136-.266-.36-.292-.577-.245-1.341 2.46-1.881 3.396-2.285 1.284-.444 2.559-.915 3.788-1.488.609-.286 1.224-.566 1.746-1 1.575-1.302 2.63-3.08 3.895-4.675.769-.976 2.14-2.614 3.455-1.534 1.131.927 1.386 2.454 1.231 3.834-.452 3.642-1.366 6.64 1.79 9.412 1.02.884 2.212 1.604 3.112 2.638.288.348.825.985.34 1.384-1.088.548-3.347-.315-4.477-.678a28.7 28.7 0 0 1-7.17-3.84m0 0a28.7 28.7 0 0 0 7.183 3.806c.64.226 1.29.425 1.951.58.796.146 1.708.432 2.466.064.422-.363-.112-.93-.367-1.25-.911-1.02-2.094-1.713-3.134-2.594-3.261-2.827-2.37-5.828-1.92-9.541.145-1.31-.099-2.756-1.157-3.623-.245-.205-.548-.33-.855-.306-.993.137-1.645 1.066-2.27 1.79-1.268 1.582-2.346 3.392-3.954 4.683-.534.435-1.172.72-1.794 1.003-1.857.862-3.834 1.402-5.737 2.132-.566.257-1.35.54-1.453 1.232-.036.954.591.995 1.357.822 3.709-1.06 6.44-1.204 9.684 1.202"/><path fill="#004CFF" d="M16.97 3.084c1.784 2.148.053 5.143.048 7.6-.134 1.964.654 3.923 2.126 5.224.479.434 1.017.814 1.504 1.254.505.486 1.988 1.695 1.481 2.445-.867.816-3.764-.313-4.786-.688a27.5 27.5 0 0 1-6.8-3.895c-1.037-.766-2.226-1.339-3.493-1.572-1.268-.248-2.578-.12-3.839.174l-.953.223c-.644.157-1.599.31-1.698-.618-.29-1.695 2.476-2.32 3.655-2.866 1.219-.467 2.43-.953 3.625-1.477 1.22-.471 2.219-1.358 3.13-2.282.919-.928 1.727-1.96 2.658-2.88.903-.9 2.285-1.939 3.341-.642m-.014.011c-1.054-1.28-2.41-.244-3.307.652-.926.92-1.731 1.955-2.64 2.896-.903.935-1.903 1.84-3.132 2.33a85 85 0 0 1-3.614 1.516C3.19 11 .443 11.684.743 13.199c.079.783.92.576 1.47.453l.952-.228c2.622-.7 5.345-.258 7.523 1.4 2.56 2.01 5.452 3.613 8.566 4.554.623.172 1.26.327 1.9.347.288.002.65-.006.852-.22.392-.63-1.018-1.817-1.451-2.238-.48-.44-1.01-.82-1.496-1.267-1.483-1.329-2.273-3.338-2.12-5.319.024-2.458 1.775-5.439.017-7.586"/><path fill="#008CFF" d="M17.46 3.558c1.606 2.12-.258 4.965-.38 7.31-.205 1.864.346 3.818 1.657 5.179.427.457.93.841 1.375 1.284.536.564 1.192 1.143 1.374 1.943.089 1.291-2.286.58-2.977.392-3.007-.944-5.795-2.579-8.219-4.572-5.145-3.952-9.25.854-9.163-2.407.09-1.62 2.336-2.258 3.567-2.854 1.16-.487 2.328-.949 3.495-1.416 1.163-.466 2.187-1.222 3.14-2.033 1.422-1.049 4.414-5.034 6.131-2.826m-.027.021c-1.674-2.174-4.687 1.81-6.065 2.85-.948.822-1.97 1.592-3.144 2.075-1.163.476-2.325.953-3.478 1.451-1.15.572-3.376 1.246-3.436 2.741-.132 2.877 3.9-1.742 9.13 2.198 2.409 2.006 5.141 3.631 8.124 4.591.579.17 2.838.835 2.756-.19-.176-.747-.797-1.304-1.314-1.855-.443-.448-.942-.833-1.37-1.3-1.324-1.392-1.873-3.396-1.648-5.282.138-2.34 2.018-5.173.445-7.279"/><path fill="#00D4FF" d="M17.952 4.032c.75 1.035.558 2.389.186 3.53-.355 1.163-.811 2.297-.988 3.496-.28 1.775.068 3.7 1.197 5.125.762.933 1.797 1.681 2.303 2.83.058.147.103.305.102.477-.164 1.558-3.834-.01-4.66-.376a23.5 23.5 0 0 1-4.685-2.833c-.485-.37-.938-.787-1.407-1.152-4.448-3.507-8.012.23-8.272-2.125-.26-1.455.62-2.318 1.807-2.945 1.606-.868 3.338-1.471 5.04-2.107 1.125-.445 2.167-1.079 3.157-1.775 1.498-.917 4.664-4.322 6.22-2.145m-.045.03c-1.51-2.127-4.684 1.266-6.136 2.17-.987.706-2.03 1.35-3.161 1.807-1.697.65-3.41 1.271-5 2.153-1.119.61-1.961 1.416-1.692 2.787.063.776.65.717 1.256.617 1.19-.228 2.436-.41 3.648-.184 1.22.206 2.36.77 3.33 1.518.486.383.925.793 1.403 1.162a23.2 23.2 0 0 0 4.622 2.833c.71.36 5.013 2.092 4.31.153-.487-1.116-1.507-1.863-2.26-2.802-1.14-1.46-1.483-3.434-1.185-5.235.189-1.213.656-2.348 1.018-3.503.375-1.127.579-2.447-.153-3.475"/><path fill="#16FFE1" d="M18.445 4.507c.674 1.049.376 2.352-.06 3.43-.42 1.1-.925 2.172-1.16 3.32-.354 1.697-.176 3.575.752 5.062.657.987 1.638 1.737 1.998 2.918.039.15.063.312.029.479-.425 1.408-3.706-.107-4.574-.517A21.4 21.4 0 0 1 11 16.28c-1.273-1.184-2.671-2.337-4.442-2.584-1.173-.243-2.326.095-3.504.095a.766.766 0 0 1-.693-.62c-.108-.605-.195-1.19-.082-1.797.372-1.628 2.846-2.418 4.218-3.015.418-.143 1.252-.437 1.67-.579 1.403-.43 2.734-1.061 4.01-1.785 1.552-.765 4.896-3.634 6.268-1.487m-.064.039c-1.312-2.079-4.661.786-6.16 1.526-1.277.73-2.618 1.363-4.024 1.804-.41.15-1.245.444-1.655.594-1.307.587-3.75 1.402-4.088 2.94-.1.553-.004 1.164.097 1.71.04.127.086.256.18.332.335.251.797.114 1.198.078 3.068-.54 5.075.458 7.228 2.565 1.775 1.512 3.781 2.797 5.977 3.598.627.202 2.417.832 2.685-.015a.9.9 0 0 0-.025-.395c-.335-1.122-1.332-1.914-1.956-2.876-.939-1.527-1.11-3.447-.737-5.176.248-1.165.765-2.238 1.191-3.33.435-1.06.742-2.32.09-3.355"/><path fill="#3CFFBA" d="M18.939 4.983c.6 1.065.191 2.316-.306 3.332-.486 1.039-1.037 2.05-1.33 3.152-.575 2.178-.3 4.69 1.274 6.407.16.241.31.49.44.752.255.497.52 1.342-.114 1.675-1.186.471-3.078-.491-4.154-1.027a19 19 0 0 1-2.876-1.907c-.91-.69-1.682-1.573-2.557-2.29-3.555-2.87-6.212-.02-6.426-2.312-.11-.709-.34-1.45-.134-2.166.328-1.01 1.372-1.522 2.245-1.975.912-.419 1.85-.797 2.813-1.077a32 32 0 0 0 4.852-1.689c1.57-.592 5.127-2.987 6.273-.875m-.085.045c-1.081-2.026-4.641.354-6.15.919a34 34 0 0 1-4.859 1.706c-.953.287-1.882.674-2.781 1.1-.836.45-1.831.937-2.138 1.896-.185.68.048 1.403.157 2.082.077.989.72.828 1.486.766 1.737-.222 3.549.262 4.903 1.383.893.737 1.633 1.6 2.548 2.303.889.71 1.831 1.358 2.833 1.896.992.52 2.056 1.01 3.172 1.138.272.022.56.018.785-.095.724-.444-.078-1.623-.391-2.143-.312-.48-.705-.92-.945-1.446-.733-1.579-.756-3.441-.31-5.104.307-1.12.87-2.135 1.36-3.165.492-.995.907-2.191.33-3.236"/><path fill="#60FF97" d="M19.434 5.46c.526 1.087 0 2.28-.555 3.235-.55.978-1.146 1.933-1.496 2.991-.5 1.568-.584 3.337-.071 4.909.377 1.059 1.3 1.927 1.28 3.117-.244 1.894-3.628.178-4.541-.373-1.458-.863-2.766-1.962-3.918-3.202-1.083-1.242-2.506-2.271-4.188-2.402-.565-.07-1.106.011-1.682-.043a.9.9 0 0 1-.437-.171c-.363-.305-.304-.812-.441-1.225-.312-1.114-.754-2.32.326-3.199C5.48 7.664 7.808 7.219 9.958 6.69a59 59 0 0 0 3.229-.917c1.6-.46 3.166-1.313 4.876-1.237.36.025.713.16.991.395l.147.162c.092.086.165.262.233.367m-.108.049c-.91-1.982-4.58-.016-6.108.364a59 59 0 0 1-3.236.912c-2.138.534-4.418 1.006-6.16 2.433-1.002.817-.548 1.971-.247 3.03.15.459.085 1.192.717 1.235.54.044 1.123-.037 1.674.027 1.14.09 2.24.566 3.126 1.28.888.706 1.55 1.621 2.406 2.357 1.235 1.116 2.613 2.102 4.152 2.746.707.276 2.6 1.002 2.732-.195.01-1.137-.905-2.005-1.252-3.038-.517-1.62-.421-3.422.101-5.026.364-1.078.975-2.038 1.527-3.007.544-.933 1.068-2.061.568-3.118"/><path fill="#8DFF6A" d="M19.929 5.938c.45 1.112-.194 2.24-.805 3.138-.611.92-1.255 1.82-1.659 2.84-.582 1.514-.754 3.232-.454 4.827.234 1.08 1.092 2.038.862 3.204-.41 1.32-2.184.625-3.07.256-1.525-.687-2.85-1.762-4.005-2.959-1.548-1.72-2.669-3.41-5.222-3.535-.403-.04-.932.024-1.246-.326a.96.96 0 0 1-.197-.415c-.095-.551-.273-1.052-.48-1.568-.194-.51-.436-1.045-.388-1.639.162-1.19 1.444-1.734 2.407-2.177 1.46-.68 3.23-.94 4.808-1.225 1.084-.199 2.17-.387 3.249-.61 1.615-.212 5.378-1.893 6.2.19m-.132.05c-.727-1.951-4.533-.335-6.047-.138-1.082.22-2.169.407-3.253.604-2.143.377-4.38.784-6.199 2.051-1.121.778-.972 1.7-.466 2.823.21.504.405 1.055.503 1.59.113.615.761.534 1.254.568 1.124.04 2.234.46 3.111 1.167.885.685 1.5 1.631 2.274 2.423a15 15 0 0 0 2.496 2.122c1.026.72 4.648 2.555 4.171-.078-.154-.814-.67-1.514-.833-2.331-.234-1.103-.14-2.231.027-3.334.256-1.672 1.216-3.118 2.155-4.468.595-.872 1.229-1.928.807-2.998"/><path fill="#94FF63" d="M20.426 6.418c.37 1.135-.39 2.198-1.057 3.04-.671.862-1.363 1.713-1.82 2.694-.666 1.467-.917 3.147-.817 4.748.06.825.501 1.567.53 2.402.061.568-.162 1.277-.768 1.464-1.31.336-2.834-.592-3.865-1.325-.885-.664-1.658-1.462-2.35-2.317-.682-.85-1.245-1.791-2.116-2.455a4.5 4.5 0 0 0-2.165-.958c-.386-.062-.95-.087-1.165-.512-.181-.386-.182-.8-.366-1.187-.342-1-1.298-1.995-.94-3.121.465-1.056 1.676-1.468 2.66-1.882 2.582-.945 5.396-.906 8.089-1.23 1.596-.046 5.506-1.43 6.15.639m-.159.049c-.556-1.913-4.492-.608-5.98-.577-2.697.298-5.49.276-8.05 1.25-1.07.465-2.88 1.105-2.58 2.57.278 1.053 1.051 1.93 1.247 3.027.08.65.586.68 1.129.748.832.112 1.63.465 2.285.987.887.675 1.473 1.645 2.153 2.497.68.844 1.44 1.629 2.303 2.278.853.634 1.834 1.176 2.886 1.344.257.023.525.04.756-.048 1.338-.604.124-2.576.093-3.62-.094-1.648.17-3.354.86-4.856.476-1.007 1.184-1.866 1.856-2.721.643-.817 1.383-1.79 1.042-2.88"/><path fill="#CAFF2C" d="M20.924 6.9c.298 1.222-.667 2.226-1.414 3.05-.769.84-1.526 1.695-2.023 2.71-.511 1.01-.73 2.143-.923 3.249-.085.558-.136 1.123-.091 1.68.127 1.063.585 2.62-.608 3.247-1.529.586-3.6-.922-4.6-1.992-.797-.834-1.44-1.808-2.029-2.774-.612-.968-1.49-1.662-2.466-2.247-1.733-.169-1.195-.86-1.878-2.169-.436-.928-1.3-1.75-1.315-2.836.102-1.139 1.355-1.642 2.262-2.04a10.4 10.4 0 0 1 3.03-.747c2.065-.225 4.153-.3 6.225-.153 1.032.035 2.064-.093 3.105-.136.979-.043 2.45-.042 2.725 1.157m-.187.043c-.26-1.105-1.619-1.056-2.533-1.045-1.032.031-2.07.146-3.115.104a30.6 30.6 0 0 0-6.207.142 10.2 10.2 0 0 0-2.988.768c-.848.382-2.05.87-2.141 1.914-.014.49.252.957.512 1.394.404.662.877 1.317 1.129 2.068.142.448.166 1.035.715 1.169.255.09.543.095.79.165.99.568 1.926 1.33 2.541 2.313.596.98 1.217 1.924 1.996 2.745.942 1.014 2.909 2.464 4.333 1.951 1.075-.602.576-2.036.486-3.025-.045-.582.01-1.162.097-1.73.2-1.134.426-2.277.95-3.31.514-1.042 1.292-1.914 2.06-2.75.715-.8 1.644-1.71 1.375-2.873"/><path fill="#FFE200" d="M21.421 7.382c.204 1.218-.825 2.127-1.61 2.88-.805.765-1.603 1.543-2.169 2.489-.588.941-.868 2.025-1.153 3.088-.202.8-.368 1.617-.336 2.443.037.84.004 1.827-.653 2.44-1.355 1.114-3.587-.391-4.52-1.473-.75-.852-1.3-1.848-1.79-2.849-.479-1.012-1.222-1.81-2.057-2.549l.05.029c-.255-.08-.526-.148-.778-.31-.258-.162-.417-.45-.486-.722-.097-.534-.312-1.001-.593-1.456-.737-1.25-2.706-2.978-.906-4.23 3.245-2.19 7.366-1.417 11.028-1.168 1.069.054 2.14-.015 3.22.009 1.014.026 2.543.124 2.753 1.38m-.215.036c-.2-1.147-1.606-1.184-2.543-1.241-1.068-.04-2.146.016-3.223-.057-3.156-.271-6.509-.833-9.527.417-.71.308-1.496.641-1.916 1.317-.62 1.144.99 2.46 1.508 3.427.29.453.534.98.634 1.507.067.245.19.457.395.584.21.134.483.202.745.281.85.735 1.645 1.606 2.13 2.637.997 2.104 2.67 4.62 5.25 4.573 1.187-.178 1.33-1.589 1.261-2.572-.032-.85.14-1.694.346-2.51.292-1.082.581-2.188 1.183-3.148.585-.974 1.403-1.769 2.21-2.532.744-.728 1.723-1.536 1.547-2.683"/><path fill="#FFA300" d="M21.92 7.868c.11 1.217-.983 2.034-1.806 2.723-.845.696-1.682 1.405-2.311 2.288-.658.878-1.004 1.917-1.357 2.948-.263.775-.503 1.557-.632 2.365-.115 1.076-.312 2.425-1.434 2.917-1.348.502-2.893-.464-3.756-1.457-1.122-1.285-1.4-2.982-2.21-4.423-.267-.471-.592-.906-.914-1.355l.045.039c-.247-.123-.519-.26-.724-.496-.207-.233-.297-.54-.355-.81-.121-.523-.398-1.006-.714-1.454-1.643-2.167-3.58-3.66.095-5.113 3.178-1.277 6.683-.41 9.924.095 1.1.144 2.215.137 3.332.207 1.04.078 2.675.196 2.816 1.526m-.246.022c-.145-1.197-1.639-1.227-2.587-1.346-1.104-.094-2.225-.11-3.334-.278-3.224-.574-6.704-1.382-9.852-.092-.723.319-1.58.66-1.918 1.416-.405 1.144 1.365 2.51 1.942 3.438.329.457.627.958.766 1.526.061.27.142.517.311.705.17.194.426.32.68.446.667.884 1.281 1.858 1.635 2.918.376 1.023.802 2.044 1.495 2.87 1.52 1.724 4.194 2.47 4.654-.523.151-1.663.718-3.232 1.316-4.78.633-1.562 1.893-2.766 3.175-3.789.775-.665 1.803-1.376 1.717-2.51"/><path fill="#FF6C00" d="M22.418 8.355c.021 1.221-1.139 1.952-2.002 2.586-.887.634-1.764 1.284-2.45 2.113q-.52.62-.89 1.338c-.675 1.471-1.31 3.005-1.73 4.573-.223.804-.614 1.645-1.343 2.122-1.286.794-2.93-.024-3.82-1.053-.727-.869-1.016-1.99-1.265-3.063-.219-1.074-.584-2.085-1.047-3.078l.034.045c-.225-.186-.455-.405-.604-.683-.148-.262-.203-.561-.283-.847-.166-.533-.484-1.018-.839-1.467-.354-.451-.755-.87-1.144-1.302-.542-.645-1.332-1.366-1.219-2.303.216-.921 1.224-1.312 1.995-1.643 3.324-1.321 6.964-.211 10.272.583 1.13.232 2.289.289 3.446.407 1.069.131 2.823.264 2.89 1.672m-.275.006c-.07-1.245-1.692-1.28-2.64-1.456-1.145-.146-2.31-.233-3.45-.494-3.282-.861-6.902-1.948-10.193-.593-.732.328-1.678.7-1.88 1.547-.081.867.673 1.525 1.199 2.142.392.425.8.842 1.168 1.3.368.455.708.954.894 1.532.08.264.134.56.274.798.132.246.342.442.57.628l.011.027c.468.99.853 2.046 1.074 3.12.247 1.054.536 2.132 1.22 2.947.804.92 2.31 1.698 3.458.986.662-.442 1.002-1.205 1.216-1.958.432-1.604 1.065-3.121 1.758-4.627.255-.495.567-.962.925-1.389.716-.86 1.618-1.524 2.506-2.157.807-.609 1.887-1.228 1.89-2.353"/><path fill="#FF3000" d="M22.916 8.844c-.081 1.294-1.406 1.93-2.352 2.548-.978.607-1.933 1.254-2.68 2.112-.78.852-1.213 1.922-1.693 2.962l-.726 1.573c-.558 1.171-1.013 2.564-2.227 3.24-1.527.801-3.518-.287-4.106-1.805-.641-1.65-.292-3.478-.74-5.153-.15-.56-.532-1.023-.682-1.593-.24-1.142-1.083-1.987-1.868-2.8-.876-.96-2.963-2.5-1.486-3.805 2.605-1.921 6.098-1.46 9.026-.64 1.117.288 2.2.724 3.313 1.011 1.117.274 2.265.385 3.413.55 1.058.174 2.838.377 2.808 1.8m-.305-.014c.02-1.228-1.63-1.328-2.542-1.54-1.134-.195-2.29-.34-3.412-.648-3.84-1.278-8.553-3.055-12.202-.406-.871.741-.314 1.638.315 2.32.774.857 1.682 1.596 2.393 2.522.266.354.506.738.657 1.16.12.426.23.808.458 1.193 1.009 1.812.351 4.054 1.11 5.938.536 1.365 2.339 2.364 3.706 1.645 1.135-.65 1.54-1.972 2.087-3.1l.73-1.579c1.058-2.571 2.112-3.778 4.49-5.203.88-.593 2.107-1.121 2.21-2.302"/><path fill="#DF0000" d="M23.414 9.335c-.186 1.329-1.615 1.869-2.627 2.452-1.046.562-2.064 1.178-2.874 2.026-.843.843-1.335 1.932-1.905 2.967-1.125 1.873-2.24 5.087-4.885 4.917-4.721-.97-1.602-5.517-2.69-8.549a23 23 0 0 0-.239-.857c-.407-1.104-1.343-1.93-2.18-2.732-.846-.879-3.022-2.38-1.77-3.69 3.227-2.554 7.7-1.156 11.156.182.558.218 1.104.458 1.672.622 1.138.342 2.317.509 3.495.718 1.078.221 2.968.458 2.847 1.944m-.334-.038c.116-1.234-1.675-1.392-2.565-1.636-1.752-.331-3.535-.729-5.158-1.501-3.392-1.385-7.843-2.731-11.009-.19-1.145 1.188 1.034 2.654 1.8 3.443.974.912 2.09 1.87 2.4 3.239l.12.43c.724 2.028-.237 4.182.086 6.238.183 1.16 1.303 1.931 2.4 2.072 2.404.155 3.522-3.052 4.564-4.769.576-1.054 1.093-2.18 1.956-3.04.847-.889 1.903-1.525 2.954-2.09.936-.56 2.25-.998 2.452-2.196"/><path fill="#AD0000" d="M8.872 21.299c-1.267-.787-1.134-2.339-.761-3.57.487-1.765 1.193-3.564.66-5.366-.668-1.73-2.374-2.741-3.672-4.01-.462-.444-.931-.89-1.198-1.498-.588-1.482 1.35-2.178 2.428-2.522 3.1-.895 6.201.478 9.054 1.58 1.136.446 2.262 1.015 3.453 1.295 1.2.33 2.427.505 3.62.899 1.089.331 1.887 1.112 1.233 2.287-.52.849-1.515 1.209-2.346 1.62-.562.26-1.12.52-1.652.822-1.065.596-2.024 1.385-2.711 2.388-.336.498-.643 1.051-.966 1.578-1.439 2.349-3.907 6.67-7.142 4.497m.207-.306c3.47 2.329 6.05-3.7 7.618-5.967.72-1.051 1.73-1.878 2.826-2.488.547-.31 1.114-.575 1.677-.835.797-.396 1.71-.714 2.196-1.48.542-.968-.158-1.514-1.05-1.798-1.164-.384-2.406-.566-3.596-.894-1.215-.292-2.375-.82-3.448-1.44-2.67-1.357-5.93-2.352-8.886-1.478-.89.324-2.72.879-2.219 2.12.24.535.7.97 1.128 1.375 1.87 1.74 4.29 3.1 3.974 6.057-.084 1.278-.52 2.474-.84 3.657-.324 1.105-.497 2.489.62 3.17"/></svg>