<svg xmlns="http://www.w3.org/2000/svg" viewBox="0 0 200 200" fill="none"><path fill="#00C6A8" d="M155.3 66.164c.117.07.214.173.281.297a.859.859 0 0 1-.001.815.785.785 0 0 1-.28.294l-19.6 11.733 12.313 7.36 23.934-14.328a5.986 5.986 0 0 0 2.207-2.289c.529-.962.805-2.059.798-3.175a6.52 6.52 0 0 0-.796-3.18 5.994 5.994 0 0 0-2.209-2.293l-30.959-18.53a13.263 13.263 0 0 0-6.069-1.88v12.977L155.3 66.164ZM65.678 112.449v6.919l19.27-11.532V59.524c-.001-2.947.732-5.84 2.124-8.382 1.392-2.542 3.391-4.642 5.794-6.083l31.086-18.603a7.002 7.002 0 0 1 2.569-.924l-16.858-10.094a5.463 5.463 0 0 0-3.159-.81 5.517 5.517 0 0 0-2.58.803L72.838 34.034c-2.17 1.299-3.977 3.192-5.235 5.486a15.774 15.774 0 0 0-1.924 7.564V112.449Z"/><path fill="#00C6A8" d="m119.96 71.714-19.652-11.756v22.999l40.567 24.284c2.402 1.441 4.402 3.541 5.794 6.083a17.48 17.48 0 0 1 2.124 8.382v36.717a8.416 8.416 0 0 1-.609 3.142l16.948-10.15a6 6 0 0 0 2.149-2.288c.514-.953.78-2.036.773-3.136v-36.716a15.741 15.741 0 0 0-1.917-7.559c-1.255-2.293-3.06-4.185-5.227-5.484l-13.244-7.924-27.706-16.594ZM65.96 39.404l-5.626-3.367a5.37 5.37 0 0 0-2.874-.787 5.386 5.386 0 0 0-2.85.876L37.848 46.155c.866.135 1.701.44 2.464.9l23.882 14.287V47.095a17.49 17.49 0 0 1 1.765-7.69ZM27.16 113.778l30.959 18.531a13.368 13.368 0 0 0 6.825 1.887c2.387 0 4.736-.649 6.825-1.887l40.108-24.02-12.305-7.368-34.234 20.491a.34.34 0 0 1-.113.049h-.06a.91.91 0 0 1-.195 0 .842.842 0 0 1-.188 0h-.075a.403.403 0 0 1-.097-.049L43.852 108.98a.776.776 0 0 1-.28-.293.847.847 0 0 1 0-.811.779.779 0 0 1 .28-.294l20.38-12.198V80.646L44.597 92.402l-17.368 10.391a6 6 0 0 0-2.206 2.294 6.537 6.537 0 0 0-.8 3.179 6.528 6.528 0 0 0 .758 3.189 6 6 0 0 0 2.18 2.323ZM84.948 151.104l-12.463 7.457a14.66 14.66 0 0 1-6.806 2.074v6.043c0 1.115.28 2.21.808 3.172a6.073 6.073 0 0 0 2.196 2.3l16.88 10.102a8.402 8.402 0 0 1-.608-3.134l-.007-28.014Z"/><g fill="#00C6A8" opacity=".48"><path d="M98.796 58.584a.937.937 0 0 1 0-.21v-.064l.045-.128.053-.064c.02-.034.043-.066.067-.097l.068-.056a.66.66 0 0 1 .083-.072l20.771-12.432a.716.716 0 0 1 .752 0c.113.07.208.17.274.292.066.121.1.259.101.4v24.372l12.343 7.385V33.327a6.518 6.518 0 0 0-.813-3.21 5.968 5.968 0 0 0-2.252-2.295 5.534 5.534 0 0 0-2.828-.783c-.99 0-1.963.27-2.829.783L93.545 46.434c-2.168 1.298-3.973 3.19-5.23 5.483a15.76 15.76 0 0 0-1.922 7.559v47.412l12.343-7.393.06-40.911Z"/><path d="M134.53 120.041a.64.64 0 0 1 .074.064.54.54 0 0 1 .121.113l.075.12a.562.562 0 0 1 .067.137c.004.056.004.113 0 .169a.385.385 0 0 1 0 .096v24.864c0 .14-.035.277-.101.399a.793.793 0 0 1-.274.292.643.643 0 0 1-.376.112.713.713 0 0 1-.368-.105l-20.404-12.206-12.305 7.361 37.45 22.42c.889.541 1.896.82 2.919.809a5.507 5.507 0 0 0 2.903-.873 6.016 6.016 0 0 0 2.132-2.285c.509-.95.774-2.028.767-3.123v-36.717a15.756 15.756 0 0 0-1.921-7.559c-1.257-2.292-3.062-4.185-5.23-5.483l-39.816-23.851v14.754l34.287 20.492ZM39.575 48.461a5.379 5.379 0 0 0-2.847-.784 5.39 5.39 0 0 0-2.832.849 5.874 5.874 0 0 0-2.07 2.227 6.381 6.381 0 0 0-.747 3.036v36.966a15.84 15.84 0 0 0 1.585 6.91l10.758-6.428V66.848a.848.848 0 0 1 .097-.402.782.782 0 0 1 .271-.297.714.714 0 0 1 .751 0l19.645 11.764v-14.73l-24.61-14.722ZM172.731 73.731l-23.138 13.847 12.065 7.232c2.168 1.301 4.011 3.143 5.371 5.368l4.966-2.973a5.983 5.983 0 0 0 2.206-2.29c.529-.962.805-2.059.799-3.175V71.65a7.675 7.675 0 0 1-2.269 2.081ZM86.458 179.127a6.54 6.54 0 0 0 .767 3.116 6.009 6.009 0 0 0 2.125 2.284 5.51 5.51 0 0 0 2.907.873 5.515 5.515 0 0 0 2.923-.808l17.849-10.688 13.237-7.916a14.408 14.408 0 0 0 4.793-4.749l-10.735-6.429-20.404 12.215H99.808a.615.615 0 0 1-.518 0h-.061a.712.712 0 0 1-.33-.329v-.041a.886.886 0 0 1-.046-.152.56.56 0 0 1 0-.153v-23.505l-12.342 7.385-.053 28.897Z"/><path d="m99.177 140.763 33.453-20.026-19.232-11.508-40.905 24.478a14.662 14.662 0 0 1-15.115 0L26.42 115.176a7.477 7.477 0 0 1-2.254-2.089v20.09a6.536 6.536 0 0 0 .798 3.178 6.008 6.008 0 0 0 2.207 2.294l30.958 18.531a13.378 13.378 0 0 0 6.825 1.887c2.388 0 4.737-.65 6.825-1.887l27.406-16.41-.008-.007Z"/></g></svg>
