<?xml version="1.0" standalone="no"?>
<!DOCTYPE svg PUBLIC "-//W3C//DTD SVG 20010904//EN"
 "http://www.w3.org/TR/2001/REC-SVG-20010904/DTD/svg10.dtd">
<svg version="1.0" xmlns="http://www.w3.org/2000/svg"
 width="1000.000000pt" height="1000.000000pt" viewBox="0 0 1000.000000 1000.000000"
 preserveAspectRatio="xMidYMid meet">
<metadata>
Created by potrace 1.14, written by Peter Selinger 2001-2017
</metadata>
<g transform="translate(0.000000,1000.000000) scale(0.100000,-0.100000)"
fill="#000000" stroke="none">
<path d="M3088 9835 c-2 -2 -57 -6 -123 -10 -197 -10 -379 -23 -450 -31 -27
-3 -75 -14 -105 -23 -30 -10 -109 -35 -175 -55 -170 -52 -345 -140 -505 -254
-129 -91 -269 -203 -355 -284 -22 -21 -43 -38 -48 -38 -6 0 -114 -143 -201
-265 -8 -11 -76 -103 -151 -204 -76 -102 -158 -223 -182 -270 -25 -48 -62
-117 -83 -156 -75 -140 -99 -191 -124 -265 -14 -41 -34 -100 -45 -130 -62
-169 -92 -258 -97 -285 -2 -16 -9 -43 -14 -60 -5 -16 -26 -100 -46 -185 -42
-179 -42 -183 -49 -212 -9 -43 -38 -165 -60 -258 -25 -100 -29 -127 -41 -225
-3 -33 -8 -69 -10 -80 -2 -11 -6 -45 -9 -75 -3 -30 -8 -66 -10 -80 -2 -14 -7
-54 -11 -90 -3 -36 -8 -74 -10 -85 -12 -55 -20 -702 -11 -807 4 -43 9 -113 12
-155 3 -43 8 -100 10 -128 2 -27 7 -84 10 -125 3 -41 8 -86 10 -100 2 -14 7
-49 10 -79 4 -30 8 -61 10 -70 1 -9 6 -45 10 -81 4 -36 8 -67 10 -70 2 -3 7
-33 10 -65 4 -33 9 -62 10 -65 2 -3 6 -26 10 -50 35 -248 76 -455 141 -710 60
-232 105 -404 114 -435 5 -16 11 -41 14 -55 3 -14 14 -56 26 -95 12 -38 24
-79 27 -90 8 -31 102 -333 123 -395 10 -30 40 -122 65 -205 47 -149 187 -544
206 -577 5 -10 9 -22 9 -27 0 -24 237 -491 293 -579 35 -53 83 -128 107 -167
36 -56 174 -232 199 -255 3 -3 29 -32 56 -65 28 -33 63 -71 79 -84 15 -14 33
-29 40 -35 6 -6 45 -40 86 -76 41 -36 84 -73 95 -83 11 -11 92 -61 180 -114
139 -82 179 -101 311 -143 135 -44 165 -50 275 -56 177 -10 182 -10 314 21 66
15 128 29 137 30 10 2 84 38 165 81 82 42 162 84 178 92 26 14 157 124 270
227 18 17 84 100 148 185 99 133 133 190 240 400 96 187 141 290 192 435 37
105 68 195 69 200 2 6 6 19 10 30 17 44 25 71 31 100 10 54 13 70 23 113 6 24
12 45 14 46 1 1 37 15 78 30 41 16 136 52 210 81 74 29 189 69 255 90 112 34
172 53 445 140 92 29 219 66 315 90 40 11 20 5 290 80 192 53 369 99 500 130
6 1 21 5 35 8 30 8 293 72 505 122 83 20 177 43 210 51 33 9 67 17 75 19 8 2
71 18 140 35 69 18 135 34 148 36 39 8 609 163 639 175 15 6 35 13 43 15 54
13 345 116 376 133 22 11 54 27 73 35 28 14 167 93 252 145 93 57 233 210 315
346 99 164 214 481 250 685 2 14 9 45 14 70 51 235 65 374 65 640 -1 236 -11
366 -40 500 -3 14 -10 50 -16 80 -20 107 -93 309 -215 592 -124 290 -205 440
-282 524 -20 22 -62 69 -92 104 -30 35 -73 85 -95 110 -38 42 -116 134 -175
205 -47 57 -106 110 -210 192 -127 99 -369 289 -390 306 -62 51 -136 106 -172
129 -198 122 -438 271 -508 315 -146 91 -852 440 -1120 553 -140 59 -327 139
-415 177 -88 39 -200 84 -250 102 -49 18 -99 36 -110 41 -11 4 -33 13 -50 19
-16 5 -138 49 -270 97 -187 67 -628 207 -725 229 -20 4 -143 40 -205 59 -27 8
-192 45 -365 81 -364 76 -351 73 -412 80 -27 3 -67 7 -90 10 -24 2 -74 7 -113
10 -38 4 -81 8 -95 10 -14 2 -61 7 -105 10 -44 4 -94 8 -112 10 -18 1 -33 1
-35 0z"/>
</g>
</svg>
